<?xml version="1.0" standalone="no"?>
<svg xmlns="http://www.w3.org/2000/svg" version="1.1"
    xmlns:xlink="http://www.w3.org/1999/xlink" width="64" height="64" x="0" y="0" viewBox="0 0 64 64" style="enable-background:new 0 0 512 512" xml:space="preserve" class="">
    <g>
        <path d="M61 28.23a1 1 0 0 0-1 1V43H29.185A6.452 6.452 0 0 0 31 38.5c0-5.397-3.813-10.069-9-11.217V26h3c2.206 0 4-1.794 4-4V10c0-2.206-1.794-4-4-4h-6V4a1 1 0 1 0-2 0v2h-6c-2.206 0-4 1.794-4 4v12c0 2.206 1.794 4 4 4h3v1.283C7.558 28.389 1.93 37.55 6.82 43H4V15c0-1.25.599-2.447 1.602-3.2a1 1 0 0 0-1.204-1.6A6.037 6.037 0 0 0 2 15v32c0 3.309 2.691 6 6 6h18v2c0 1.538.586 2.937 1.54 4h-3.86c-1.31.021-1.316 1.978 0 2h16.846c1.31-.02 1.319-1.978 0-2H36.46A5.969 5.969 0 0 0 38 55v-2h18c3.309 0 6-2.691 6-6V29.23a1 1 0 0 0-1-1zM11 24c-1.103 0-2-.897-2-2V10c0-1.103.897-2 2-2h14c1.103 0 2 .897 2 2v12c0 1.103-.897 2-2 2zm7 15a1 1 0 0 0 1-1v-3h4c1.103 0 2 .897 2 2v1c0 1.103-.897 2-2 2H13c-1.103 0-2-.897-2-2v-1c0-1.103.897-2 2-2h4v3a1 1 0 0 0 1 1zm-1-9c-.552 0-1-.449-1-1v-3h4v3c0 .551-.448 1-1 1zm-2.966-.666A2.994 2.994 0 0 0 17 32v1h-4c-2.206 0-4 1.794-4 4v1c0 2.206 1.794 4 4 4h10c2.206 0 4-1.794 4-4v-1c0-2.206-1.794-4-4-4h-4v-1c1.54 0 2.798-1.17 2.966-2.666C26.044 30.427 29 34.181 29 38.5a4.471 4.471 0 0 1-1.317 3.183A4.47 4.47 0 0 1 24.5 43h-13A4.505 4.505 0 0 1 7 38.5c0-4.32 2.956-8.073 7.034-9.166zM36 55c-.169 5.287-7.833 5.284-8 0v-2h8zm24-8c0 2.206-1.794 4-4 4H8c-2.206 0-4-1.794-4-4v-2h56z" fill="#ffffff" opacity="1" data-original="#000000" class=""/>
        <path d="M22 39a1 1 0 0 0 1-1v-1a1 1 0 1 0-2 0v1a1 1 0 0 0 1 1zM14 36a1 1 0 0 0-1 1v1a1 1 0 1 0 2 0v-1a1 1 0 0 0-1-1zM22.5 12c-4.625.147-4.624 6.853 0 7 4.625-.147 4.624-6.853 0-7zm0 5c-1.971-.035-1.971-2.965 0-3 1.971.035 1.971 2.965 0 3z" fill="#ffffff" opacity="1" data-original="#000000" class=""/>
        <path d="M13.5 12c-4.625.147-4.624 6.853 0 7 4.625-.147 4.624-6.853 0-7zm0 5c-1.971-.035-1.971-2.965 0-3 1.971.035 1.97 2.965 0 3zM56 3H39c-3.309 0-6 2.691-6 6v8.634l-2.515 1.509a1 1 0 0 0 0 1.714L33 22.367c-.291 3.516 2.428 6.652 6 6.633h17c3.309 0 6-2.691 6-6V9c0-3.309-2.691-6-6-6zm4 20c0 2.206-1.794 4-4 4H39c-2.206 0-4-1.794-4-4v-1.2a1 1 0 0 0-.485-.858L32.943 20l1.572-.942A1 1 0 0 0 35 18.2V9c0-2.206 1.794-4 4-4h17c2.206 0 4 1.794 4 4z" fill="#ffffff" opacity="1" data-original="#000000" class=""/>
        <path d="M45.553 13.895a1.002 1.002 0 0 0 1.342-.448l3-6a1 1 0 1 0-1.79-.894l-3 6a1 1 0 0 0 .448 1.342zM42.445 12.832c1.084.732 2.193-.946 1.11-1.664L41.803 10l1.752-1.168c1.085-.728-.019-2.387-1.11-1.664l-3 2c-.586.367-.586 1.297 0 1.664l3 2zM52.555 12.832l3-2c.586-.367.587-1.297 0-1.664l-3-2c-1.092-.722-2.195.935-1.11 1.664L53.197 10l-1.752 1.168c-1.083.748.008 2.375 1.11 1.664zM38 17h15a1 1 0 1 0 0-2H38c-1.31.02-1.318 1.978 0 2zM57 19H38a1 1 0 1 0 0 2h19c1.308-.02 1.32-1.977 0-2zM57 23H38a1 1 0 1 0 0 2h19c1.308-.02 1.32-1.977 0-2zM49 31H34c-1.31.02-1.318 1.978 0 2h15c1.31-.021 1.317-1.978 0-2zM57 35H34c-1.307.02-1.32 1.977 0 2h23c1.307-.02 1.32-1.977 0-2zM34 39c-1.308.02-1.32 1.977 0 2h20a1 1 0 1 0 0-2z" fill="#ffffff" opacity="1" data-original="#000000" class=""/>
    </g>
</svg>