<svg id="Layer_1" width="35px" height="35px" viewBox="0 0 512 512"
    xmlns="http://www.w3.org/2000/svg" data-name="Layer 1">
    <path d="m425.143 368.046h23.314v-233.041h-109.155v133.898c49.293 7.083 85.841 49.385 85.841 99.142zm-54.432-45.735c25.259 25.259 25.259 66.212 0 91.47-25.259 25.259-66.212 25.259-91.47 0-25.259-25.259-25.259-66.212 0-91.47 25.259-25.259 66.212-25.259 91.47 0zm16.61-16.61c34.432 34.432 34.432 90.257 0 124.69-33.211 33.21-86.321 34.384-120.943 3.53l-7.275-7.275c-30.855-34.623-29.682-87.733 3.529-120.944 34.432-34.432 90.257-34.432 124.689 0zm-8.124 8.124c29.942 29.942 29.942 78.498 0 108.441-29.942 29.942-78.498 29.942-108.441 0-29.942-29.942-29.942-78.498 0-108.441 29.942-29.942 78.498-29.942 108.441 0zm-125.546 141.34c2.951 2.951 7.779 2.951 10.729 0l4.273-4.273c-10.425-7.104-19.419-16.098-26.523-26.523l-4.273 4.273c-2.951 2.951-2.951 7.778 0 10.729zm-59.663 21.047c-11.358 9.946 12.877 34.181 22.822 22.822l29.821-34.059-18.585-18.585-34.059 29.821zm-121.252-274.832c10.708 0 19.389 8.681 19.389 19.389s-8.681 19.389-19.389 19.389-19.389-8.681-19.389-19.389 8.68-19.389 19.389-19.389zm356.333-191.38c10.708 0 19.389 8.681 19.389 19.389s-8.681 19.389-19.389 19.389-19.389-8.681-19.389-19.389 8.681-19.389 19.389-19.389zm-137.881 84.021c10.709 0 19.389 8.681 19.389 19.389s-8.681 19.389-19.389 19.389-19.389-8.681-19.389-19.389 8.681-19.389 19.389-19.389zm-137.88 0c10.708 0 19.389 8.681 19.389 19.389s-8.681 19.389-19.389 19.389-19.389-8.681-19.389-19.389 8.681-19.389 19.389-19.389zm-66.853 98.512 43.577-58.066c2.683 2.963 5.923 5.412 9.556 7.18l-43.577 58.066c-2.683-2.963-5.923-5.412-9.556-7.18zm97.666-85.123h76.253c-.768 3.962-.768 8.038 0 12h-76.253c.768-3.962.768-8.038 0-12zm130.263-15.144 85.252-51.95c1.415 3.81 3.549 7.271 6.236 10.218l-85.252 51.95c-1.416-3.809-3.548-7.271-6.236-10.218zm-293.929 327.527h209.281l6.072-6.072c-3.534-6.897-6.219-14.116-8.049-21.504h-207.304zm390.307 0h80.784v-27.576h-69.35c-2.375 9.589-6.188 18.894-11.434 27.576zm-347.219-51.748h109.155v-106.199h-109.156v106.199zm137.88 0h23.388c0-49.729 36.508-92.018 85.767-99.132v-70.488h-109.155z" fill-rule="evenodd"/>
</svg>