<svg id="Layer_1" width="35px" height = "35px" enable-background="new 0 0 512 512" viewBox="0 0 512 512"
    xmlns="http://www.w3.org/2000/svg">
    <path d="m500.46 399.18-12.76-4.14c-1.7-.57-2.89-1.81-3.32-3.54-1.93-7.29-4.82-14.17-8.53-20.52-.88-1.53-.94-3.26-.14-4.85l6.09-11.96c1.02-1.98.65-4.28-.94-5.87l-12.1-12.13c-1.59-1.56-3.91-1.93-5.9-.91l-11.93 6.07c-1.59.82-3.32.77-4.85-.14-6.35-3.69-13.24-6.58-20.52-8.5-1.73-.45-2.98-1.64-3.54-3.32l-4.14-12.76c-.68-2.13-2.58-3.49-4.82-3.49h-17.15c-2.21 0-4.11 1.36-4.79 3.49l-4.17 12.76c-.54 1.67-1.79 2.86-3.52 3.32-7.28 1.93-14.17 4.82-20.52 8.5-1.53.91-3.26.96-4.85.14l-11.96-6.07c-1.98-1.02-4.28-.65-5.87.91l-12.13 12.13c-1.56 1.59-1.93 3.88-.94 5.87l6.09 11.96c.82 1.59.77 3.32-.14 4.85-3.69 6.35-6.58 13.24-8.5 20.52-.45 1.73-1.64 2.98-3.32 3.54l-12.76 4.14c-2.13.68-3.49 2.58-3.49 4.79v.37h-40.82v-77.58l6.77 6.77c3.23 3.23 8.45 3.23 11.68 0s3.23-8.45 0-11.68l-20.86-20.86c-3.23-3.23-8.45-3.23-11.68 0l-20.86 20.86c-3.23 3.23-3.23 8.45 0 11.68s8.45 3.23 11.68 0l6.77-6.77v77.58h-40.82v-.37c0-2.21-1.36-4.11-3.49-4.79l-12.76-4.14c-1.67-.57-2.86-1.81-3.32-3.54-1.93-7.29-4.79-14.17-8.5-20.52-.91-1.53-.96-3.26-.14-4.85l6.09-11.96c.99-1.98.62-4.28-.94-5.87l-12.13-12.13c-1.59-1.56-3.88-1.93-5.87-.91l-11.96 6.07c-1.59.82-3.32.77-4.85-.14-6.35-3.69-13.24-6.58-20.52-8.5-1.73-.45-2.98-1.64-3.51-3.32l-4.17-12.76c-.68-2.13-2.58-3.49-4.79-3.49h-17.11c-2.24 0-4.14 1.36-4.82 3.49l-4.14 12.76c-.54 1.67-1.81 2.86-3.54 3.32-7.29 1.93-14.17 4.82-20.52 8.5-1.53.91-3.26.96-4.85.14l-11.93-6.07c-1.98-1.02-4.31-.65-5.87.91l-12.13 12.13c-1.59 1.59-1.96 3.88-.94 5.87l6.09 11.96c.79 1.59.74 3.32-.14 4.85-3.71 6.35-6.6 13.24-8.5 20.52-.45 1.73-1.64 2.98-3.34 3.54l-12.76 4.14c-2.1.68-3.49 2.58-3.49 4.79v17.18c0 2.21 1.39 4.11 3.49 4.79l12.76 4.14c1.7.57 2.89 1.81 3.34 3.54 1.9 7.28 4.79 14.17 8.5 20.52.88 1.53.94 3.26.14 4.85l-6.09 11.93c-1.02 2.01-.65 4.31.94 5.9l12.13 12.13c1.56 1.56 3.88 1.93 5.87.91l11.93-6.07c1.59-.82 3.32-.77 4.85.11 6.35 3.71 13.24 6.6 20.52 8.53 1.73.45 3 1.64 3.54 3.32l4.14 12.76c.68 2.13 2.58 3.49 4.82 3.49h17.15c2.21 0 4.11-1.36 4.79-3.49l4.17-12.76c.54-1.67 1.79-2.86 3.51-3.32 7.28-1.93 14.17-4.82 20.52-8.53 1.53-.88 3.26-.94 4.85-.11l11.96 6.07c1.98 1.02 4.28.65 5.87-.91l12.13-12.13c1.56-1.59 1.93-3.88.94-5.9l-6.09-11.93c-.82-1.59-.77-3.32.14-4.85 3.69-6.35 6.58-13.24 8.5-20.52.45-1.73 1.64-2.98 3.32-3.54l12.76-4.14c2.13-.68 3.49-2.58 3.49-4.79v-.37h48.33c.26.03.48.03.74.03.25 0 .48 0 .74-.03h48.33v.37c0 2.21 1.36 4.11 3.49 4.79l12.76 4.14c1.67.57 2.86 1.81 3.32 3.54 1.93 7.28 4.82 14.17 8.5 20.52.91 1.53.96 3.26.14 4.85l-6.09 11.93c-.99 2.01-.62 4.31.94 5.9l12.13 12.13c1.59 1.56 3.88 1.93 5.87.91l11.96-6.07c1.59-.82 3.32-.77 4.85.11 6.35 3.71 13.24 6.6 20.52 8.53 1.73.45 2.98 1.64 3.52 3.32l4.17 12.76c.68 2.13 2.58 3.49 4.79 3.49h17.15c2.24 0 4.14-1.36 4.82-3.49l4.14-12.76c.57-1.67 1.81-2.86 3.54-3.32 7.29-1.93 14.17-4.82 20.52-8.53 1.53-.88 3.26-.94 4.85-.11l11.93 6.07c1.98 1.02 4.31.65 5.9-.91l12.1-12.13c1.59-1.59 1.96-3.88.94-5.9l-6.09-11.93c-.79-1.59-.74-3.32.14-4.85 3.71-6.35 6.6-13.24 8.5-20.52.45-1.73 1.64-2.98 3.34-3.54l12.76-4.14c2.1-.68 3.49-2.58 3.49-4.79v-17.18c-.03-2.21-1.42-4.11-3.52-4.79zm-392.97 56.29c-23.7 0-42.92-19.22-42.92-42.92s19.22-42.92 42.92-42.92 42.92 19.22 42.92 42.92c0 23.71-19.22 42.92-42.92 42.92zm297.02 0c-23.7 0-42.92-19.22-42.92-42.92s19.22-42.92 42.92-42.92 42.92 19.22 42.92 42.92c-.01 23.71-19.23 42.92-42.92 42.92zm-274.23-307.61 16.7 5.41c2.21.71 3.77 2.38 4.37 4.62 2.52 9.55 6.29 18.57 11.14 26.9 1.19 2.01 1.25 4.28.2 6.35l-7.99 15.65c-1.33 2.61-.85 5.64 1.22 7.71l15.9 15.9c2.07 2.04 5.1 2.52 7.68 1.22l15.68-7.99c2.07-1.05 4.34-.99 6.35.17 8.33 4.88 17.35 8.65 26.9 11.17 2.24.6 3.88 2.15 4.62 4.37l5.41 16.7c.91 2.78 3.4 4.59 6.32 4.59h22.45c2.92 0 5.41-1.81 6.32-4.59l5.41-16.7c.74-2.21 2.38-3.77 4.62-4.37 9.55-2.52 18.6-6.29 26.9-11.17 2.01-1.16 4.28-1.22 6.35-.17l15.68 7.99c2.58 1.3 5.61.82 7.68-1.22l15.9-15.9c2.07-2.07 2.55-5.1 1.22-7.71l-7.99-15.65c-1.05-2.07-.99-4.34.2-6.35 4.85-8.33 8.62-17.35 11.14-26.9.6-2.24 2.15-3.91 4.37-4.62l16.7-5.41c2.78-.91 4.59-3.4 4.59-6.32v-22.48c0-2.92-1.81-5.39-4.59-6.29l-16.7-5.44c-2.21-.71-3.77-2.35-4.37-4.59-2.49-9.55-6.29-18.6-11.14-26.9-1.19-2.01-1.25-4.28-.2-6.35l7.99-15.68c1.33-2.61.85-5.64-1.22-7.68l-15.9-15.9c-2.07-2.07-5.1-2.55-7.68-1.22l-15.68 7.97c-2.07 1.08-4.34.99-6.35-.17-8.31-4.85-17.35-8.65-26.9-11.14-2.24-.6-3.88-2.15-4.62-4.37l-5.41-16.7c-.91-2.78-3.4-4.59-6.32-4.59h-22.45c-2.92 0-5.41 1.81-6.32 4.59l-5.41 16.7c-.74 2.21-2.38 3.77-4.62 4.37-9.55 2.49-18.6 6.29-26.9 11.14-2.01 1.16-4.28 1.25-6.35.17l-15.69-7.98c-2.58-1.33-5.61-.85-7.68 1.22l-15.9 15.9c-2.07 2.04-2.55 5.07-1.22 7.68l7.99 15.68c1.05 2.07.99 4.34-.2 6.35-4.85 8.31-8.65 17.35-11.14 26.9-.6 2.24-2.15 3.88-4.37 4.59l-16.7 5.44c-2.78.91-4.59 3.37-4.59 6.29v22.48c.01 2.93 1.83 5.42 4.6 6.33zm125.72-82.38c35.8 0 64.83 29.03 64.83 64.83s-29.03 64.83-64.83 64.83-64.83-29.03-64.83-64.83 29.03-64.83 64.83-64.83zm-36.37 63.58c-3.2-3.23-3.2-8.48 0-11.68 3.23-3.23 8.48-3.23 11.68 0l19.25 19.22 30.13-30.13c3.2-3.2 8.45-3.2 11.68 0 3.2 3.23 3.2 8.48 0 11.68l-35.97 35.97c-3.23 3.23-8.45 3.23-11.68 0z"/>
</svg>