<svg width="40" height="40" viewBox="0 0 40 40" fill="none" xmlns="http://www.w3.org/2000/svg">
<path fill-rule="evenodd" clip-rule="evenodd" d="M16.058 13.6416C15.9288 17.9097 15.5419 23.439 13.712 28.5896C13.9552 28.7031 14.1907 28.8363 14.4149 28.9887C15.3108 28.1216 16.4917 27.5464 17.8031 27.4374C17.9348 27.4272 18.0633 27.4852 18.1412 27.5936L19.5 29.472L20.8582 27.5936C20.9361 27.4852 21.0646 27.4266 21.1969 27.4374C22.5083 27.5464 23.6892 28.1216 24.5851 28.9887C24.8093 28.8363 25.0442 28.7031 25.288 28.5896C23.4587 23.439 23.0718 17.9097 22.942 13.6416C22.9388 13.5377 22.9775 13.4376 23.049 13.3637C23.1206 13.2891 23.2193 13.247 23.3219 13.247H25.7331L19.5 6L13.2675 13.2476H15.6787C15.7813 13.2476 15.8801 13.2897 15.9516 13.3643C16.0225 13.4376 16.0612 13.5384 16.058 13.6416ZM28.2355 30.8314C28.307 30.9302 28.421 30.9889 28.5426 30.9889C28.6641 30.9889 28.7781 30.9302 28.8496 30.8314L30.2325 28.9186C32.3613 29.2029 34 31.0641 34 33.2466V35H32.7577V32.7569C32.7577 32.5459 32.5874 32.3744 32.3778 32.3744C32.1682 32.3744 31.9979 32.5459 31.9979 32.7569V35H26.3087V33.0298C26.3087 31.7323 25.8572 30.524 25.1018 29.5632C25.6331 29.2214 26.2289 29.0015 26.8519 28.9186L28.2355 30.8314ZM26.2004 24.7844C26.2004 26.0851 27.2515 27.1435 28.5432 27.1435C29.8349 27.1435 30.8853 26.0851 30.8853 24.7844C30.8853 23.4837 29.8349 22.4259 28.5432 22.4259C27.2509 22.4265 26.2004 23.4837 26.2004 24.7844ZM12.1481 28.9186C12.7711 29.0015 13.3669 29.2214 13.8982 29.5632C13.1434 30.524 12.6913 31.7323 12.6913 33.0298V35H7.00214V32.7569C7.00214 32.5459 6.83181 32.3744 6.62223 32.3744C6.41201 32.3744 6.24231 32.5459 6.24231 32.7569V35H5V33.2466C5 31.0641 6.63869 29.2029 8.76747 28.9186L10.151 30.8314C10.2225 30.9302 10.3365 30.9889 10.4581 30.9889C10.5797 30.9889 10.6936 30.9302 10.7652 30.8314L12.1481 28.9186ZM10.4581 27.1435C11.7498 27.1435 12.8009 26.0851 12.8009 24.7844C12.8009 23.4837 11.7498 22.4259 10.4581 22.4259C9.16638 22.4259 8.11528 23.4837 8.11528 24.7844C8.11528 26.0851 9.16638 27.1435 10.4581 27.1435ZM19.5 26.3478C18.0563 26.3478 16.8818 25.165 16.8818 23.7113C16.8818 22.2575 18.0563 21.0748 19.5 21.0748C20.9437 21.0748 22.1182 22.2575 22.1182 23.7113C22.1182 25.1656 20.9437 26.3478 19.5 26.3478ZM21.3438 28.2229C23.7189 28.5277 25.5488 30.5993 25.5488 33.0298V35H24.1039V32.491C24.1039 32.28 23.9336 32.1085 23.724 32.1085C23.5144 32.1085 23.3441 32.28 23.3441 32.491V35H15.6565V32.491C15.6565 32.28 15.4862 32.1085 15.2766 32.1085C15.0664 32.1085 14.8967 32.28 14.8967 32.491V35H13.4518V33.0298C13.4518 30.5993 15.2823 28.5277 17.6568 28.2229L19.1935 30.3474C19.2651 30.4469 19.3791 30.5049 19.5006 30.5049C19.6222 30.5049 19.7362 30.4469 19.8077 30.3474L21.3438 28.2229ZM19.5 20.3097C21.3628 20.3097 22.8781 21.8355 22.8781 23.7113C22.8781 25.5871 21.3622 27.1129 19.5 27.1129C17.6372 27.1129 16.1219 25.5871 16.1219 23.7113C16.1226 21.8355 17.6378 20.3097 19.5 20.3097Z" fill="#383F51"/>
</svg>
