<svg width="35" height="35" viewBox="0 0 35 35" fill="none" xmlns="http://www.w3.org/2000/svg">
<path d="M16.9992 16.7336C17.864 16.7331 18.7092 16.4762 19.4281 15.9953C20.1469 15.5145 20.707 14.8313 21.0375 14.0321C21.368 13.2329 21.4541 12.3537 21.285 11.5056C21.1158 10.6574 20.6989 9.87854 20.0871 9.26734C19.4752 8.65615 18.6959 8.24011 17.8476 8.07185C16.9993 7.90358 16.1201 7.99065 15.3213 8.32203C14.5225 8.65341 13.8399 9.21423 13.3598 9.93356C12.8797 10.6529 12.6237 11.4984 12.6241 12.3633C12.6259 13.5226 13.0876 14.6339 13.9078 15.4533C14.728 16.2726 15.8398 16.7331 16.9992 16.7336Z" fill="#383F51"/>
<path d="M20.8044 16.0625C20.3095 16.5708 19.7178 16.9748 19.0643 17.2507C18.4107 17.5266 17.7084 17.6687 16.999 17.6687C16.2896 17.6687 15.5874 17.5266 14.9338 17.2507C14.2802 16.9748 13.6886 16.5708 13.1937 16.0625C12.2151 16.3923 11.3645 17.0206 10.7614 17.859C10.1584 18.6973 9.83335 19.7036 9.83191 20.7363V26.1759C9.83224 26.246 9.84837 26.3151 9.87908 26.3782C9.9098 26.4412 9.95432 26.4966 10.0093 26.54C11.9918 28.1326 14.4585 29.0007 17.0014 29.0007C19.5443 29.0007 22.011 28.1326 23.9934 26.54C24.0478 26.4963 24.0916 26.4408 24.1215 26.3778C24.1515 26.3147 24.1667 26.2457 24.1662 26.1759V20.7363C24.1647 19.7036 23.8396 18.6973 23.2366 17.859C22.6336 17.0206 21.783 16.3923 20.8044 16.0625Z" fill="#383F51"/>
<path d="M21.4207 15.2962C22.1865 15.6042 22.8786 16.0704 23.4518 16.6642C24.2644 16.2853 24.9234 15.6404 25.3198 14.8361C25.7163 14.0319 25.8264 13.1165 25.6321 12.2412C25.4377 11.3659 24.9506 10.583 24.2511 10.0221C23.5516 9.4612 22.6816 9.15575 21.785 9.15625C21.6069 9.15708 21.4291 9.16955 21.2527 9.1936C21.9079 10.0687 22.2758 11.1254 22.3059 12.2182C22.336 13.311 22.0268 14.3863 21.4207 15.2962Z" fill="#383F51"/>
<path d="M10.551 16.6642C11.1217 16.0695 11.8125 15.6031 12.5774 15.2962C11.9714 14.3863 11.6622 13.311 11.6923 12.2182C11.7224 11.1254 12.0903 10.0687 12.7455 9.1936C12.5691 9.16939 12.3913 9.15691 12.2132 9.15625C11.3162 9.15545 10.4459 9.46093 9.74622 10.0221C9.04653 10.5834 8.55943 11.3666 8.36555 12.2424C8.17166 13.1181 8.28261 14.0338 8.68003 14.8379C9.07745 15.642 9.73752 16.2864 10.551 16.6642Z" fill="#383F51"/>
<path d="M8.64129 16.4023C7.99012 16.6507 7.40698 17.0497 6.93955 17.5666C6.47211 18.0836 6.13366 18.7038 5.95187 19.3766C5.9324 19.4385 5.92919 19.5045 5.94253 19.568C6.29276 21.8089 7.32474 23.8875 8.8981 25.5212V20.7353C8.8974 19.5432 9.26245 18.3796 9.94398 17.4015C9.45578 17.1455 9.01515 16.8075 8.64129 16.4023Z" fill="#383F51"/>
<path d="M28.051 19.3766C27.8705 18.7025 27.5319 18.0811 27.0634 17.5638C26.5949 17.0466 26.0099 16.6485 25.3569 16.4023C24.9862 16.811 24.5449 17.1494 24.0542 17.4015C24.7357 18.3796 25.1008 19.5432 25.1001 20.7353V25.5212C26.6739 23.8873 27.7074 21.809 28.0603 19.568C28.0713 19.5043 28.0681 19.4389 28.051 19.3766Z" fill="#383F51"/>
</svg>
