<svg width="35" height="35" viewBox="0 0 35 35" fill="none" xmlns="http://www.w3.org/2000/svg">
<path d="M9.80496 28.1171C9.80808 28.3356 9.80203 28.4909 9.8046 28.6268C9.80849 28.8329 9.64428 29.0027 9.43813 29.0027H6.36763C6.16514 29.0027 6.00098 28.8385 6.00098 28.636V28.2267C6.00098 27.3422 6.56287 26.5548 7.39929 26.2674L8.74947 25.8032C8.88742 25.7555 9.01438 25.6868 9.1262 25.6006C9.23024 25.5209 9.37003 25.5025 9.49056 25.5552C9.69634 25.6454 9.90772 25.7183 10.1225 25.7737C10.3668 25.8367 10.4754 26.1197 10.3373 26.3308C9.99773 26.8498 9.79571 27.4668 9.80496 28.1171Z" fill="#383F51"/>
<path d="M13.6578 23.5785C13.8139 23.7173 13.8286 23.9577 13.6835 24.108C13.0137 24.8019 12.1006 25.1725 11.1767 25.1725C9.25825 25.1725 7.69586 23.6088 7.69495 21.6871V19.648C7.69582 17.9109 8.9504 16.5301 10.5117 16.2295C10.7391 16.1857 10.9508 16.3576 10.9508 16.5892V18.653C10.9508 19.3706 11.3159 20.0074 11.8701 20.3861C11.9508 20.4413 12.0081 20.5249 12.024 20.6214C12.2167 21.7902 12.8105 22.8253 13.6578 23.5785Z" fill="#383F51"/>
<path d="M20.341 23.5791C21.1862 22.8287 21.7789 21.7988 21.9727 20.6356C21.9894 20.5359 22.0493 20.4497 22.1337 20.394C22.7135 20.0115 23.096 19.3571 23.096 18.6162V16.5992C23.096 16.3661 23.3107 16.1928 23.539 16.2403C25.0967 16.5642 26.3052 17.9491 26.306 19.6488V21.6873C26.3045 24.8896 22.4006 26.3064 20.3127 24.106C20.1699 23.9555 20.1858 23.7169 20.341 23.5791Z" fill="#383F51"/>
<path d="M27.9999 28.2267V28.636C27.9999 28.8385 27.8358 29.0027 27.6333 29.0027H24.6085C24.4024 29.0027 24.2383 28.8328 24.2421 28.6267C24.2445 28.4915 24.2387 28.3365 24.2418 28.1172C24.2511 27.4628 24.0465 26.8421 23.703 26.3212C23.5642 26.1108 23.6729 25.8291 23.9162 25.7638C24.118 25.7097 24.3167 25.6402 24.5104 25.5552C24.6309 25.5025 24.7707 25.5209 24.8747 25.6006C24.9865 25.6868 25.1135 25.7555 25.2514 25.8032L26.6016 26.2674C27.4381 26.5548 27.9999 27.3422 27.9999 28.2267Z" fill="#383F51"/>
<path d="M21.3086 17.2144V19.8029C21.3067 22.182 19.3726 24.117 16.9963 24.117C14.6232 24.117 12.6928 22.1783 12.6909 19.7956V17.2084C12.6918 15.965 13.6971 14.9297 14.9701 14.9297H19.033C20.2888 14.9306 21.3095 15.9554 21.3086 17.2144Z" fill="#383F51"/>
<path d="M23.5084 28.1145V28.6333C23.5084 28.8358 23.3443 29 23.1418 29H10.9049C10.7024 29 10.5382 28.8358 10.5382 28.6333V28.1145C10.5382 27.0347 11.2238 26.0736 12.245 25.7226L13.5663 25.268C13.7485 25.2054 13.9477 25.2947 14.0229 25.472C15.1272 28.0757 18.9038 28.1008 20.0639 25.4784C20.1408 25.3046 20.3382 25.2188 20.5179 25.2807L21.8017 25.7226C22.8228 26.0736 23.5084 27.0347 23.5084 28.1145Z" fill="#383F51"/>
<path d="M19.3656 24.6677C19.4647 24.7726 19.4976 24.923 19.4448 25.0573C19.3432 25.316 19.1339 25.7359 18.693 26.1048C17.9628 26.7148 15.7895 27.4614 14.6632 25.0225C14.6024 24.891 14.6211 24.7339 14.7169 24.6252C14.7234 24.6179 14.7297 24.6105 14.736 24.6031C14.8379 24.4837 15.0036 24.4407 15.1494 24.4986C16.3248 24.9661 17.67 24.9751 18.8806 24.4853C19.0276 24.4258 19.1952 24.4699 19.2974 24.5912C19.3194 24.6173 19.3421 24.6428 19.3656 24.6677Z" fill="#383F51"/>
<path d="M22.3613 18.6779C22.3521 18.8839 22.0419 18.8734 22.0419 18.6672V17.2156C22.0426 16.4095 21.7233 15.6588 21.1824 15.1052C21.0685 14.9886 21.1493 14.793 21.3123 14.793H22.1794C22.2806 14.793 22.3627 14.8746 22.3627 14.9758C22.3627 14.9805 22.3634 18.6315 22.3613 18.6779Z" fill="#383F51"/>
<path d="M26.5333 8.83398H20.5295C19.721 8.83398 19.0629 9.49166 19.0629 10.3006V12.5921C19.0629 13.4011 19.721 14.0587 20.5295 14.0587H24.5461C24.525 14.3181 24.4416 14.5684 24.2995 14.7962C24.1418 15.0472 24.3347 15.3748 24.6318 15.3562C25.4517 15.3076 26.0874 14.8191 26.3486 14.0587H26.5333C27.3418 14.0587 27.9999 13.4011 27.9999 12.5921V10.3006C27.9999 9.49166 27.3418 8.83398 26.5333 8.83398ZM25.1052 11.5114C25.0667 11.7082 24.8745 11.8385 24.6744 11.7993C24.4737 11.7599 24.3458 11.561 24.3866 11.368C24.4308 11.1429 24.6716 11.0118 24.8862 11.1013C25.0575 11.1727 25.139 11.3518 25.1052 11.5114ZM22.1322 11.4399C22.1322 11.1133 22.5291 10.9513 22.7582 11.1805C22.9669 11.395 22.8528 11.7439 22.5703 11.7993C22.3406 11.8443 22.1322 11.6683 22.1322 11.4399Z" fill="#383F51"/>
<path d="M18.2815 14.197H15.0142C13.2858 14.197 11.9596 15.5521 11.9582 17.2081V18.7083C11.9581 18.8833 11.6938 18.8927 11.6855 18.7178C11.6832 18.6677 11.6773 18.9069 11.684 14.7855C11.6851 14.0769 12.2028 13.4866 12.8802 13.3688C13.4664 12.1387 14.6978 11.3555 16.0787 11.3555H17.9629C18.1653 11.3555 18.3295 11.5196 18.3295 11.7221V12.5929C18.3295 12.9775 18.4286 13.3394 18.6027 13.6543C18.7375 13.8981 18.5601 14.197 18.2815 14.197Z" fill="#383F51"/>
<path d="M13.4715 7.00195H7.46757C6.6576 7.00195 6.00098 7.65858 6.00098 8.46855V12.6392C6.00098 13.4492 6.6576 14.1058 7.46757 14.1058H7.65227C7.91351 14.8661 8.54919 15.3547 9.36911 15.4033C9.66463 15.4218 9.85992 15.0954 9.70139 14.8432C9.55931 14.6154 9.4759 14.3652 9.45481 14.1058H10.8122C10.9576 14.1058 11.0871 14.0189 11.1477 13.8868C11.3703 13.4008 11.7725 13.0041 12.2739 12.7893C12.3417 12.7602 12.3996 12.7115 12.4382 12.6487C12.9714 11.7812 13.7791 11.16 14.6919 10.8505C14.8397 10.8004 14.9381 10.6606 14.9381 10.5045V8.46855C14.9381 7.65858 14.2814 7.00195 13.4715 7.00195ZM8.65918 11.9976C8.45661 11.9976 8.29254 11.8335 8.29254 11.6309C8.29254 11.4283 8.45661 11.2643 8.65918 11.2643H10.4695C10.6721 11.2643 10.8362 11.4283 10.8362 11.6309C10.8362 11.8335 10.6721 11.9976 10.4695 11.9976H8.65918ZM12.2798 9.79765H8.65918C8.45661 9.79765 8.29254 9.63358 8.29254 9.43101C8.29254 9.22843 8.45661 9.06436 8.65918 9.06436H12.2798C12.4824 9.06436 12.6465 9.22843 12.6465 9.43101C12.6465 9.63358 12.4824 9.79765 12.2798 9.79765Z" fill="#383F51"/>
</svg>
