<svg width="35" height="35" viewBox="0 0 35 35" fill="none" xmlns="http://www.w3.org/2000/svg">
<path fill-rule="evenodd" clip-rule="evenodd" d="M16.6798 18.8068C16.6952 18.9513 16.8074 19.0659 16.9488 19.0817C17.0683 19.0958 17.1877 19.1024 17.308 19.1024C18.5952 19.1024 19.6452 18.2828 20.4318 16.6609C20.4903 16.5413 20.4668 16.3968 20.3741 16.3021L19.3989 15.3056C19.3063 15.2109 19.1657 15.1868 19.0479 15.2466C17.3161 16.1244 16.5189 17.3227 16.679 18.806L16.6798 18.8068ZM22.2164 13.05C22.0994 13.1738 22.1026 13.3706 22.2237 13.4902C22.3416 13.6064 22.5293 13.6064 22.6471 13.4902L23.7328 12.3807C23.8539 12.2611 23.8563 12.0634 23.7393 11.9397C23.6223 11.816 23.4289 11.8135 23.3078 11.933C23.3054 11.9347 23.3037 11.9372 23.3013 11.9397L22.2156 13.05H22.2164ZM24.413 10.5719C24.248 10.7397 24.2472 11.0121 24.4114 11.1815C24.5755 11.3501 24.8421 11.3509 25.0079 11.1831C25.1728 11.0154 25.1736 10.743 25.0095 10.5736C24.9307 10.4922 24.8226 10.4465 24.7104 10.4465C24.5991 10.4465 24.4918 10.4914 24.413 10.5719ZM24.7104 11.9281C25.2793 11.9281 25.7401 11.4564 25.7392 10.875C25.7392 10.2937 25.2777 9.82284 24.7088 9.82367C24.14 9.82367 23.6792 10.2954 23.68 10.8767C23.68 11.1557 23.7889 11.4231 23.9815 11.62C24.1749 11.8176 24.4366 11.9281 24.7096 11.9281H24.7104ZM21.2672 16.1958C21.4086 16.053 21.5606 15.8968 21.6987 15.7548L19.9369 13.9536C19.7971 14.0947 19.6452 14.25 19.5054 14.3945C19.4851 14.4103 19.4761 14.4377 19.4843 14.4635L21.2006 16.2174C21.225 16.2249 21.2518 16.2166 21.268 16.1958H21.2672ZM26.8997 8.6386C26.7469 8.62781 26.5958 8.62199 26.4471 8.62199C25.9936 8.62033 25.5418 8.67597 25.1013 8.78891C25.8026 9.17093 26.3772 9.75806 26.7518 10.4748C26.8973 9.87516 26.9468 9.2548 26.8989 8.6386H26.8997ZM22.0311 17.8094C22.0807 17.8426 22.1384 17.8609 22.1977 17.8609C22.2457 17.8609 22.2928 17.8493 22.3359 17.8277L24.0733 16.9308C24.1651 16.8834 24.2269 16.7921 24.2391 16.6874L24.4658 14.6329C26.738 12.9221 27.7506 10.8053 27.4824 8.31804C27.4669 8.17354 27.3548 8.05894 27.2134 8.04316C24.7746 7.76828 22.7007 8.80719 21.0251 11.1383L19.0259 11.3575C18.9227 11.3683 18.8325 11.4323 18.7862 11.5269L17.9085 13.3025C17.8321 13.4561 17.8923 13.6438 18.0426 13.721C18.0857 13.7435 18.1328 13.7542 18.1808 13.7542C18.1865 13.7542 18.1922 13.7542 18.1978 13.7542L19.3331 13.6886C19.2462 13.7783 19.1576 13.868 19.0723 13.9561C18.813 14.2127 18.8041 14.6354 19.0527 14.9028L20.7699 16.6575C20.8885 16.7771 21.0486 16.8436 21.2144 16.8427C21.3956 16.8427 21.5687 16.768 21.6963 16.6376C21.7824 16.5504 21.871 16.4599 21.958 16.371L21.8938 17.532C21.8873 17.6433 21.9401 17.7488 22.0311 17.8094ZM7.57648 24.3784C7.42045 24.3784 7.29449 24.5071 7.29449 24.6665C7.29449 24.826 7.42045 24.9547 7.57648 24.9547C7.7317 24.9547 7.85766 24.826 7.85847 24.6665C7.85847 24.5071 7.73251 24.3784 7.57648 24.3784ZM7.57648 25.5775C8.06895 25.5775 8.46796 25.1698 8.46796 24.6665C8.46796 24.1633 8.06895 23.7555 7.57648 23.7555C7.08401 23.7555 6.685 24.1633 6.685 24.6665C6.685 25.1698 7.08401 25.5775 7.57648 25.5775ZM13.6641 18.6432H9.73732V25.0278L19.1527 27.2966C19.8223 27.476 20.535 27.3581 21.1161 26.9719L28.9443 21.8313C29.2223 21.6544 29.3905 21.3422 29.3872 21.0075L29.3897 20.5856C29.3905 20.3274 29.1865 20.1173 28.9338 20.1156C28.8997 20.1156 28.8655 20.1189 28.833 20.1264L24.0286 21.2268C24.0294 21.2483 24.0302 21.2708 24.0294 21.2932L24.0278 21.642C24.0229 22.4583 23.4199 23.1418 22.6252 23.2315L16.922 23.8734C16.6749 23.9033 16.4246 23.8709 16.193 23.7788L13.6576 22.7996C13.4999 22.739 13.4211 22.5596 13.4804 22.3985C13.5397 22.2374 13.7153 22.1569 13.8729 22.2175L16.4084 23.1966C16.5506 23.2539 16.7042 23.2738 16.8553 23.2539L22.5585 22.612C23.0453 22.5572 23.4151 22.1386 23.4175 21.6378L23.4191 21.289C23.4208 21.0308 23.2168 20.8207 22.9649 20.819H22.9632H17.5217C17.1804 20.8231 16.848 20.7102 16.5774 20.4976L14.5474 18.9438C14.2955 18.7437 13.9834 18.6374 13.6649 18.6432H13.6641ZM9.17822 16.8295H4.5591C4.25111 16.8295 4.00081 17.0852 4 17.4V26.021C4 26.3366 4.2503 26.5915 4.5591 26.5915H9.17903C9.48703 26.5915 9.73732 26.3358 9.73813 26.021V25.6681L19.0137 27.9028C19.2714 27.966 19.5355 27.9983 19.8004 28C20.3855 28 20.9576 27.8248 21.446 27.4967L29.2743 22.3562C29.7261 22.0655 29.9992 21.5581 29.9975 21.0125L30 20.5898C30.0032 19.9877 29.5286 19.4969 28.9395 19.4936C28.859 19.4936 28.7786 19.5019 28.7006 19.5201L23.8214 20.638C23.7905 20.5964 23.7572 20.5566 23.7206 20.52C23.5223 20.3116 23.2485 20.1953 22.964 20.1978H17.5217C17.312 20.2011 17.1081 20.1314 16.9431 20.0002L14.9139 18.4464C14.5563 18.1657 14.1167 18.0154 13.6649 18.0212H9.73813V17.4008C9.73813 17.0852 9.48784 16.8303 9.17903 16.8295H9.17822Z" fill="#383F51"/>
</svg>
