<svg width="35" height="35" viewBox="0 0 35 35" fill="none" xmlns="http://www.w3.org/2000/svg">
<path fill-rule="evenodd" clip-rule="evenodd" d="M16.845 20.0524L15.3744 15.6505L11.0808 15.7055L14.245 19.6622C15.122 19.6983 15.9931 19.829 16.8448 20.0523L16.845 20.0524ZM16.136 15.6409L18.9531 15.6049L19.014 20.855C18.5871 20.6375 18.1458 20.4533 17.6934 20.3037L16.136 15.6409ZM11.0218 14.9464L15.0416 14.8951L13.3765 11.487L11.0218 14.9464ZM14.0187 11.1418H17.49L15.6467 14.474L14.0187 11.1418ZM18.3248 11.1418L16.2571 14.8795L18.9438 14.8452L18.9011 11.1418H18.3248ZM19.6222 11.1418L19.665 14.836L22.3687 14.8016L20.2391 11.1418H19.6222ZM22.4996 15.5596L19.6742 15.5958L19.7401 21.2984C19.9971 21.478 20.2264 21.6981 20.4199 21.9512L22.4995 15.5596H22.4996ZM21.0853 11.1418H24.5068L22.9745 14.3883L21.0853 11.1418ZM25.1596 11.4646L23.5915 14.7859L27.6351 14.7342L25.1595 11.4644L25.1596 11.4646ZM27.6375 15.4939L22.4906 22.5477L20.9317 23.5587C20.915 23.5695 20.8991 23.5816 20.8842 23.595C20.7922 23.6775 20.6891 23.7452 20.5783 23.7958C20.5843 23.7832 20.5896 23.7704 20.5943 23.7573L23.2647 15.5498L27.6373 15.4939H27.6375ZM26.4652 20.8628L21.3337 24.1904C20.4015 25.0114 18.4132 24.9712 15.2575 24.0678C15.166 24.0406 15.0884 23.9765 15.0416 23.8894C14.9947 23.8022 14.9824 23.6992 15.0073 23.6025C15.0322 23.5059 15.0923 23.4235 15.1746 23.3734C15.2568 23.3232 15.3545 23.3092 15.4465 23.3346C17.0811 23.8029 18.2503 23.9923 19.0861 24.0178C19.7088 23.6314 20.0364 23.2423 20.0328 22.8913C20.0292 22.5103 19.6393 22.0756 18.9358 21.6681C18.0005 21.126 16.6105 20.6929 15.2178 20.5093C13.8277 20.3261 12.6736 20.4267 12.1276 20.7787L8.74476 23.1971L11.6433 27.8949L11.9677 27.6475C12.1785 27.4868 12.2984 27.4253 12.5672 27.508C12.6032 27.5188 12.644 27.5313 12.7017 27.5448L17.8845 28.7387L17.9082 28.7452C18.8378 29.0307 19.6397 28.9091 20.3592 28.3741C20.361 28.3725 20.3629 28.371 20.3649 28.3697L27.9967 22.922C28.0079 22.9138 28.0196 22.9063 28.0318 22.8997C28.6565 22.5546 29.0006 22.1004 29 21.6207C28.9995 21.2181 28.7507 20.8311 28.3516 20.6119C27.7989 20.3082 27.1001 20.3975 26.4821 20.8507L26.4651 20.8626L26.4652 20.8628ZM11.428 28.9406C11.5264 29.1016 11.5605 29.297 11.5228 29.4843C11.485 29.6716 11.3786 29.8357 11.2266 29.9407L9.84895 30.8844C9.69606 30.9881 9.5105 31.0239 9.33264 30.9842C9.15478 30.9444 8.99901 30.8323 8.89922 30.6722L5.10974 24.5299C5.01134 24.3689 4.97729 24.1735 5.015 23.9861C5.05271 23.7988 5.15913 23.6348 5.31109 23.5298L6.68908 22.5855C6.84173 22.4813 7.02737 22.4451 7.2053 22.4849C7.38323 22.5247 7.53892 22.6372 7.63825 22.7977L11.4277 28.9406H11.428ZM7.18835 25.3715C7.25321 25.3714 7.31686 25.353 7.37259 25.318C7.42832 25.283 7.47405 25.2328 7.50495 25.1727C7.53586 25.1127 7.55079 25.0449 7.54818 24.9766C7.54557 24.9083 7.52551 24.842 7.49012 24.7848L6.93805 23.8896C6.91225 23.8477 6.87888 23.8117 6.83985 23.7834C6.80082 23.7552 6.75689 23.7353 6.71058 23.725C6.66426 23.7146 6.61647 23.714 6.56991 23.7231C6.52336 23.7322 6.47897 23.7509 6.43927 23.778C6.39957 23.8052 6.36534 23.8404 6.33854 23.8815C6.31173 23.9226 6.29288 23.9689 6.28305 24.0177C6.27322 24.0665 6.27261 24.1169 6.28125 24.1659C6.2899 24.215 6.30763 24.2618 6.33343 24.3036L6.88596 25.199C6.91869 25.2521 6.9635 25.2956 7.01631 25.3258C7.06911 25.3559 7.12824 25.3717 7.1883 25.3716L7.18835 25.3715ZM7.80942 8.74667L9.98233 10.0686C10.0234 10.0942 10.0688 10.111 10.116 10.118C10.1633 10.1251 10.2114 10.1221 10.2575 10.1094C10.3037 10.0967 10.347 10.0744 10.3849 10.0439C10.4229 10.0135 10.4547 9.97536 10.4785 9.93183C10.5024 9.8883 10.5178 9.84021 10.5239 9.79035C10.53 9.7405 10.5266 9.68986 10.514 9.64139C10.5014 9.59291 10.4798 9.54756 10.4504 9.50795C10.421 9.46834 10.3845 9.43527 10.3429 9.41066L8.16996 8.08875C8.08716 8.03838 7.98875 8.02472 7.8964 8.05079C7.80404 8.07687 7.72529 8.14053 7.67748 8.22777C7.62967 8.31502 7.61671 8.4187 7.64146 8.51601C7.6662 8.61333 7.72662 8.6963 7.80942 8.74667ZM10.5294 6.17519C10.5054 6.13199 10.4897 6.08421 10.4832 6.03459C10.4768 5.98497 10.4797 5.9345 10.4918 5.88608C10.504 5.83766 10.5251 5.79225 10.554 5.75246C10.5828 5.71268 10.6189 5.6793 10.6601 5.65426C10.7012 5.62921 10.7467 5.61299 10.7938 5.60654C10.8409 5.60008 10.8888 5.60351 10.9347 5.61663C10.9806 5.62975 11.0235 5.6523 11.0611 5.68298C11.0986 5.71367 11.1301 5.75188 11.1536 5.79541L12.2094 7.7222C12.2572 7.80941 12.2702 7.91307 12.2455 8.01037C12.2207 8.10767 12.1603 8.19063 12.0776 8.24102C11.9948 8.2914 11.8964 8.30507 11.8041 8.27903C11.7117 8.25298 11.633 8.18935 11.5852 8.10214L10.5293 6.17519H10.5294ZM14.4929 5.27743L13.8615 7.75871C13.8493 7.80692 13.8462 7.85719 13.8524 7.90666C13.8585 7.95614 13.8739 8.00384 13.8976 8.04706C13.9455 8.13432 14.0242 8.198 14.1166 8.22406C14.209 8.25012 14.3075 8.23645 14.3903 8.18604C14.4313 8.16108 14.4673 8.12785 14.4961 8.08825C14.5249 8.04866 14.546 8.00347 14.5583 7.95526L15.1892 5.47399C15.2127 5.37713 15.1991 5.27439 15.1512 5.18808C15.1033 5.10177 15.025 5.03884 14.9333 5.01295C14.8417 4.98706 14.744 5.0003 14.6616 5.0498C14.5791 5.09929 14.5185 5.18105 14.4929 5.27733V5.27743Z" fill="#383F51"/>
</svg>
