<svg width="64" height="64" viewBox="0 0 64 64" fill="none" xmlns="http://www.w3.org/2000/svg">
<path d="M32 7C27.0555 7 22.222 8.46622 18.1108 11.2133C13.9995 13.9603 10.7952 17.8648 8.90302 22.4329C7.01083 27.0011 6.51575 32.0277 7.48038 36.8773C8.44501 41.7268 10.826 46.1814 14.3223 49.6777C17.8187 53.174 22.2732 55.555 27.1227 56.5196C31.9723 57.4843 36.9989 56.9892 41.5671 55.097C46.1352 53.2048 50.0397 50.0005 52.7867 45.8892C55.5338 41.778 57 36.9445 57 32C56.9919 25.3721 54.3554 19.0179 49.6688 14.3312C44.9821 9.64459 38.6279 7.00807 32 7ZM13.95 27.5333C14.8379 23.8829 16.8182 20.5902 19.6264 18.0947C22.4346 15.5991 25.9372 14.0195 29.6667 13.5667L29.0833 12.2C29.0365 12.087 29.0181 11.9642 29.0297 11.8425C29.0414 11.7207 29.0828 11.6037 29.1503 11.5017C29.2177 11.3996 29.3092 11.3157 29.4167 11.2573C29.5242 11.1989 29.6444 11.1678 29.7667 11.1667H34.2333C34.3557 11.1678 34.4758 11.1989 34.5833 11.2573C34.6908 11.3157 34.7823 11.3996 34.8497 11.5017C34.9172 11.6037 34.9586 11.7207 34.9703 11.8425C34.9819 11.9642 34.9635 12.087 34.9167 12.2L32.6833 17.4083C32.6259 17.5419 32.5305 17.6557 32.4091 17.7357C32.2876 17.8157 32.1454 17.8583 32 17.8583C31.8546 17.8583 31.7124 17.8157 31.5909 17.7357C31.4695 17.6557 31.3741 17.5419 31.3167 17.4083L30.2833 14.9917C29.48 15.0653 28.6833 15.199 27.9 15.3917C24.8674 16.1239 22.0953 17.678 19.8886 19.8833C17.6819 22.0885 16.1259 24.8595 15.3917 27.8917C15.3422 28.0807 15.2202 28.2426 15.0521 28.3423C14.8841 28.442 14.6835 28.4714 14.4939 28.4243C14.3043 28.3772 14.1409 28.2572 14.0391 28.0905C13.9373 27.9237 13.9053 27.7235 13.95 27.5333ZM34.05 35.1L38.8083 36.6833C39.5084 36.9213 40.1202 37.3654 40.5633 37.9573C41.0065 38.5492 41.2604 39.2612 41.2917 40C40.1365 41.3303 38.7092 42.397 37.1062 43.1281C35.5031 43.8591 33.7618 44.2375 32 44.2375C30.2382 44.2375 28.4969 43.8591 26.8939 43.1281C25.2908 42.397 23.8635 41.3303 22.7083 40C22.7396 39.2612 22.9935 38.5492 23.4367 37.9573C23.8799 37.3654 24.4916 36.9213 25.1917 36.6833L29.95 35.1C31.2823 34.6667 32.7177 34.6667 34.05 35.1ZM27.5167 28.8C27.7 22.8667 36.3 22.875 36.4833 28.8C36.3 34.7333 27.7 34.7333 27.5167 28.8ZM39.275 35.2833L35.1167 33.8917C36.227 33.2124 37.0851 32.1889 37.5602 30.977C38.0353 29.7651 38.1014 28.4312 37.7486 27.1783C37.3957 25.9253 36.6431 24.822 35.6054 24.0361C34.5677 23.2503 33.3017 22.825 32 22.825C30.6983 22.825 29.4323 23.2503 28.3946 24.0361C27.3569 24.822 26.6043 25.9253 26.2514 27.1783C25.8986 28.4312 25.9647 29.7651 26.4398 30.977C26.9149 32.1889 27.773 33.2124 28.8833 33.8917L24.725 35.2833C23.9935 35.5257 23.3264 35.9305 22.7737 36.4673C22.2209 37.0042 21.7969 37.6592 21.5333 38.3833C20.3513 36.464 19.7253 34.2541 19.725 32C20.4 15.7167 43.6083 15.7167 44.275 32C44.2747 34.2541 43.6487 36.464 42.4667 38.3833C42.2031 37.6592 41.7791 37.0042 41.2263 36.4673C40.6736 35.9305 40.0065 35.5257 39.275 35.2833ZM27.5333 50.05C23.8836 49.1608 20.5916 47.1802 18.0963 44.3722C15.6009 41.5642 14.0209 38.0623 13.5667 34.3333L12.2 34.9167C12.087 34.9635 11.9643 34.9819 11.8425 34.9703C11.7207 34.9586 11.6037 34.9172 11.5017 34.8497C11.3996 34.7823 11.3157 34.6908 11.2573 34.5833C11.1989 34.4758 11.1678 34.3556 11.1667 34.2333V29.7667C11.1678 29.6443 11.1989 29.5242 11.2573 29.4167C11.3157 29.3092 11.3996 29.2177 11.5017 29.1503C11.6037 29.0828 11.7207 29.0414 11.8425 29.0297C11.9643 29.0181 12.087 29.0365 12.2 29.0833L17.4083 31.3167C17.5439 31.3723 17.6599 31.4669 17.7415 31.5886C17.8231 31.7103 17.8667 31.8535 17.8667 32C17.8667 32.1465 17.8231 32.2897 17.7415 32.4114C17.6599 32.5331 17.5439 32.6277 17.4083 32.6833L14.9917 33.7167C15.332 37.2302 16.7565 40.5509 19.0677 43.219C21.3789 45.8871 24.4626 47.7704 27.8917 48.6083C28.0808 48.6577 28.2429 48.7797 28.3428 48.9477C28.4426 49.1158 28.4721 49.3165 28.425 49.5062C28.3778 49.696 28.2578 49.8595 28.0908 49.9613C27.9239 50.0631 27.7236 50.0949 27.5333 50.05ZM50.05 36.4667C49.1621 40.1171 47.1818 43.4098 44.3736 45.9053C41.5654 48.4008 38.0628 49.9805 34.3333 50.4333L34.9167 51.8C34.9635 51.913 34.9819 52.0357 34.9703 52.1575C34.9586 52.2793 34.9172 52.3963 34.8497 52.4983C34.7823 52.6004 34.6908 52.6843 34.5833 52.7427C34.4758 52.8011 34.3557 52.8322 34.2333 52.8333H29.7667C29.6444 52.8322 29.5242 52.8011 29.4167 52.7427C29.3092 52.6843 29.2178 52.6004 29.1503 52.4983C29.0828 52.3963 29.0414 52.2793 29.0298 52.1575C29.0181 52.0357 29.0365 51.913 29.0833 51.8L31.3167 46.5917C31.3723 46.4561 31.4669 46.3401 31.5886 46.2585C31.7103 46.1769 31.8535 46.1333 32 46.1333C32.1465 46.1333 32.2897 46.1769 32.4114 46.2585C32.5331 46.3401 32.6277 46.4561 32.6833 46.5917L33.7167 49.0083C34.52 48.9347 35.3167 48.801 36.1 48.6083C39.1326 47.8761 41.9047 46.322 44.1114 44.1167C46.3181 41.9115 47.8741 39.1405 48.6083 36.1083C48.658 35.9195 48.78 35.7578 48.948 35.6582C49.116 35.5586 49.3164 35.5292 49.5059 35.5763C49.6955 35.6234 49.8588 35.7432 49.9606 35.9099C50.0624 36.0765 50.0946 36.2765 50.05 36.4667ZM52.5 34.85C52.3985 34.9195 52.2811 34.9621 52.1586 34.9737C52.0362 34.9854 51.9128 34.9658 51.8 34.9167L46.5917 32.6833C46.4581 32.6259 46.3443 32.5305 46.2643 32.4091C46.1843 32.2876 46.1417 32.1454 46.1417 32C46.1417 31.8546 46.1843 31.7123 46.2643 31.5909C46.3443 31.4694 46.4581 31.3741 46.5917 31.3167L49.0083 30.2833C48.668 26.7698 47.2436 23.4491 44.9323 20.781C42.6211 18.1129 39.5374 16.2295 36.1083 15.3917C35.9203 15.3412 35.7596 15.219 35.6608 15.0513C35.5619 14.8836 35.5329 14.6838 35.5798 14.4949C35.6268 14.306 35.746 14.1431 35.9118 14.0412C36.0777 13.9393 36.2769 13.9065 36.4667 13.95C40.1171 14.838 43.4098 16.8182 45.9053 19.6264C48.4008 22.4346 49.9805 25.9372 50.4333 29.6667L51.8 29.0833C51.913 29.037 52.0356 29.0191 52.1572 29.031C52.2787 29.0429 52.3955 29.0843 52.4974 29.1517C52.5993 29.2191 52.6831 29.3103 52.7417 29.4175C52.8002 29.5247 52.8317 29.6445 52.8333 29.7667V34.2333C52.8339 34.3558 52.8037 34.4765 52.7454 34.5842C52.6872 34.692 52.6028 34.7834 52.5 34.85Z" fill="#383F51"/>
</svg>
