<svg width="40" height="40" viewBox="0 0 40 40" fill="none" xmlns="http://www.w3.org/2000/svg">
<rect width="40" height="40" fill="white"/>
<path d="M21.63 31.3596C22.79 31.3596 23.74 30.4096 23.74 29.2496V27.0996C23.74 26.8196 23.52 26.5996 23.24 26.5996H20.02C19.74 26.5996 19.52 26.8196 19.52 27.0996V29.2496C19.52 30.4096 20.47 31.3596 21.63 31.3596ZM20.52 27.6096H22.74V29.2596C22.74 29.8696 22.24 30.3696 21.63 30.3696C21.02 30.3696 20.52 29.8696 20.52 29.2596V27.6096Z" fill="#383F51"/>
<path d="M30.26 22.7998C30.21 22.1298 29.83 21.5498 29.28 21.2198L29.91 16.8898C29.94 16.6798 29.84 16.4798 29.66 16.3798C29.64 16.3798 29.23 16.1398 28.53 15.8498C27.76 15.5298 26.63 15.1098 25.31 14.8398C25.34 14.7298 25.36 14.6098 25.36 14.4998V14.1298C26.07 13.9298 26.43 13.2398 26.43 12.0898C26.43 10.9398 26.07 10.2498 25.36 10.0498V8.33977C25.36 6.91977 24.81 5.57977 23.8 4.56977C22.79 3.55977 21.46 3.00977 20.03 3.00977H16.81C13.87 3.00977 11.48 5.39977 11.48 8.33977V10.0498C10.77 10.2498 10.41 10.9398 10.41 12.0898C10.41 13.4898 10.94 14.1998 11.98 14.1998H13.25C13.3 14.3298 13.36 14.4498 13.43 14.5798C10.1 14.8198 7.31 16.3298 7.19 16.3998C7.01 16.4998 6.91 16.6998 6.94 16.9098L7.57001 21.2398C7.01001 21.5698 6.64 22.1498 6.59 22.8198L6.46001 24.4798H4.7C4.27 24.4798 3.86001 24.6598 3.57001 24.9798C3.29001 25.2898 3.15 25.6898 3.19 26.0998L3.78 32.5398L3.88 33.6098C3.9 33.8098 3.95 33.9998 4.03 34.1698C3.44 34.2998 3 34.8198 3 35.4398V36.2398C3 36.8098 3.46001 37.2798 4.04001 37.2798H29.72C30 37.2798 30.22 37.0598 30.22 36.7798V29.0898C30.31 29.0398 30.38 28.9798 30.45 28.9098C30.64 28.7098 30.73 28.4298 30.71 28.1598L30.3 22.8198L30.26 22.7998ZM28.87 17.0998L28.32 20.8998L24.81 20.0698C24.79 19.9298 24.72 19.7998 24.59 19.7098L22.98 18.6398C22.98 18.6398 22.96 18.6298 22.95 18.6198C22.95 18.6198 22.94 18.6198 22.93 18.6198C22.93 18.6198 22.91 18.6198 22.9 18.6098C22.9 18.6098 22.89 18.6098 22.88 18.6098H22.86H22.84C22.84 18.6098 22.83 18.6098 22.82 18.6098C22.82 18.6098 22.8 18.6098 22.79 18.6098C22.79 18.6098 22.78 18.6098 22.77 18.6098C22.77 18.6098 22.75 18.6098 22.74 18.6098C22.74 18.6098 22.73 18.6098 22.72 18.6098C22.72 18.6098 22.7 18.6098 22.69 18.6098C22.69 18.6098 22.68 18.6098 22.67 18.6098H22.65H22.63C22.63 18.6098 22.62 18.6098 22.61 18.6098C22.61 18.6098 22.59 18.6098 22.58 18.6098C22.58 18.6098 22.57 18.6098 22.56 18.6098H22.54C22.54 18.6098 22.53 18.6098 22.52 18.6098C22.52 18.6098 22.51 18.6098 22.5 18.6098C22.5 18.6098 22.48 18.6098 22.48 18.6198C22.48 18.6198 22.47 18.6198 22.46 18.6298C22.46 18.6298 22.44 18.6398 22.43 18.6498C22.43 18.6498 22.43 18.6498 22.42 18.6598C22.42 18.6598 22.4 18.6698 22.39 18.6798L21.7 16.5598C22.01 16.3298 22.3 16.0698 22.55 15.7998H24.06C24.23 15.7998 24.39 15.7698 24.54 15.7098C26.01 15.9598 27.31 16.4198 28.14 16.7798C28.45 16.9098 28.7 17.0298 28.87 17.1098V17.0998ZM13.2 20.2698L14.08 19.6898L14.36 19.9398L16.62 21.9098C16.04 22.0198 15.35 22.2198 14.76 22.6198L13.19 20.2698H13.2ZM15.26 19.3998L16 17.1198C16.39 17.3298 16.81 17.5198 17.26 17.6598C17.58 17.7698 17.99 17.8198 18.4 17.8198C18.81 17.8198 19.22 17.7698 19.54 17.6598C19.98 17.5098 20.4 17.3298 20.8 17.1198L21.54 19.3998L18.4 22.1498L15.26 19.3998ZM14.08 13.6098V11.8998C14.26 11.8198 14.49 11.6898 14.72 11.4898C15.12 11.1398 15.59 10.4998 15.68 9.42977C15.95 9.33977 16.22 9.21977 16.5 9.05977C17.02 9.53977 18.18 10.3898 19.92 10.3898C20.33 10.3898 20.78 10.3398 21.26 10.2298C21.6 11.2098 22.31 11.6798 22.75 11.8898V13.6098C22.6 14.0298 22.37 14.4298 22.08 14.7998H21.56C21.58 14.6998 21.6 14.5998 21.6 14.4898V14.2198C21.6 13.4998 21.02 12.9198 20.3 12.9198H19.76C19.04 12.9198 18.46 13.4998 18.46 14.2198V14.4898C18.46 15.2098 19.04 15.7898 19.76 15.7898H21.04C20.52 16.1698 19.91 16.4798 19.25 16.6998C18.82 16.8398 18.02 16.8398 17.59 16.6998C15.89 16.1398 14.58 14.9798 14.09 13.5898L14.08 13.6098ZM21.37 6.99977C21.48 7.10977 21.64 7.15977 21.79 7.13977C22.02 7.10977 22.29 7.08977 22.43 7.09977C22.63 7.44977 22.74 7.85977 22.74 8.32977V10.7098C22.47 10.4798 22.2 10.1098 22.1 9.52977C22.1 9.52977 22.1 9.50977 22.1 9.49977C22.1 9.49977 22.1 9.47977 22.1 9.46977C22.1 9.46977 22.1 9.46977 22.1 9.45977C22.1 9.45977 22.1 9.43977 22.09 9.42977C22.09 9.42977 22.09 9.41977 22.09 9.40977C22.09 9.40977 22.09 9.38977 22.08 9.37977C22.08 9.37977 22.08 9.36977 22.07 9.35977C22.07 9.35977 22.07 9.33977 22.05 9.33977C22.05 9.33977 22.05 9.32977 22.04 9.31977C22.04 9.31977 22.03 9.30977 22.02 9.29977C22.02 9.29977 22.02 9.28977 22.01 9.27977C22.01 9.27977 22 9.26977 21.99 9.25977C21.99 9.25977 21.99 9.25977 21.98 9.24977C21.98 9.24977 21.97 9.23977 21.96 9.22977C21.96 9.22977 21.96 9.22977 21.95 9.21977C21.95 9.21977 21.93 9.20977 21.93 9.19977C21.93 9.19977 21.93 9.19977 21.92 9.19977C21.92 9.19977 21.9 9.18977 21.89 9.17977C21.89 9.17977 21.89 9.17977 21.88 9.17977C21.88 9.17977 21.86 9.17977 21.85 9.16977C21.85 9.16977 21.85 9.16977 21.84 9.16977C21.83 9.16977 21.82 9.16977 21.81 9.15977C21.81 9.15977 21.8 9.15977 21.79 9.15977C21.78 9.15977 21.77 9.15977 21.76 9.15977C21.76 9.15977 21.75 9.15977 21.74 9.15977C21.74 9.15977 21.72 9.15977 21.71 9.15977C21.71 9.15977 21.7 9.15977 21.69 9.15977C21.69 9.15977 21.67 9.15977 21.66 9.15977C21.66 9.15977 21.64 9.15977 21.63 9.15977H21.61C21.61 9.15977 21.59 9.15977 21.58 9.15977C21.58 9.15977 21.57 9.15977 21.56 9.15977H21.54C21.54 9.15977 21.52 9.15977 21.51 9.15977C21.11 9.28977 20.74 9.35977 20.39 9.38977C20.94 9.09977 21.46 8.65977 21.75 7.99977C21.86 7.74977 21.75 7.44977 21.5 7.33977C21.25 7.22977 20.95 7.33977 20.84 7.58977C20.31 8.77977 18.54 8.93977 18.1 8.96977C17.82 8.82977 17.59 8.66977 17.41 8.52977C17.55 8.42977 17.69 8.31977 17.84 8.19977C18.05 8.02977 18.09 7.70977 17.91 7.49977C17.74 7.28977 17.42 7.24977 17.21 7.42977C16.93 7.65977 16.66 7.85977 16.4 8.01977C16.37 8.03977 16.34 8.04977 16.31 8.07977C15.88 8.33977 15.49 8.51977 15.12 8.59977C15.12 8.59977 15.12 8.59977 15.11 8.59977C15.1 8.59977 15.09 8.59977 15.08 8.59977C15.08 8.59977 15.07 8.59977 15.06 8.59977C15.06 8.59977 15.04 8.59977 15.03 8.60977C15.03 8.60977 15.02 8.60977 15.01 8.60977C15.01 8.60977 14.99 8.60977 14.99 8.61977C14.99 8.61977 14.98 8.61977 14.97 8.62977C14.97 8.62977 14.96 8.62977 14.95 8.63977C14.95 8.63977 14.94 8.64977 14.93 8.65977C14.93 8.65977 14.92 8.65977 14.91 8.66977C14.91 8.66977 14.9 8.67977 14.89 8.68977C14.89 8.68977 14.88 8.68977 14.87 8.70977C14.87 8.70977 14.86 8.71977 14.85 8.72977C14.85 8.72977 14.84 8.73977 14.83 8.74977C14.83 8.74977 14.83 8.75977 14.82 8.76977C14.82 8.76977 14.81 8.77977 14.81 8.78977C14.81 8.78977 14.81 8.79977 14.8 8.80977C14.8 8.80977 14.8 8.82977 14.79 8.82977C14.79 8.82977 14.79 8.83977 14.79 8.84977C14.79 8.84977 14.79 8.86977 14.78 8.87977C14.78 8.87977 14.78 8.88977 14.78 8.89977C14.78 8.89977 14.78 8.91977 14.78 8.92977V8.94977V8.96977C14.78 8.96977 14.78 8.98977 14.78 8.99977C14.78 8.99977 14.78 9.00977 14.78 9.01977C14.78 9.02977 14.78 9.03977 14.78 9.04977C14.78 9.04977 14.78 9.04977 14.78 9.05977C14.78 9.94977 14.47 10.4498 14.17 10.7298V8.33977C14.17 7.58977 14.44 6.97977 14.96 6.53977C15.2 6.33977 15.5 6.15977 15.85 6.02977C16.54 5.75977 17.43 5.61977 18.5 5.61977C19.66 5.61977 20.61 5.77977 21.32 6.09977C21.34 6.20977 21.34 6.42977 21.32 6.59977C21.3 6.74977 21.36 6.90977 21.47 7.01977L21.37 6.99977ZM24.35 14.4998C24.35 14.5798 24.32 14.6598 24.26 14.7198C24.2 14.7798 24.13 14.8098 24.04 14.8098H23.27C23.39 14.6098 23.49 14.4098 23.58 14.1998H24.35V14.5098V14.4998ZM19.75 14.7998C19.58 14.7998 19.44 14.6698 19.44 14.4898V14.2198C19.44 14.0498 19.57 13.9098 19.75 13.9098H20.29C20.46 13.9098 20.6 14.0398 20.6 14.2198V14.4898C20.6 14.6598 20.47 14.7998 20.29 14.7998H19.75ZM22.45 19.9398L22.73 19.6898L23.61 20.2698L22.04 22.6198C21.46 22.2298 20.76 22.0198 20.18 21.9098L22.44 19.9398H22.45ZM24.85 13.1898H23.74V11.5798C23.74 11.5798 23.74 11.5198 23.74 11.4898V10.9598H24.85C25.11 10.9598 25.42 10.9598 25.42 12.0698C25.42 13.1798 25.1 13.1798 24.85 13.1798V13.1898ZM16.8 3.98977H20.02C21.18 3.98977 22.26 4.43977 23.08 5.25977C23.9 6.07977 24.35 7.16977 24.35 8.31977V9.96977H23.74V8.31977C23.74 7.59977 23.56 6.96977 23.19 6.41977C23.12 6.31977 22.96 6.07977 22.23 6.08977C22.2 5.73977 22.08 5.37977 21.75 5.21977C20.9 4.80977 19.77 4.59977 18.4 4.59977C17.2 4.59977 16.19 4.75977 15.39 5.06977C14.94 5.24977 14.55 5.47977 14.22 5.74977C13.47 6.37977 13.07 7.26977 13.07 8.30977V9.95977H12.46V8.30977C12.46 5.91977 14.4 3.97977 16.79 3.97977L16.8 3.98977ZM11.39 12.0798C11.39 10.9698 11.71 10.9698 11.96 10.9698H13.07V11.5398V13.1798H11.96C11.7 13.1798 11.39 13.1798 11.39 12.0698V12.0798ZM14.06 15.5298C14.37 15.9098 14.73 16.2498 15.14 16.5598L14.45 18.6798C14.45 18.6798 14.43 18.6698 14.43 18.6598C14.43 18.6598 14.42 18.6598 14.41 18.6498L14.39 18.6398C14.39 18.6398 14.38 18.6398 14.37 18.6298C14.37 18.6298 14.36 18.6298 14.35 18.6198C14.35 18.6198 14.33 18.6198 14.33 18.6098C14.33 18.6098 14.32 18.6098 14.31 18.6098C14.31 18.6098 14.29 18.6098 14.28 18.6098C14.28 18.6098 14.27 18.6098 14.26 18.6098C14.26 18.6098 14.24 18.6098 14.23 18.6098C14.23 18.6098 14.22 18.6098 14.21 18.6098C14.21 18.6098 14.19 18.6098 14.18 18.6098H14.16H14.14C14.14 18.6098 14.12 18.6098 14.11 18.6098C14.11 18.6098 14.1 18.6098 14.09 18.6098C14.09 18.6098 14.07 18.6098 14.06 18.6098C14.06 18.6098 14.05 18.6098 14.04 18.6098C14.04 18.6098 14.02 18.6098 14.01 18.6098C14.01 18.6098 14 18.6098 13.99 18.6098C13.99 18.6098 13.97 18.6098 13.96 18.6098C13.96 18.6098 13.95 18.6098 13.94 18.6098C13.94 18.6098 13.93 18.6098 13.92 18.6098C13.92 18.6098 13.9 18.6098 13.9 18.6198C13.9 18.6198 13.89 18.6198 13.88 18.6198C13.88 18.6198 13.86 18.6298 13.85 18.6398L12.24 19.7098C12.13 19.7798 12.05 19.8998 12.03 20.0298C12.03 20.0398 12.03 20.0598 12.03 20.0698L8.52 20.8998L7.97 17.0998C8.82 16.6898 11.34 15.5898 14.07 15.5298H14.06ZM7.55 22.8798C7.58 22.4398 7.9 22.0798 8.33 21.9698L9.99001 21.5798C10.07 21.9298 10.18 22.4298 10.3 23.0198C10.35 23.2598 10.56 23.4198 10.79 23.4198C10.82 23.4198 10.86 23.4198 10.89 23.4098C11.16 23.3498 11.33 23.0898 11.28 22.8198C11.16 22.2198 11.04 21.6998 10.96 21.3498L12.48 20.9898L14.24 23.6298C14.32 23.7498 14.46 23.8298 14.61 23.8498C14.63 23.8498 14.64 23.8498 14.66 23.8498C14.79 23.8498 14.92 23.7998 15.01 23.6998C15.75 22.9598 17.14 22.8198 17.63 22.7898L18.08 23.1898C18.1 23.2098 18.12 23.2198 18.15 23.2398C18.17 23.2498 18.2 23.2598 18.22 23.2698C18.22 23.2698 18.22 23.2698 18.23 23.2698C18.25 23.2698 18.28 23.2898 18.3 23.2898C18.3 23.2898 18.3 23.2898 18.32 23.2898C18.35 23.2898 18.37 23.2898 18.4 23.2898C18.43 23.2898 18.45 23.2898 18.48 23.2898C18.48 23.2898 18.48 23.2898 18.49 23.2898C18.51 23.2898 18.54 23.2798 18.56 23.2698C18.56 23.2698 18.56 23.2698 18.57 23.2698C18.59 23.2698 18.62 23.2498 18.64 23.2398C18.66 23.2298 18.69 23.2098 18.71 23.1898L19.16 22.7898C19.79 22.8198 21.1 23.0198 21.78 23.6998C21.87 23.7898 22 23.8498 22.13 23.8498C22.15 23.8498 22.16 23.8498 22.18 23.8498C22.33 23.8398 22.46 23.7498 22.55 23.6298L24.31 20.9898L25.83 21.3498C25.72 21.8198 25.55 22.5998 25.38 23.4698C25.33 23.7398 25.51 23.9998 25.78 24.0498C25.81 24.0498 25.84 24.0498 25.87 24.0498C26.1 24.0498 26.31 23.8798 26.36 23.6398C26.52 22.7798 26.69 22.0198 26.8 21.5598L28.46 21.9498C28.89 22.0498 29.2 22.4198 29.24 22.8598L29.65 28.1998H25.86C25.86 27.8698 25.88 27.5398 25.9 27.2098C25.92 26.9298 25.71 26.6998 25.43 26.6798C25.16 26.6598 24.92 26.8698 24.9 27.1498C24.87 27.6798 24.85 28.1998 24.85 28.6998V36.2498H18.68C18.68 36.2498 18.68 36.2298 18.68 36.2098V35.4098C18.68 34.7898 18.24 34.2698 17.66 34.1398C17.74 33.9698 17.79 33.7698 17.8 33.5698L17.9 32.5098L18.49 26.0698C18.49 26.0698 18.49 26.0598 18.49 26.0498C18.51 25.6398 18.36 25.2298 18.08 24.9298C17.8 24.6298 17.39 24.4598 16.98 24.4598H7.40001L7.52 22.8798H7.55ZM4.83 33.4998L4.78 32.9698H16.88L16.83 33.4998C16.83 33.4998 16.83 33.5098 16.83 33.5198C16.81 33.8598 16.53 34.1198 16.2 34.1198H5.47C5.14 34.1198 4.87 33.8498 4.83 33.4998ZM4.27 25.6298C4.37 25.5198 4.51 25.4598 4.66 25.4598H6.88H17C17.14 25.4598 17.28 25.5198 17.38 25.6198C17.48 25.7198 17.53 25.8598 17.52 25.9998L16.97 31.9798H4.69L4.14 25.9898C4.12 25.8198 4.21001 25.6898 4.26001 25.6398L4.27 25.6298ZM3.96001 36.2298V35.4298C3.96001 35.2598 4.09 35.1198 4.27 35.1198H17.42C17.59 35.1198 17.73 35.2498 17.73 35.4298V36.2298C17.73 36.2298 17.71 36.2698 17.69 36.2698H4.01001C4.01001 36.2698 3.97 36.2498 3.97 36.2298H3.96001ZM25.92 36.2698H25.88V29.2198H29.18V36.2698H25.92Z" fill="#383F51"/>
<path d="M35.4 4.48C34.44 3.52 33.17 3 31.82 3C30.47 3 29.2 3.53 28.24 4.48C27.28 5.44 26.76 6.71 26.76 8.06C26.76 9.59 27.45 11.03 28.63 11.98L28.21 13.56C28.16 13.75 28.23 13.96 28.39 14.08C28.48 14.15 28.59 14.18 28.69 14.18C28.78 14.18 28.86 14.16 28.94 14.11L30.85 13.01C31.17 13.07 31.5 13.11 31.83 13.11C33.18 13.11 34.45 12.58 35.41 11.63C36.37 10.67 36.89 9.4 36.89 8.05C36.89 6.7 36.36 5.43 35.41 4.47L35.4 4.48ZM34.7 10.93C33.93 11.7 32.91 12.12 31.83 12.12C31.51 12.12 31.2 12.08 30.89 12.01C30.77 11.98 30.63 12 30.52 12.06L29.49 12.66L29.69 11.92C29.74 11.72 29.67 11.5 29.49 11.38C28.41 10.62 27.76 9.38 27.76 8.06C27.76 6.97 28.18 5.95 28.95 5.19C29.72 4.42 30.74 4 31.82 4C32.9 4 33.93 4.42 34.69 5.19C35.46 5.96 35.88 6.98 35.88 8.06C35.88 9.14 35.46 10.17 34.69 10.93H34.7Z" fill="#383F51"/>
<path d="M31.82 7.85938C31.56 7.85938 31.35 8.06938 31.35 8.32938C31.35 8.44938 31.4 8.56938 31.49 8.65938C31.58 8.74938 31.7 8.79938 31.82 8.79938C31.94 8.79938 32.06 8.74938 32.15 8.65938C32.24 8.56938 32.29 8.44938 32.29 8.32938C32.29 8.20938 32.24 8.08938 32.15 7.99938C32.06 7.90938 31.94 7.85938 31.82 7.85938Z" fill="#383F51"/>
<path d="M33.33 7.85938C33.07 7.85938 32.86 8.06938 32.86 8.32938C32.86 8.44938 32.91 8.56938 33 8.65938C33.09 8.74938 33.21 8.79938 33.33 8.79938C33.45 8.79938 33.57 8.74938 33.66 8.65938C33.75 8.56938 33.8 8.44938 33.8 8.32938C33.8 8.20938 33.75 8.08938 33.66 7.99938C33.57 7.90938 33.45 7.85938 33.33 7.85938Z" fill="#383F51"/>
<path d="M30.32 7.85938C30.06 7.85938 29.85 8.06938 29.85 8.32938C29.85 8.44938 29.9 8.56938 29.99 8.65938C30.08 8.74938 30.2 8.79938 30.32 8.79938C30.44 8.79938 30.56 8.74938 30.65 8.65938C30.74 8.56938 30.79 8.44938 30.79 8.32938C30.79 8.20938 30.74 8.08938 30.65 7.99938C30.56 7.90938 30.44 7.85938 30.32 7.85938Z" fill="#383F51"/>
</svg>
