<svg width="40" height="40" viewBox="0 0 40 40" fill="none" xmlns="http://www.w3.org/2000/svg">
<rect width="40" height="40" fill="white"/>
<path d="M34.23 26.7502C35.3 25.8902 35.99 24.5702 35.99 23.1002V21.9302C35.99 19.3502 33.89 17.2402 31.3 17.2402C28.71 17.2402 26.61 19.3402 26.61 21.9302V23.1002C26.61 24.5802 27.3 25.8902 28.37 26.7502C26.75 27.1202 25.39 28.2302 24.72 29.7602C24.23 29.4502 23.69 29.2202 23.1 29.0902C24.17 28.2302 24.86 26.9102 24.86 25.4402V24.2702C24.86 21.6902 22.76 19.5802 20.17 19.5802C17.58 19.5802 15.48 21.6802 15.48 24.2702V25.4402C15.48 26.9202 16.17 28.2302 17.24 29.0902C16.66 29.2202 16.12 29.4502 15.62 29.7602C14.95 28.2302 13.59 27.1202 11.97 26.7502C13.04 25.8902 13.72 24.5702 13.72 23.1002V21.9302C13.72 19.3502 11.62 17.2402 9.03 17.2402C6.44 17.2402 4.34 19.3402 4.34 21.9302V23.1002C4.34 24.5802 5.03 25.8902 6.1 26.7502C3.76 27.2902 2 29.3802 2 31.8902V35.4102C2 35.7302 2.26 36.0002 2.59 36.0002H13.14V37.7602C13.14 38.0802 13.4 38.3502 13.73 38.3502H26.62C26.94 38.3502 27.21 38.0902 27.21 37.7602V36.0002H37.76C38.08 36.0002 38.35 35.7402 38.35 35.4102V31.8902C38.35 29.3902 36.59 27.2902 34.25 26.7502H34.23ZM33.47 30.1702L31.6 29.0502C31.41 28.9402 31.18 28.9402 31 29.0502L29.13 30.1702L29.47 27.8002C29.47 27.8002 29.52 27.8002 29.55 27.8002H33.07C33.07 27.8002 33.12 27.8002 33.15 27.8002L33.49 30.1802L33.47 30.1702ZM34.81 21.9302C33.52 21.9302 32.47 20.8802 32.47 19.5902V18.6202C33.83 19.1002 34.81 20.4002 34.81 21.9302ZM31.29 18.4102V19.5802C31.29 20.8702 30.24 21.9202 28.95 21.9202H27.78C27.78 19.9802 29.36 18.4002 31.3 18.4002L31.29 18.4102ZM27.78 23.1002H28.95C30.17 23.1002 31.25 22.4702 31.88 21.5202C32.51 22.4702 33.59 23.1002 34.81 23.1002C34.81 25.0402 33.23 26.6202 31.29 26.6202C29.35 26.6202 27.77 25.0402 27.77 23.1002H27.78ZM22.34 32.5102L20.47 31.3902C20.28 31.2802 20.05 31.2802 19.87 31.3902L18 32.5102L18.34 30.1302C18.34 30.1302 18.39 30.1302 18.42 30.1302H21.94C21.94 30.1302 21.99 30.1302 22.02 30.1302L22.36 32.5102H22.34ZM23.68 24.2702C22.39 24.2702 21.34 23.2202 21.34 21.9302V20.9602C22.7 21.4402 23.68 22.7402 23.68 24.2702ZM20.16 20.7602V21.9302C20.16 23.2202 19.11 24.2702 17.82 24.2702H16.65C16.65 22.3302 18.23 20.7502 20.17 20.7502L20.16 20.7602ZM16.65 25.4402H17.82C19.04 25.4402 20.12 24.8102 20.75 23.8602C21.38 24.8102 22.46 25.4402 23.68 25.4402C23.68 27.3802 22.1 28.9602 20.16 28.9602C18.22 28.9602 16.64 27.3802 16.64 25.4402H16.65ZM11.2 30.1702L9.33 29.0502C9.14 28.9402 8.91 28.9402 8.73 29.0502L6.86 30.1702L7.2 27.7902C7.2 27.7902 7.25 27.7902 7.28 27.7902H10.8C10.8 27.7902 10.85 27.7902 10.88 27.7902L11.22 30.1602L11.2 30.1702ZM12.54 21.9302C11.25 21.9302 10.2 20.8802 10.2 19.5902V18.6202C11.56 19.1002 12.54 20.4002 12.54 21.9302ZM9.03 18.4102V19.5802C9.03 20.8702 7.98 21.9202 6.69 21.9202H5.52C5.52 19.9802 7.1 18.4002 9.04 18.4002L9.03 18.4102ZM5.51 23.1002H6.68C7.9 23.1002 8.98 22.4702 9.61 21.5202C10.24 22.4702 11.32 23.1002 12.54 23.1002C12.54 25.0402 10.96 26.6202 9.02 26.6202C7.08 26.6202 5.5 25.0402 5.5 23.1002H5.51ZM3.17 31.8902C3.17 30.0802 4.35 28.5402 5.98 28.0002L5.52 31.2202C5.49 31.4402 5.59 31.6702 5.78 31.7902C5.97 31.9102 6.21 31.9202 6.41 31.8002L8.45 30.5702V34.8102H3.17V31.8802V31.8902ZM9.62 34.8202V30.5802L11.66 31.8102C11.75 31.8702 11.86 31.8902 11.96 31.8902C12.07 31.8902 12.19 31.8602 12.28 31.7902C12.47 31.6702 12.57 31.4402 12.54 31.2202L12.08 28.0002C13.27 28.4002 14.22 29.3302 14.65 30.5402C13.71 31.4902 13.13 32.8002 13.13 34.2302V34.8202H9.61H9.62ZM14.3 34.2302C14.3 32.4202 15.48 30.8802 17.11 30.3402L16.65 33.5602C16.62 33.7802 16.72 34.0102 16.91 34.1302C17.1 34.2602 17.34 34.2602 17.54 34.1402L19.58 32.9102V37.1502H14.31V34.2202L14.3 34.2302ZM26.02 37.1602H20.75V32.9202L22.79 34.1502C22.88 34.2102 22.99 34.2302 23.09 34.2302C23.2 34.2302 23.32 34.2002 23.41 34.1302C23.6 34.0102 23.7 33.7802 23.67 33.5602L23.21 30.3402C24.84 30.8802 26.02 32.4202 26.02 34.2302V37.1602ZM25.68 30.5402C26.1 29.3302 27.06 28.4002 28.25 28.0002L27.79 31.2202C27.76 31.4402 27.86 31.6702 28.05 31.7902C28.24 31.9202 28.48 31.9202 28.68 31.8002L30.72 30.5702V34.8102H27.2V34.2202C27.2 32.7802 26.62 31.4802 25.68 30.5302V30.5402ZM37.15 34.8202H31.88V30.5802L33.92 31.8102C34.01 31.8702 34.12 31.8902 34.22 31.8902C34.33 31.8902 34.45 31.8602 34.54 31.7902C34.73 31.6702 34.83 31.4402 34.8 31.2202L34.34 28.0002C35.97 28.5402 37.15 30.0802 37.15 31.8902V34.8202Z" fill="#383F51"/>
<path d="M20.1599 12.5496C19.5099 12.5496 18.9899 12.0196 18.9899 11.3796H17.8199C17.8199 12.4696 18.5699 13.3796 19.5799 13.6396V14.8996H20.7499V13.6396C21.7599 13.3796 22.5099 12.4696 22.5099 11.3796C22.5099 10.0896 21.4599 9.03961 20.1699 9.03961C19.5199 9.03961 18.9999 8.50961 18.9999 7.86961C18.9999 7.22961 19.5299 6.69961 20.1699 6.69961C20.8099 6.69961 21.3399 7.22961 21.3399 7.86961H22.5099C22.5099 6.77961 21.7599 5.86961 20.7499 5.60961V4.34961H19.5799V5.60961C18.5699 5.86961 17.8199 6.77961 17.8199 7.86961C17.8199 9.15961 18.8699 10.2096 20.1599 10.2096C20.8099 10.2096 21.3299 10.7396 21.3299 11.3796C21.3299 12.0196 20.7999 12.5496 20.1599 12.5496Z" fill="#383F51"/>
<path d="M23.6801 9.03906H24.8501V10.2091H23.6801V9.03906Z" fill="#383F51"/>
<path d="M15.47 9.03906H16.64V10.2091H15.47V9.03906Z" fill="#383F51"/>
<path d="M4.93004 7.87C5.69004 7.87 6.34004 7.38 6.58004 6.7H13.13C12.82 7.43 12.64 8.22 12.57 9.04H10.09C9.85004 8.36 9.20004 7.87 8.44004 7.87C7.47004 7.87 6.68004 8.66 6.68004 9.63C6.68004 10.6 7.47004 11.39 8.44004 11.39C9.20004 11.39 9.85004 10.9 10.09 10.22H12.57C12.87 14.15 16.15 17.25 20.16 17.25C22.85 17.25 25.21 15.85 26.57 13.73H33.75C33.99 14.41 34.64 14.9 35.4 14.9C36.37 14.9 37.16 14.11 37.16 13.14C37.16 12.17 36.37 11.38 35.4 11.38C34.64 11.38 33.99 11.87 33.75 12.55H27.2C27.51 11.82 27.69 11.03 27.76 10.21H30.24C30.48 10.89 31.13 11.38 31.89 11.38C32.86 11.38 33.65 10.59 33.65 9.62C33.65 8.65 32.86 7.86 31.89 7.86C31.13 7.86 30.48 8.35 30.24 9.03H27.76C27.46 5.1 24.18 2 20.17 2C17.48 2 15.12 3.4 13.76 5.52H6.58004C6.34004 4.84 5.69004 4.35 4.93004 4.35C3.96004 4.35 3.17004 5.14 3.17004 6.11C3.17004 7.08 3.96004 7.87 4.93004 7.87ZM35.4 12.55C35.72 12.55 35.99 12.81 35.99 13.14C35.99 13.47 35.73 13.73 35.4 13.73C35.07 13.73 34.81 13.47 34.81 13.14C34.81 12.81 35.07 12.55 35.4 12.55ZM8.44004 10.21C8.12004 10.21 7.85004 9.95 7.85004 9.62C7.85004 9.29 8.11004 9.03 8.44004 9.03C8.77004 9.03 9.03004 9.29 9.03004 9.62C9.03004 9.95 8.77004 10.21 8.44004 10.21ZM31.88 9.04C32.2 9.04 32.47 9.3 32.47 9.63C32.47 9.96 32.21 10.22 31.88 10.22C31.55 10.22 31.29 9.96 31.29 9.63C31.29 9.3 31.55 9.04 31.88 9.04ZM20.16 3.18C23.71 3.18 26.6 6.07 26.6 9.62C26.6 13.17 23.71 16.06 20.16 16.06C16.61 16.06 13.72 13.17 13.72 9.62C13.72 6.07 16.61 3.18 20.16 3.18ZM4.93004 5.52C5.25004 5.52 5.52004 5.78 5.52004 6.11C5.52004 6.44 5.26004 6.7 4.93004 6.7C4.60004 6.7 4.34004 6.44 4.34004 6.11C4.34004 5.78 4.60004 5.52 4.93004 5.52Z" fill="#383F51"/>
</svg>
