<svg width="45" height="45" viewBox="0 0 45 45" fill="none" xmlns="http://www.w3.org/2000/svg">
<path d="M18 17.373C18 18.5036 18.9372 19.4238 20.0886 19.4238C20.6037 19.4238 21.0981 19.2385 21.4808 18.9021C21.7897 18.6329 22.2303 18.5677 22.6034 18.7298C22.9798 18.8951 23.2215 19.2615 23.2215 19.666V23.6666C23.5734 23.5735 23.9384 23.5254 24.3096 23.5254C26.6136 23.5254 28.4869 25.365 28.4869 27.627C28.4869 29.889 26.6136 31.7285 24.3096 31.7285C23.9365 31.7285 23.5745 31.6636 23.2215 31.5699V40H30.5755C31.1528 40 31.6456 39.5412 31.6456 38.9746V33.7793H34.7527C35.3301 33.7793 35.8228 33.3205 35.8228 32.7539V27.627H38.9558C39.3025 27.627 39.6259 27.4577 39.8206 27.1762C40.0142 26.895 40.0542 26.5364 39.9255 26.221L37.1494 19.4708V16.3477C37.1494 10.1283 31.9962 5 25.6621 5H23.2215V15.0798C23.2215 15.4844 22.9798 15.851 22.6034 16.0163C22.2281 16.1794 21.7897 16.1143 21.4808 15.844C21.0981 15.5076 20.6037 15.3223 20.0886 15.3223C18.9372 15.3223 18 16.2424 18 17.373Z" fill="#383F51"/>
<path d="M6.04224 27.627H9.23841V32.7539C9.23841 33.3205 9.70443 33.7793 10.2806 33.7793H13.4073V38.9746C13.4073 39.5412 13.8733 40 14.4496 40H21.7452V29.8809C21.7452 29.0315 22.836 28.5255 23.4969 29.1301C23.8836 29.4836 24.3874 29.6777 24.9155 29.6777C26.0647 29.6777 27 28.7576 27 27.627C27 26.4966 26.0647 25.5762 24.9155 25.5762C24.3874 25.5762 23.8836 25.7706 23.4969 26.1241C23.1934 26.4013 22.7507 26.4755 22.371 26.3132C21.9905 26.15 21.7452 25.7804 21.7452 25.373V21.3446C21.4072 21.4305 21.0582 21.4746 20.7029 21.4746C18.4038 21.4746 16.534 19.6353 16.534 17.373C16.534 15.111 18.4038 13.2715 20.7029 13.2715C21.0582 13.2715 21.4072 13.3155 21.7452 13.4018V5H19.3532C13.0317 5 7.88867 10.1283 7.88867 16.3477V19.4708L5.07438 26.221C4.946 26.5364 4.98563 26.895 5.17915 27.1765C5.37348 27.4577 5.69619 27.627 6.04224 27.627Z" fill="#383F51"/>
</svg>
