<svg width="45" height="45" viewBox="0 0 45 45" fill="none" xmlns="http://www.w3.org/2000/svg">
<path fill-rule="evenodd" clip-rule="evenodd" d="M25.2863 7.71953C27.1644 8.11841 28.9184 8.86254 30.4861 9.87227L32.5327 8.96845C32.9049 8.80004 33.3742 8.90674 33.7105 9.25163L35.7488 11.2895C36.0839 11.6258 36.2 12.0954 36.0312 12.4676L35.1284 14.5138C36.1374 16.0817 36.8822 17.8358 37.2804 19.7134L39.3715 20.5194C39.7516 20.6702 40 21.0776 40 21.5561V24.4347C40 24.9222 39.7517 25.33 39.3715 25.4715L37.2804 26.2774C36.8823 28.1641 36.1374 29.918 35.1284 31.477L36.0312 33.524C36.2 33.9045 36.0839 34.365 35.7488 34.7021L33.7105 36.7482C33.3741 37.0845 32.9049 37.1994 32.5327 37.0315L30.4861 36.1189C28.9185 37.1374 27.1644 37.8729 25.2863 38.2807L24.4804 40.362C24.3297 40.7519 23.9227 41 23.4438 41H20.5565C20.0772 41 19.6706 40.7519 19.5194 40.362L18.7227 38.2807C16.8359 37.8729 15.0818 37.1374 13.5224 36.1189L11.4762 37.0315C11.0951 37.1995 10.6352 37.0846 10.2892 36.7482L8.25207 34.7021C7.91525 34.3649 7.79997 33.9044 7.96846 33.524L8.87199 31.477C7.86233 29.918 7.12698 28.1641 6.71997 26.2774L4.63785 25.4715C4.24804 25.33 4 24.9222 4 24.4347V21.5561C4 21.0776 4.24804 20.6702 4.63785 20.5194L6.71997 19.7134C7.12691 17.8357 7.86226 16.0817 8.87199 14.5138L7.96846 12.4676C7.79997 12.0954 7.91532 11.6258 8.25207 11.2895L10.2892 9.25163C10.6353 8.90667 11.0951 8.80004 11.4762 8.96845L13.5224 9.87227C15.0817 8.86254 16.8359 8.11834 18.7227 7.71953L19.5194 5.62885C19.6706 5.24804 20.0772 5 20.5565 5H23.4438C23.9227 5 24.3297 5.24804 24.4804 5.62885L25.2863 7.71953ZM21.2999 20.1215C21.3534 20.5995 21.5475 21.0778 21.9201 21.5472L22.1507 21.8398L20.5742 24.5766L20.1928 24.5235C18.7932 24.3199 17.8004 25.002 17.163 26.1177L16.7466 26.8352L21.3094 29.4751L21.7256 28.7486C22.3632 27.6419 22.4608 26.4368 21.5834 25.3301L21.3441 25.0286L22.9303 22.2918L23.3021 22.3442C23.8874 22.4243 24.4007 22.3625 24.8437 22.1672L21.2999 20.1215ZM29.4404 13.2564C29.4404 13.008 29.6446 12.8041 29.8931 12.8041C30.1406 12.8041 30.3439 13.008 30.3439 13.2564V15.1073C30.3439 15.3553 30.1406 15.5503 29.8931 15.5503C29.8836 15.5503 29.8662 15.5503 29.8575 15.5503H28.041C27.793 15.5503 27.5985 15.3553 27.5985 15.1073C27.5985 14.8597 27.793 14.6553 28.041 14.6553H28.7228C26.9074 13.1849 24.7018 12.3877 22.4608 12.2904C19.9897 12.1845 17.4735 12.9373 15.3915 14.5671C13.2565 16.2323 11.9196 18.571 11.4582 21.0687C11.0067 23.5583 11.432 26.2247 12.8317 28.5369C12.9556 28.7486 12.8929 29.0322 12.6807 29.1564C12.4683 29.2897 12.1933 29.2182 12.0605 29.0061C10.5461 26.4901 10.0853 23.6118 10.5815 20.9009C11.0777 18.1993 12.5301 15.6656 14.8422 13.8585C17.0927 12.0956 19.8205 11.2807 22.5045 11.3959C24.985 11.5019 27.4385 12.4057 29.4403 14.089V13.2564H29.4404ZM15.2762 31.3443C17.0927 32.8057 19.2888 33.6034 21.5218 33.7007C24.0022 33.8069 26.5265 33.0628 28.6079 31.4334C30.7434 29.7588 32.0806 27.4294 32.5412 24.9314C33.002 22.4337 32.5763 19.7754 31.168 17.4547C31.0442 17.2422 31.1146 16.9679 31.3273 16.8347C31.5399 16.7113 31.815 16.7816 31.9383 16.994C33.4623 19.5007 33.9235 22.3801 33.427 25.0911C32.9314 27.7923 31.4692 30.3256 29.1664 32.1327C26.8988 33.9046 24.1705 34.7192 21.4858 34.5961C18.9972 34.4894 16.5614 33.5773 14.559 31.9116V32.7441C14.559 32.9925 14.3551 33.1867 14.1072 33.1867C13.859 33.1867 13.6551 32.9925 13.6551 32.7441V30.8929C13.6551 30.6449 13.859 30.4414 14.1072 30.4414H15.9593C16.2061 30.4414 16.4099 30.6449 16.4099 30.8929C16.4099 31.141 16.2061 31.3445 15.9593 31.3445H15.2762V31.3443ZM27.5805 21.4676L28.6703 19.5804L28.7938 19.6515C29.0423 19.7929 29.361 19.7221 29.5025 19.4921C29.6358 19.2535 29.5385 18.943 29.2813 18.7925L21.9999 14.5846C21.7432 14.4428 21.4246 14.5139 21.2918 14.7534C21.1581 14.9836 21.2561 15.2936 21.5038 15.4444L21.628 15.5147L20.5385 17.4015C19.5732 19.0672 19.6435 20.8207 20.8127 22.3091C18.9354 22.0431 17.3845 22.8676 16.4279 24.5236L15.3294 26.4111L15.2145 26.3486C14.9576 26.1975 14.6387 26.2689 14.5056 26.508C14.3641 26.7385 14.4615 27.0573 14.7188 27.1986L21.9999 31.4061C22.2569 31.5475 22.5762 31.4772 22.7085 31.247C22.85 31.008 22.7526 30.6975 22.4957 30.547L22.3718 30.4761L23.4703 28.5896C24.4269 26.9244 24.3652 25.1708 23.1874 23.6822C25.0648 23.9567 26.6148 23.1332 27.5805 21.4676Z" fill="#383F51"/>
</svg>
