<svg width="40" height="40" viewBox="0 0 40 40" fill="none" xmlns="http://www.w3.org/2000/svg">
<rect width="40" height="40" fill="white"/>
<path d="M33.98 19.28V18.41C33.98 17.72 34.3 17.07 34.86 16.61C36.48 15.3 37.4 13.36 37.4 11.29C37.4 9.34 36.57 7.48 35.11 6.18C33.66 4.88 31.71 4.26 29.76 4.48C26.75 4.82 24.24 7.22 23.78 10.2C23.4 12.64 24.31 15.03 26.21 16.58C26.79 17.05 27.12 17.72 27.12 18.4V19.27C27.12 20.15 27.45 20.95 28 21.55H20.15C19.52 20.32 18.52 19.36 17.32 18.77C18.89 18.02 20.03 16.5 20.23 14.7H20.26C21.52 14.7 22.54 13.68 22.54 12.42C22.54 11.91 22.37 11.45 22.09 11.07C22.38 10.31 22.54 9.52 22.54 8.71C22.54 6.91 21.76 5.21 20.39 4.03L18.02 2L17.66 2.24C16.63 2.92 15.44 3.29 14.21 3.29H11.99C9 3.29 6.57 5.72 6.57 8.71C6.57 9.53 6.73 10.32 7.02 11.07C6.74 11.45 6.57 11.91 6.57 12.42C6.57 13.68 7.59 14.7 8.85 14.7H8.88C9.08 16.5 10.22 18.02 11.79 18.77C10.59 19.36 9.59 20.32 8.96 21.55H7.7V16.98H4.85C3.28 16.98 2 18.26 2 19.83V34.68C2 36.25 3.28 37.53 4.85 37.53H37.4V21.54H33.09C33.63 20.93 33.97 20.13 33.97 19.26L33.98 19.28ZM26.94 15.7C25.36 14.41 24.6 12.41 24.91 10.37C25.29 7.89 27.39 5.89 29.89 5.61C30.11 5.59 30.34 5.57 30.56 5.57C31.97 5.57 33.3 6.07 34.36 7.02C35.57 8.1 36.27 9.65 36.27 11.28C36.27 13.01 35.5 14.62 34.15 15.71C33.39 16.32 32.93 17.19 32.86 18.13H31.74L32.08 12.99H32.84C33.78 12.99 34.55 12.22 34.55 11.28C34.55 10.34 33.78 9.57 32.84 9.57H32.77C31.87 9.57 31.12 10.27 31.06 11.17L31.01 11.85H30.1L30.05 11.16C29.99 10.26 29.24 9.56 28.34 9.56H28.27C27.33 9.56 26.56 10.33 26.56 11.27C26.56 12.21 27.33 12.98 28.27 12.98H29.03L29.37 18.12H28.25C28.17 17.19 27.71 16.31 26.94 15.68V15.7ZM30.52 18.14L30.18 13H30.94L30.6 18.14H30.53H30.52ZM32.15 11.86L32.19 11.25C32.21 10.95 32.46 10.72 32.76 10.72H32.83C33.14 10.72 33.4 10.98 33.4 11.29C33.4 11.6 33.14 11.86 32.83 11.86H32.15ZM28.95 11.86H28.27C27.96 11.86 27.7 11.6 27.7 11.29C27.7 10.98 27.96 10.72 28.27 10.72H28.34C28.64 10.72 28.89 10.95 28.91 11.25L28.95 11.86ZM28.27 19.28H32.84C32.84 20.54 31.82 21.56 30.56 21.56C29.3 21.56 28.28 20.54 28.28 19.28H28.27ZM14.57 19.28C15.09 19.28 15.6 19.36 16.08 19.51C15.79 20.06 15.22 20.42 14.57 20.42C13.92 20.42 13.35 20.05 13.06 19.51C13.54 19.36 14.05 19.28 14.57 19.28ZM20.28 13.57V11.29C20.91 11.29 21.42 11.8 21.42 12.43C21.42 13.06 20.91 13.57 20.28 13.57ZM7.71 12.43C7.71 11.8 8.22 11.29 8.85 11.29V13.57C8.22 13.57 7.71 13.06 7.71 12.43ZM8.86 9.6V10.15C8.54 10.15 8.24 10.22 7.97 10.33C7.81 9.81 7.72 9.27 7.72 8.72C7.72 6.36 9.64 4.44 12 4.44H14.22C15.53 4.44 16.81 4.09 17.94 3.43L19.67 4.91C20.78 5.86 21.42 7.25 21.42 8.72C21.42 9.27 21.33 9.81 21.17 10.33C20.9 10.21 20.59 10.15 20.28 10.15V8.44C20.28 7.5 19.51 6.73 18.57 6.73H18V7.87H18.57C18.88 7.87 19.14 8.13 19.14 8.44C19.14 8.75 18.88 9.01 18.57 9.01C17.54 9.01 16.5 8.77 15.58 8.3L13.03 7.03C12.63 6.83 12.19 6.73 11.74 6.73C10.15 6.73 8.86 8.02 8.86 9.61V9.6ZM14 18.14C11.8 18.14 10 16.35 10 14.14V9.6C10 8.64 10.78 7.86 11.74 7.86C12.01 7.86 12.28 7.92 12.52 8.04L15.07 9.31C16.15 9.85 17.36 10.14 18.57 10.14C18.77 10.14 18.96 10.11 19.14 10.04V14.13C19.14 16.33 17.35 18.13 15.14 18.13H14V18.14ZM12.02 19.97C12.49 20.92 13.47 21.56 14.57 21.56C15.67 21.56 16.65 20.92 17.12 19.97C17.8 20.36 18.39 20.9 18.83 21.56H10.3C10.74 20.9 11.33 20.36 12.01 19.97H12.02ZM3.15 19.85C3.15 18.91 3.92 18.14 4.86 18.14H6.57V31.84H4.86C4.22 31.84 3.62 32.05 3.15 32.41V19.85ZM36.26 36.41H4.86C3.92 36.41 3.15 35.64 3.15 34.7C3.15 33.76 3.92 32.99 4.86 32.99H7.71V22.71H36.26V36.41Z" fill="#383F51"/>
<path d="M12.8499 12.4307H13.9899C13.9899 11.4907 13.2199 10.7207 12.2799 10.7207C11.3399 10.7207 10.5699 11.4907 10.5699 12.4307H11.7099C11.7099 12.1207 11.9699 11.8607 12.2799 11.8607C12.5899 11.8607 12.8499 12.1207 12.8499 12.4307Z" fill="#383F51"/>
<path d="M16.85 11.8607C17.16 11.8607 17.42 12.1207 17.42 12.4307H18.56C18.56 11.4907 17.79 10.7207 16.85 10.7207C15.91 10.7207 15.14 11.4907 15.14 12.4307H16.28C16.28 12.1207 16.54 11.8607 16.85 11.8607Z" fill="#383F51"/>
<path d="M16.85 14.7109H15.71C15.71 15.3409 15.2 15.8509 14.57 15.8509C13.94 15.8509 13.43 15.3409 13.43 14.7109H12.29C12.29 15.9709 13.31 16.9909 14.57 16.9909C15.83 16.9909 16.85 15.9709 16.85 14.7109Z" fill="#383F51"/>
<path d="M25.99 28.4196H35.13V23.8496H25.99V28.4196ZM27.13 24.9896H33.98V27.2696H27.13V24.9896Z" fill="#383F51"/>
<path d="M25.99 29.5605H28.27V30.7005H25.99V29.5605Z" fill="#383F51"/>
<path d="M29.41 29.5605H35.12V30.7005H29.41V29.5605Z" fill="#383F51"/>
<path d="M25.99 31.8398H35.13V32.9798H25.99V31.8398Z" fill="#383F51"/>
<path d="M33.98 34.1309H35.12V35.2709H33.98V34.1309Z" fill="#383F51"/>
<path d="M25.99 34.1309H32.84V35.2709H25.99V34.1309Z" fill="#383F51"/>
<path d="M22.56 26.7109H21.42V30.1409H20.28V31.2809H21.42V34.1309H19.14V28.4209H18V34.1309H11.15V32.9909H13.43V31.8509H11.15V29.5709H10.01V35.2809H23.71V34.1409H22.57V26.7209L22.56 26.7109Z" fill="#383F51"/>
<path d="M11.14 26.1298H12.28V24.9898H14.56V27.8398H12.28V28.9798H14.56V31.2598H15.7V24.9798H16.84V23.8398H8.84998V24.9798H11.13V26.1198L11.14 26.1298Z" fill="#383F51"/>
</svg>
