<svg width="45" height="45" viewBox="0 0 45 45" fill="none" xmlns="http://www.w3.org/2000/svg">
<path d="M22.3379 7.00668C18.3997 6.88882 14.5751 8.33547 11.7007 11.0302C8.82634 13.7249 7.1362 17.4483 7 21.3859C7 21.5468 7.06392 21.7012 7.1777 21.8149C7.29149 21.9287 7.44581 21.9926 7.60672 21.9926C7.76763 21.9926 7.92195 21.9287 8.03573 21.8149C8.14952 21.7012 8.21344 21.5468 8.21344 21.3859C8.3526 17.7712 9.91578 14.3582 12.5619 11.8917C15.208 9.42514 18.7223 8.10529 22.3379 8.22012C26.0903 8.22012 29.6891 9.71078 32.3425 12.3642C34.9959 15.0176 36.4866 18.6163 36.4866 22.3688C36.4866 26.1213 34.9959 29.7201 32.3425 32.3735C29.6891 35.0268 26.0903 36.5175 22.3379 36.5175C19.6257 36.5778 16.9568 35.8301 14.6707 34.3694C12.3846 32.9087 10.5846 30.8011 9.49968 28.3147C9.43532 28.1666 9.31478 28.0502 9.16459 27.9911C9.0144 27.9319 8.84685 27.9348 8.69881 27.9992C8.55078 28.0635 8.43437 28.1841 8.3752 28.3343C8.31604 28.4845 8.31896 28.652 8.38332 28.8C9.56038 31.5055 11.5159 33.7995 14.001 35.3899C16.486 36.9803 19.3882 37.7953 22.3379 37.7309C26.4122 37.7309 30.3196 36.1124 33.2005 33.2315C36.0815 30.3505 37.7 26.4431 37.7 22.3688C37.7 18.2945 36.0815 14.3871 33.2005 11.5061C30.3196 8.62518 26.4122 7.00668 22.3379 7.00668Z" fill="#373F51"/>
<path d="M8.56529 25.7179L8.32261 24.2254C8.31086 24.1468 8.28349 24.0714 8.24212 24.0036C8.20076 23.9358 8.14623 23.877 8.08176 23.8306C8.01729 23.7843 7.94418 23.7513 7.86676 23.7336C7.78933 23.716 7.70915 23.714 7.63095 23.7278C7.55167 23.738 7.47532 23.7643 7.40666 23.8052C7.33799 23.846 7.27847 23.9006 7.23181 23.9655C7.18514 24.0304 7.15233 24.1042 7.1354 24.1823C7.11848 24.2604 7.11781 24.3411 7.13344 24.4195L7.37612 25.912C7.39669 26.0546 7.46831 26.1848 7.57766 26.2786C7.68702 26.3723 7.82668 26.4232 7.97071 26.4217H8.06778C8.14756 26.4101 8.22413 26.3823 8.29285 26.3402C8.36158 26.298 8.42101 26.2424 8.46755 26.1765C8.51408 26.1107 8.54674 26.0361 8.56354 25.9573C8.58035 25.8784 8.58094 25.797 8.56529 25.7179Z" fill="#373F51"/>
<path d="M22.3379 33.9323C24.625 33.9323 26.8608 33.2541 28.7625 31.9835C30.6642 30.7128 32.1464 28.9067 33.0217 26.7937C33.8969 24.6806 34.1259 22.3554 33.6797 20.1122C33.2335 17.869 32.1322 15.8085 30.5149 14.1912C28.8976 12.574 26.8371 11.4726 24.5939 11.0264C22.3507 10.5802 20.0256 10.8092 17.9125 11.6845C15.7994 12.5597 13.9934 14.0419 12.7227 15.9436C11.452 17.8453 10.7738 20.0811 10.7738 22.3683C10.7738 25.4353 11.9922 28.3766 14.1608 30.5453C16.3295 32.714 19.2709 33.9323 22.3379 33.9323ZM17.4841 16.4346C17.4841 16.2736 17.548 16.1193 17.6618 16.0055C17.7756 15.8918 17.9299 15.8278 18.0908 15.8278C18.2518 15.8278 18.4061 15.8918 18.5199 16.0055C18.6336 16.1193 18.6976 16.2736 18.6976 16.4346V23.5089H26.6456L24.5827 21.4461C24.5259 21.3897 24.4807 21.3226 24.4499 21.2486C24.4191 21.1747 24.4033 21.0954 24.4033 21.0153C24.4033 20.9352 24.4191 20.8559 24.4499 20.782C24.4807 20.708 24.5259 20.6409 24.5827 20.5845C24.6962 20.4734 24.8486 20.4111 25.0074 20.4111C25.1663 20.4111 25.3187 20.4734 25.4321 20.5845L28.5385 23.6788C28.5972 23.7353 28.6436 23.8032 28.6749 23.8783C28.7062 23.9535 28.7217 24.0342 28.7206 24.1156C28.7215 24.1952 28.7058 24.2741 28.6745 24.3472C28.6431 24.4204 28.5968 24.4862 28.5385 24.5403L25.4321 27.6346C25.3777 27.6926 25.3119 27.7389 25.2388 27.7705C25.1658 27.8021 25.087 27.8185 25.0074 27.8185C24.9278 27.8185 24.8491 27.8021 24.776 27.7705C24.703 27.7389 24.6372 27.6926 24.5827 27.6346C24.5259 27.5782 24.4807 27.5111 24.4499 27.4372C24.4191 27.3632 24.4033 27.2839 24.4033 27.2038C24.4033 27.1237 24.4191 27.0444 24.4499 26.9705C24.4807 26.8966 24.5259 26.8295 24.5827 26.7731L26.6456 24.7223H18.1515C17.9916 24.7192 17.839 24.6543 17.7259 24.5412C17.6128 24.4281 17.5479 24.2756 17.5448 24.1156L17.4841 16.4346Z" fill="#373F51"/>
</svg>
