<svg width="45" height="45" viewBox="0 0 45 45" fill="none" xmlns="http://www.w3.org/2000/svg">
<path fill-rule="evenodd" clip-rule="evenodd" d="M33.289 22.4999C33.2887 20.59 32.7815 18.7145 31.8191 17.0648C30.8567 15.4152 29.4737 14.0505 27.8113 13.1103C26.1489 12.1701 24.2667 11.6881 22.357 11.7134C20.4473 11.7386 18.5786 12.2704 16.9417 13.2543C15.3048 14.2382 13.9584 15.639 13.04 17.3136C12.1217 18.9881 11.6643 20.8764 11.7146 22.7856C11.7649 24.6948 12.3211 26.5564 13.3264 28.1803C14.3317 29.8041 15.75 31.132 17.4365 32.0284C16.2724 32.99 15.4063 34.2634 14.9398 35.6994C13.9938 35.7888 13.11 36.2104 12.4453 36.8894C12.2174 37.1173 11.9082 37.2454 11.5858 37.2454C11.2635 37.2454 10.9543 37.1173 10.7264 36.8894L8.11031 34.2732C7.99744 34.1603 7.90791 34.0263 7.84682 33.8788C7.78573 33.7314 7.75429 33.5733 7.75429 33.4137C7.75429 33.2541 7.78573 33.096 7.84682 32.9485C7.90791 32.8011 7.99744 32.6671 8.11031 32.5542C10.6863 29.9783 8.85841 25.5647 5.21522 25.5647C4.89297 25.5648 4.58391 25.4368 4.35602 25.2089C4.12812 24.9811 4.00006 24.6721 4 24.3498V20.6499C3.99999 20.4903 4.03142 20.3323 4.09248 20.1848C4.15355 20.0374 4.24306 19.9034 4.35591 19.7906C4.46875 19.6777 4.60272 19.5882 4.75016 19.5271C4.8976 19.4661 5.05563 19.4347 5.21522 19.4347C8.85841 19.4347 10.6863 15.0211 8.11031 12.4452C7.99743 12.3323 7.90789 12.1983 7.8468 12.0509C7.7857 11.9034 7.75426 11.7453 7.75426 11.5857C7.75426 11.4261 7.7857 11.268 7.8468 11.1206C7.90789 10.9731 7.99743 10.8391 8.11031 10.7262L10.7266 8.10997C10.8395 7.9971 10.9735 7.90757 11.1209 7.84648C11.2684 7.78539 11.4265 7.75395 11.5861 7.75395C11.7457 7.75395 11.9038 7.78539 12.0512 7.84648C12.1987 7.90757 12.3327 7.9971 12.4456 8.10997C15.0215 10.6858 19.4351 8.85768 19.4351 5.21482C19.4352 4.89264 19.5632 4.58368 19.791 4.35588C20.0188 4.12807 20.3278 4.00006 20.65 4H24.35C24.5096 3.99999 24.6676 4.03142 24.8151 4.09248C24.9625 4.15355 25.0965 4.24306 25.2093 4.3559C25.3222 4.46875 25.4117 4.60272 25.4727 4.75016C25.5338 4.8976 25.5652 5.05562 25.5652 5.21521C25.5652 8.85837 29.9789 10.6862 32.5548 8.11036C32.6676 7.99749 32.8016 7.90795 32.9491 7.84687C33.0966 7.78578 33.2546 7.75434 33.4142 7.75434C33.5739 7.75434 33.7319 7.78578 33.8794 7.84687C34.0269 7.90795 34.1608 7.99749 34.2737 8.11036L36.89 10.7266C37.1179 10.9546 37.246 11.2637 37.246 11.5861C37.246 11.9085 37.1179 12.2176 36.89 12.4456C34.314 15.0214 36.1419 19.435 39.7851 19.435C40.1073 19.4351 40.4162 19.5631 40.6441 19.7909C40.8719 20.0187 40.9999 20.3277 41 20.6499V24.3498C41 24.5094 40.9686 24.6675 40.9075 24.8149C40.8465 24.9623 40.7569 25.0963 40.6441 25.2091C40.5312 25.322 40.3973 25.4115 40.2498 25.4726C40.1024 25.5336 39.9444 25.5651 39.7848 25.5651C36.1416 25.5651 34.3137 29.9787 36.8897 32.5545C37.1176 32.7825 37.2456 33.0916 37.2456 33.414C37.2456 33.7364 37.1176 34.0455 36.8897 34.2735L34.2734 36.8897C34.0454 37.1177 33.7363 37.2457 33.4139 37.2457C33.0916 37.2457 32.7824 37.1177 32.5544 36.8897C31.8899 36.2112 31.0063 35.7903 30.0606 35.7019C29.5943 34.2649 28.7279 32.9907 27.5631 32.0286C29.2927 31.1097 30.7394 29.7374 31.7481 28.0587C32.7569 26.38 33.2895 24.4583 33.289 22.4999ZM28.5356 18.952L27.9916 20.3338C27.9812 20.3614 27.963 20.3852 27.9392 20.4025C27.9154 20.4198 27.887 20.4298 27.8576 20.4312L26.3758 20.5217C26.3449 20.5236 26.3153 20.5347 26.2909 20.5537C26.2664 20.5726 26.2482 20.5985 26.2387 20.6279C26.2291 20.6573 26.2286 20.689 26.2373 20.7187C26.2459 20.7484 26.2633 20.7748 26.2872 20.7945L27.4328 21.7387C27.4557 21.7572 27.4728 21.7819 27.4819 21.8099C27.491 21.8379 27.4917 21.8679 27.484 21.8963L27.1121 23.3336C27.1045 23.3635 27.106 23.3951 27.1164 23.4242C27.1269 23.4533 27.1459 23.4785 27.1709 23.4967C27.196 23.5148 27.2259 23.525 27.2568 23.526C27.2877 23.5269 27.3181 23.5185 27.3442 23.5019L28.5962 22.7041C28.6208 22.688 28.6496 22.6794 28.6791 22.6794C28.7085 22.6794 28.7373 22.688 28.7619 22.7041L30.0139 23.5019C30.04 23.5186 30.0705 23.5269 30.1015 23.526C30.1324 23.5251 30.1623 23.5148 30.1874 23.4966C30.2124 23.4785 30.2314 23.4532 30.2418 23.424C30.2523 23.3949 30.2538 23.3633 30.246 23.3334L29.8742 21.8961C29.8664 21.8677 29.8672 21.8376 29.8763 21.8097C29.8854 21.7817 29.9024 21.7569 29.9254 21.7385L31.071 20.7942C31.0948 20.7746 31.1122 20.7482 31.1209 20.7185C31.1295 20.6888 31.1291 20.6571 31.1195 20.6277C31.11 20.5983 31.0918 20.5724 31.0673 20.5535C31.0429 20.5345 31.0133 20.5234 30.9824 20.5215L29.5005 20.431C29.4711 20.4295 29.4428 20.4196 29.419 20.4023C29.3952 20.385 29.3769 20.3611 29.3665 20.3336L28.8225 18.9522C28.8112 18.9234 28.7914 18.8987 28.7659 18.8812C28.7403 18.8638 28.71 18.8545 28.6791 18.8545C28.6481 18.8545 28.6179 18.8638 28.5923 18.8812C28.5667 18.8987 28.547 18.9234 28.5356 18.9522V18.952ZM16.1774 18.952L15.6334 20.3338C15.623 20.3613 15.6048 20.3852 15.581 20.4025C15.5572 20.4198 15.5288 20.4298 15.4994 20.4312L14.0176 20.5217C13.9867 20.5236 13.9571 20.5347 13.9327 20.5537C13.9082 20.5726 13.89 20.5985 13.8804 20.6279C13.8709 20.6573 13.8704 20.689 13.879 20.7187C13.8877 20.7484 13.9051 20.7748 13.929 20.7945L15.0746 21.7387C15.0975 21.7572 15.1146 21.7819 15.1237 21.8099C15.1328 21.8379 15.1335 21.8679 15.1257 21.8963L14.7539 23.3336C14.7462 23.3635 14.7477 23.3951 14.7582 23.4242C14.7687 23.4533 14.7877 23.4785 14.8127 23.4967C14.8377 23.5148 14.8676 23.525 14.8985 23.526C14.9294 23.5269 14.9599 23.5185 14.986 23.5019L16.2381 22.7041C16.2627 22.688 16.2915 22.6794 16.3209 22.6794C16.3503 22.6794 16.3791 22.688 16.4037 22.7041L17.6557 23.5019C17.6818 23.5186 17.7123 23.5269 17.7432 23.526C17.7742 23.5251 17.8041 23.5148 17.8291 23.4966C17.8542 23.4785 17.8732 23.4532 17.8836 23.424C17.8941 23.3949 17.8955 23.3633 17.8878 23.3334L17.5159 21.8961C17.5082 21.8677 17.5089 21.8376 17.518 21.8097C17.5271 21.7817 17.5442 21.7569 17.5671 21.7385L18.7128 20.7942C18.7367 20.7746 18.7541 20.7481 18.7627 20.7184C18.7714 20.6887 18.7709 20.6571 18.7613 20.6277C18.7518 20.5983 18.7336 20.5724 18.7091 20.5534C18.6847 20.5345 18.6551 20.5233 18.6242 20.5215L17.1427 20.4308C17.1133 20.4294 17.085 20.4194 17.0611 20.4021C17.0373 20.3848 17.0191 20.361 17.0087 20.3334L16.4644 18.952C16.453 18.9232 16.4333 18.8985 16.4077 18.8811C16.3821 18.8637 16.3519 18.8544 16.3209 18.8544C16.29 18.8544 16.2597 18.8637 16.2341 18.8811C16.2086 18.8985 16.1887 18.9232 16.1774 18.952ZM22.3565 14.159L21.8126 15.5404C21.8021 15.5679 21.7839 15.5918 21.7601 15.6091C21.7363 15.6264 21.7079 15.6364 21.6785 15.6378L20.1967 15.7282C20.1658 15.7301 20.1362 15.7412 20.1118 15.7602C20.0873 15.7791 20.0691 15.805 20.0595 15.8345C20.0499 15.8639 20.0495 15.8955 20.0581 15.9253C20.0668 15.955 20.0842 15.9814 20.1081 16.0011L21.2537 16.9453C21.2767 16.9637 21.2937 16.9884 21.3028 17.0164C21.3119 17.0444 21.3126 17.0744 21.3049 17.1028L20.933 18.5401C20.9253 18.5701 20.9268 18.6017 20.9372 18.6308C20.9477 18.6599 20.9667 18.6852 20.9917 18.7034C21.0168 18.7216 21.0467 18.7318 21.0776 18.7328C21.1085 18.7337 21.139 18.7253 21.1651 18.7087L22.4171 17.911C22.4417 17.8948 22.4705 17.8862 22.5 17.8862C22.5294 17.8862 22.5582 17.8948 22.5828 17.911L23.8349 18.7087C23.861 18.7253 23.8915 18.7337 23.9224 18.7328C23.9533 18.7318 23.9832 18.7216 24.0083 18.7034C24.0333 18.6852 24.0523 18.6599 24.0628 18.6308C24.0732 18.6017 24.0747 18.5701 24.067 18.5401L23.6948 17.1028C23.6871 17.0744 23.6878 17.0444 23.6969 17.0164C23.706 16.9884 23.723 16.9637 23.746 16.9453L24.8916 16.0011C24.9155 15.9814 24.9329 15.955 24.9416 15.9253C24.9502 15.8955 24.9498 15.8639 24.9402 15.8345C24.9306 15.805 24.9124 15.7791 24.8879 15.7602C24.8635 15.7412 24.8338 15.7301 24.8029 15.7282L23.3211 15.6378C23.2917 15.6364 23.2633 15.6264 23.2395 15.6091C23.2157 15.5918 23.1975 15.5679 23.187 15.5404L22.6431 14.159C22.6317 14.1303 22.612 14.1056 22.5864 14.0882C22.5608 14.0708 22.5306 14.0614 22.4997 14.0614C22.4687 14.0614 22.4385 14.0708 22.4129 14.0882C22.3873 14.1056 22.3676 14.1303 22.3562 14.159H22.3565ZM29.3691 38.1549C29.3697 37.028 29.0928 35.9182 28.5628 34.9237C28.0328 33.9292 27.266 33.0805 26.3302 32.4527C26.288 32.424 26.2405 32.4041 26.1905 32.394C26.1404 32.3839 26.0889 32.3838 26.0389 32.3939C25.9888 32.4039 25.9413 32.4239 25.8991 32.4525C25.8568 32.4811 25.8207 32.5179 25.7928 32.5606L22.5 37.5751L19.2072 32.5608C19.1793 32.518 19.1432 32.4812 19.1009 32.4526C19.0587 32.424 19.0112 32.4041 18.9611 32.394C18.9111 32.384 18.8596 32.384 18.8095 32.3941C18.7595 32.4042 18.712 32.4242 18.6698 32.4529C17.734 33.0807 16.9672 33.9293 16.4372 34.9238C15.9072 35.9183 15.6303 37.028 15.631 38.1549C15.631 41.9484 29.3691 41.9484 29.3691 38.1549ZM21.8814 31.2861H21.7088C21.6289 31.2858 21.55 31.3045 21.4788 31.3407C21.4075 31.3768 21.3458 31.4294 21.2988 31.4941C21.2518 31.5587 21.2209 31.6336 21.2085 31.7126C21.1961 31.7916 21.2027 31.8723 21.2277 31.9483L21.4671 32.6851C21.5006 32.7907 21.568 32.8823 21.6589 32.9457L21.5047 34.0943L22.5 35.6091L23.4951 34.0938L23.3409 32.9453C23.4318 32.8818 23.4992 32.7902 23.5327 32.6846L23.7721 31.9477C23.7971 31.8718 23.8037 31.791 23.7913 31.712C23.7789 31.6331 23.748 31.5582 23.701 31.4935C23.654 31.4288 23.5923 31.3763 23.521 31.3401C23.4497 31.3039 23.3709 31.2852 23.291 31.2855L21.8814 31.2861ZM19.3252 26.2818C19.3251 26.9097 19.5113 27.5235 19.8602 28.0456C20.209 28.5678 20.7048 28.9747 21.2849 29.215C21.8651 29.4553 22.5034 29.5182 23.1193 29.3957C23.7352 29.2733 24.3009 28.9709 24.7449 28.5269C25.1889 28.0829 25.4913 27.5172 25.6138 26.9014C25.7363 26.2855 25.6735 25.6471 25.4332 25.067C25.1929 24.4869 24.786 23.991 24.2639 23.6422C23.7418 23.2933 23.1279 23.1071 22.5 23.1071C21.6581 23.1071 20.8506 23.4415 20.2552 24.0368C19.6598 24.6321 19.3253 25.4395 19.3252 26.2815V26.2818Z" fill="#373F51"/>
</svg>
