<svg width="45" height="45" viewBox="0 0 45 45" fill="none" xmlns="http://www.w3.org/2000/svg">
<path fill-rule="evenodd" clip-rule="evenodd" d="M9.57161 8.69818H11.6206C11.7539 8.6975 11.8816 8.64638 11.9758 8.55593C12.0701 8.46549 12.1233 8.34302 12.1241 8.21511V5.7307L9.57161 8.6984V8.69818ZM25.9629 11.8913C25.8951 11.8921 25.8279 11.88 25.7651 11.8556C25.7023 11.8313 25.6452 11.7953 25.597 11.7496C25.5488 11.7039 25.5106 11.6495 25.4844 11.5896C25.4583 11.5296 25.4449 11.4653 25.4449 11.4003C25.4449 11.3353 25.4583 11.271 25.4844 11.211C25.5106 11.151 25.5488 11.0966 25.597 11.051C25.6452 11.0053 25.7023 10.9693 25.7651 10.9449C25.8279 10.9206 25.8951 10.9085 25.9629 10.9093H31.786C31.9206 10.9109 32.0491 10.9633 32.1438 11.0552C32.2384 11.1471 32.2914 11.2711 32.2914 11.4003C32.2914 11.5295 32.2384 11.6535 32.1438 11.7454C32.0491 11.8373 31.9206 11.8897 31.786 11.8913H25.9629ZM16.8819 18.3596L16.8809 18.3588L16.8779 18.3615C15.5249 19.6317 14.7514 21.3645 14.7266 23.1806C14.7019 24.9968 15.428 26.7484 16.7459 28.0521C16.7535 28.0583 16.7603 28.0648 16.7673 28.0714L16.7664 28.0724L16.7692 28.0753C18.093 29.3736 19.8989 30.1158 21.7916 30.1395C23.6843 30.1633 25.5098 29.4666 26.8684 28.2019C26.8749 28.195 26.8816 28.1881 26.8885 28.1814L26.8896 28.1822L26.8925 28.1795C28.2456 26.9093 29.0191 25.1765 29.0439 23.3604C29.0686 21.5442 28.3426 19.7926 27.0246 18.4889C27.017 18.4827 27.0102 18.4763 27.0032 18.4696L27.0042 18.4686L27.0013 18.4658C25.6775 17.1675 23.8717 16.4252 21.9789 16.4015C20.0862 16.3777 18.2607 17.0744 16.9021 18.3391C16.8955 18.3461 16.8889 18.3529 16.8819 18.3596ZM16.1583 17.6653C16.1694 17.6546 16.1811 17.6446 16.1928 17.6351C17.7448 16.1921 19.8287 15.397 21.9896 15.4234C24.1504 15.4499 26.2126 16.2957 27.7257 17.7762L27.7267 17.7752C27.7379 17.786 27.7483 17.7971 27.7582 17.8084C29.2621 19.2975 30.0907 21.2972 30.0632 23.3706C30.0356 25.4441 29.1541 27.4228 27.6112 28.8746L27.6122 28.8756C27.6009 28.8865 27.5894 28.8964 27.5775 28.9059C26.0256 30.3489 23.9417 31.1441 21.7809 31.1176C19.62 31.0912 17.5579 30.2454 16.0448 28.7649L16.0438 28.7659C16.0325 28.7551 16.0221 28.744 16.0122 28.7326C14.5083 27.2435 13.6797 25.2438 13.7072 23.1704C13.7348 21.0969 14.6163 19.1182 16.1593 17.6663L16.1583 17.6653ZM21.9864 14.2091C23.7046 14.2276 25.385 14.6954 26.8467 15.5621C28.3084 16.4288 29.4961 17.6616 30.2819 19.1279C31.0678 20.5941 31.422 22.2382 31.3064 23.8833C31.1909 25.5283 30.61 27.112 29.6262 28.4638C29.5581 28.5574 29.5262 28.6709 29.5362 28.7846C29.5461 28.8984 29.5972 29.0053 29.6806 29.0867L30.8216 30.205L30.8206 30.206L30.8343 30.2185C30.8909 30.283 30.9201 30.3656 30.9158 30.4498C30.9116 30.534 30.8743 30.6135 30.8115 30.6725L30.8086 30.6752L30.8076 30.6744C30.8 30.6817 30.7924 30.689 30.7855 30.6969L29.4078 31.9913C29.3417 32.0525 29.2531 32.0862 29.1613 32.0849C29.0695 32.0837 28.9819 32.0477 28.9176 31.9847L27.7796 30.8691C27.6945 30.7861 27.5815 30.735 27.4607 30.7247C27.3399 30.7145 27.2193 30.7458 27.1204 30.8131C25.8899 31.5995 24.4842 32.0977 23.0164 32.2677C21.5487 32.4376 20.0598 32.2745 18.6697 31.7915C17.2796 31.3086 16.0271 30.5192 15.013 29.4869C13.9988 28.4547 13.2514 27.2084 12.8309 25.8483C12.4104 24.4883 12.3285 23.0526 12.5918 21.6566C12.8551 20.2607 13.4563 18.9436 14.347 17.8113C15.2376 16.679 16.3929 15.7632 17.7198 15.1375C19.0466 14.5118 20.5081 14.1938 21.9864 14.209V14.2091ZM34.9408 33.6125L32.7559 35.6652L32.3868 36.0119C32.3485 36.0479 32.3264 36.0969 32.3256 36.1483C32.3247 36.1997 32.3451 36.2494 32.3822 36.2865L32.8726 36.7671C32.8919 36.7833 32.9098 36.8009 32.9263 36.8197L35.6952 39.534C35.9963 39.8277 36.4064 39.9953 36.8359 39.9999C37.2653 40.0045 37.6792 39.846 37.9872 39.5588L38.5144 39.0635C38.8205 38.7745 38.995 38.381 38.9999 37.9689C39.0048 37.5569 38.8395 37.1597 38.5403 36.8641L35.2524 33.6416C35.2448 33.6349 35.2366 33.6279 35.2289 33.6206L35.2299 33.6196L35.2269 33.6167C35.2138 33.6038 35.1988 33.5926 35.1825 33.5836C35.1685 33.5784 35.1549 33.5727 35.1416 33.5665C35.1233 33.561 35.1042 33.5581 35.085 33.5579C35.0381 33.5572 34.9923 33.572 34.9554 33.5999L34.9448 33.6103L34.9439 33.6094L34.9408 33.6122V33.6125ZM32.4056 34.6239L33.4923 33.6031L31.3677 31.521L30.281 32.5418L32.4055 34.6239H32.4056ZM31.6708 35.3142C31.4914 35.4843 31.3709 35.7034 31.3257 35.9415C31.2805 36.1796 31.3127 36.4254 31.4181 36.6453H9.50344C9.43741 36.6452 9.37204 36.6326 9.3111 36.6081C9.25017 36.5837 9.19485 36.548 9.14834 36.503C9.1418 36.4968 9.13511 36.4908 9.12835 36.4849C9.04539 36.3963 8.99965 36.2814 9 36.1623V9.68015H11.6206C12.0253 9.67942 12.4132 9.52483 12.6994 9.25024C12.9856 8.97565 13.1467 8.60344 13.1474 8.21511V5H34.3514C34.4175 5.00012 34.4828 5.01276 34.5438 5.03718C34.6047 5.06161 34.66 5.09734 34.7065 5.14233C34.7128 5.14824 34.7191 5.15407 34.7255 5.15961C34.8088 5.24843 34.8548 5.36369 34.8547 5.48315V32.5997C34.6343 32.639 34.4296 32.736 34.263 32.88C34.2484 32.8912 34.2344 32.9033 34.2211 32.916L34.2221 32.9169L34.2212 32.9178L31.9153 30.658C31.9278 30.5882 31.9344 30.5175 31.9352 30.4466C31.9392 30.1157 31.8124 29.7957 31.5803 29.551C31.5688 29.5375 31.5567 29.5245 31.5439 29.5122L31.5429 29.5131L30.6982 28.6854C32.0833 26.6088 32.6234 24.1156 32.2155 21.6813C31.8075 19.2471 30.4801 17.0421 28.4864 15.4868C26.4926 13.9315 23.972 13.1348 21.4052 13.2486C18.8385 13.3624 16.4052 14.3787 14.5694 16.1038C12.7335 17.8288 11.6237 20.1419 11.4514 22.6019C11.2791 25.0619 12.0565 27.4967 13.6353 29.4419C15.214 31.3871 17.4838 32.7067 20.0116 33.149C22.5394 33.5913 25.1484 33.1254 27.3411 31.84L28.19 32.6719C28.3419 32.8195 28.5281 32.9307 28.7333 32.9963C28.9385 33.0619 29.1569 33.08 29.3708 33.0492L31.6765 35.3089L31.6708 35.3141V35.3142ZM19.5949 23.6128C19.484 23.5381 19.4087 23.4241 19.3854 23.296C19.3621 23.1679 19.3928 23.0362 19.4708 22.9299C19.5487 22.8235 19.6674 22.7512 19.8009 22.7289C19.9344 22.7065 20.0717 22.736 20.1825 22.8108L21.4052 23.6404L23.5062 21.4415C23.5974 21.3459 23.7244 21.2889 23.8594 21.2832C23.9943 21.2774 24.1262 21.3234 24.2258 21.4109C24.3255 21.4984 24.3848 21.6203 24.3908 21.7498C24.3968 21.8792 24.349 22.0057 24.2578 22.1014L21.8777 24.5927C21.7968 24.6911 21.6797 24.7561 21.5504 24.7742C21.4212 24.7923 21.2896 24.7623 21.1827 24.6902L19.5945 23.6128L19.5949 23.6128ZM19.0987 26.0219C18.3604 25.1011 17.9586 23.9726 17.9554 22.8108V20.3244L21.8853 19.2377L25.8156 20.3246V22.811C25.8124 23.9728 25.4105 25.1012 24.6722 26.0219C23.9711 26.9013 22.9942 27.5415 21.8853 27.8482C20.7766 27.5414 19.7998 26.9012 19.0987 26.0219ZM21.7464 28.8266C20.3714 28.4796 19.1558 27.7034 18.2913 26.6203C17.4144 25.5282 16.9367 24.1894 16.932 22.8108V19.9575C16.932 19.8428 16.9739 19.7316 17.0504 19.6434C17.1269 19.5552 17.2332 19.4955 17.3508 19.4746L21.7457 18.2592C21.8398 18.2333 21.9396 18.2341 22.0332 18.2613L26.4676 19.4876C26.574 19.5168 26.6676 19.5784 26.7343 19.6632C26.8009 19.748 26.837 19.8513 26.8371 19.9575H26.8393V22.811C26.8346 24.1896 26.357 25.5284 25.4801 26.6204C24.6131 27.7066 23.3932 28.4842 22.0136 28.8298C21.9259 28.8517 21.8336 28.8507 21.7464 28.8269V28.8266ZM27.456 9.82307H31.7862C31.9208 9.82149 32.0494 9.76907 32.144 9.67717C32.2386 9.58526 32.2917 9.46128 32.2917 9.33208C32.2917 9.20289 32.2386 9.07891 32.144 8.987C32.0494 8.8951 31.9208 8.84268 31.7862 8.8411H27.4556C27.3879 8.84031 27.3207 8.85242 27.2579 8.87674C27.1951 8.90106 27.1379 8.9371 27.0897 8.98277C27.0416 9.02844 27.0033 9.08284 26.9772 9.1428C26.9511 9.20276 26.9377 9.2671 26.9377 9.33208C26.9377 9.39707 26.9511 9.46141 26.9772 9.52137C27.0033 9.58133 27.0416 9.63573 27.0897 9.6814C27.1379 9.72707 27.1951 9.76311 27.2579 9.78743C27.3207 9.81175 27.3879 9.82386 27.4556 9.82307H27.456Z" fill="#383F51"/>
</svg>
