<svg width="45" height="45" viewBox="0 0 45 45" fill="none" xmlns="http://www.w3.org/2000/svg">
<path fill-rule="evenodd" clip-rule="evenodd" d="M17.0292 13.8062L14.0938 16.29L17.0292 18.7739V13.8062Z" fill="#373F51"/>
<path fill-rule="evenodd" clip-rule="evenodd" d="M17.0292 26.2666L14.0938 28.7505L17.0292 31.2343V26.2666Z" fill="#373F51"/>
<path fill-rule="evenodd" clip-rule="evenodd" d="M22.4897 40.041C12.8622 40.041 5 32.1583 5 22.5308C5 12.8622 12.8622 5 22.4897 5C32.1583 5 40 12.8622 40 22.5102C40.0205 32.1583 32.1583 40.041 22.4897 40.041ZM22.695 37.3519C22.4692 37.3519 22.305 37.1876 22.305 36.9618C22.305 36.736 22.4692 36.5513 22.695 36.5308C24.0293 36.4897 25.3431 36.3049 26.6363 35.9354C26.8621 35.8739 27.088 35.9765 27.1495 36.2228C27.1906 36.4486 27.088 36.6745 26.8621 36.736C25.5278 37.1261 24.1114 37.3313 22.695 37.3519ZM18.651 36.8387C18.61 36.8387 18.5689 36.8387 18.5278 36.8181C17.173 36.4486 15.8798 35.8739 14.6891 35.1349C14.4839 35.0117 14.4223 34.7654 14.5454 34.5601C14.6481 34.3548 14.9149 34.3137 15.1202 34.4164C16.2493 35.1349 17.4809 35.6686 18.7537 36.0176C19 36.0791 19.1026 36.3049 19.041 36.5308C19 36.736 18.8152 36.8387 18.651 36.8387ZM30.4545 34.9912C30.3108 34.9912 30.1877 34.9296 30.1055 34.8269C30.0029 34.6217 30.0234 34.3548 30.2287 34.2522C31.3372 33.5132 32.3225 32.6305 33.1847 31.6246C33.3284 31.4604 33.5953 31.4193 33.7595 31.563C33.9237 31.7067 33.9648 31.9736 33.8211 32.1378C32.8973 33.2258 31.8504 34.1701 30.6803 34.9296C30.5982 34.9501 30.5161 34.9912 30.4545 34.9912ZM11.7742 32.5689C11.6715 32.5689 11.5484 32.5073 11.4663 32.4252C10.522 31.3783 9.7214 30.2082 9.1261 28.9149C9.04398 28.7097 9.1261 28.4633 9.33137 28.3812C9.51612 28.2991 9.78299 28.3812 9.8651 28.566C10.4399 29.7771 11.1789 30.8856 12.0821 31.8915C12.2258 32.0557 12.2258 32.302 12.0616 32.4457C11.9589 32.5278 11.8563 32.5689 11.7742 32.5689ZM35.6891 28.8123C35.6481 28.8123 35.5865 28.8123 35.5249 28.7712C35.3196 28.6891 35.217 28.4223 35.3196 28.2375C35.8739 27.0058 36.2434 25.7331 36.4076 24.4193C36.4281 24.1935 36.6334 24.0498 36.8592 24.0704C37.085 24.0909 37.2287 24.2962 37.2082 24.522C37.0029 25.9179 36.6334 27.2932 36.0586 28.566C35.9765 28.7097 35.8328 28.8123 35.6891 28.8123ZM8.26393 25.261C8.07918 25.261 7.89442 25.1173 7.8739 24.9325C7.75073 24.1319 7.66862 23.3314 7.66862 22.5308C7.66862 21.9355 7.70967 21.2991 7.79179 20.7449C7.81231 20.4985 8.01759 20.3343 8.2434 20.3548C8.4692 20.3959 8.63343 20.6012 8.6129 20.827C8.55132 21.3812 8.48973 21.956 8.48973 22.5308C8.48973 23.3108 8.55132 24.0498 8.67448 24.7888C8.69501 25.0146 8.55132 25.2199 8.32551 25.261C8.30498 25.261 8.30498 25.261 8.26393 25.261ZM36.7771 20.7859C36.5718 20.7859 36.4076 20.6422 36.3871 20.4575C36.1818 19.1437 35.8123 17.8504 35.2375 16.6393C35.1554 16.434 35.2375 16.1671 35.4428 16.085C35.6481 16.0029 35.8944 16.085 35.9765 16.2903C36.5718 17.563 36.9824 18.9179 37.1671 20.3138C37.2082 20.5396 37.0645 20.7449 36.8387 20.7654C36.7976 20.7859 36.7976 20.7859 36.7771 20.7859ZM9.24926 17.2346C9.18768 17.2346 9.1261 17.2346 9.06451 17.1935C8.87976 17.1114 8.75659 16.8651 8.83871 16.6598C9.41348 15.3666 10.132 14.1554 11.0352 13.0674C11.1789 12.9032 11.4457 12.8622 11.61 13.0059C11.7742 13.1496 11.8152 13.4164 11.6715 13.5806C10.8094 14.607 10.132 15.7566 9.57771 16.9677C9.55718 17.1525 9.41348 17.2346 9.24926 17.2346ZM33.39 13.4369C33.2668 13.4369 33.1642 13.3754 33.0821 13.2932C32.1789 12.2874 31.1935 11.4047 30.044 10.7067C29.8592 10.5836 29.7976 10.3372 29.9413 10.132C30.044 9.92668 30.3108 9.8651 30.5161 10.0088C31.7067 10.7888 32.7536 11.6921 33.6979 12.7595C33.8416 12.9237 33.8416 13.1906 33.6774 13.3138C33.5542 13.4164 33.4721 13.4369 33.39 13.4369ZM14.4223 10.9941C14.2786 10.9941 14.1759 10.9325 14.0938 10.8094C13.9707 10.6246 14.0117 10.3578 14.1965 10.2551C15.3666 9.45454 16.6598 8.81818 17.9941 8.38709C18.2199 8.32551 18.4457 8.44868 18.5073 8.65395C18.5689 8.87976 18.4457 9.10557 18.2405 9.16715C16.9883 9.55718 15.7771 10.1525 14.6891 10.8915C14.566 10.9531 14.4839 10.9941 14.4223 10.9941ZM26.5542 9.08504C26.5132 9.08504 26.4516 9.08504 26.4311 9.04398C25.0352 8.65395 23.5777 8.44868 22.1202 8.51026C21.8944 8.51026 21.6891 8.32551 21.6891 8.0997C21.6891 7.8739 21.8739 7.68915 22.0997 7.68915C23.6393 7.64809 25.1789 7.85337 26.6569 8.28445C26.8827 8.32551 27.0058 8.57184 26.9443 8.79765C26.8827 8.96187 26.739 9.08504 26.5542 9.08504ZM27.9706 26.2668V31.2346L30.9061 28.7507L27.9706 26.2668ZM27.9706 13.8064V18.7742L30.9061 16.2903L27.9706 13.8064ZM20.3548 30.1055H17.8504V31.4604C17.8504 31.7067 17.7067 31.9325 17.4809 32.0557C17.3578 32.1173 17.2551 32.1378 17.173 32.1378C16.9472 32.1378 16.7009 32.0557 16.5572 31.912L13.5396 29.3665C13.3754 29.2228 13.2522 28.997 13.2522 28.7507C13.2522 28.4838 13.3754 28.258 13.5396 28.1143L16.5366 25.5894C16.7624 25.3841 17.173 25.261 17.4809 25.4457C17.7067 25.5484 17.8504 25.7742 17.8504 26.041V27.3959H20.3343C20.7654 27.3959 21.1349 27.0264 21.1349 26.6158V18.4457C21.1349 18.3841 21.1349 18.3226 21.1349 18.261C21.0528 17.9325 20.7243 17.6862 20.3548 17.6862H17.8504V19C17.8504 19.2463 17.7067 19.4721 17.4809 19.5953C17.3578 19.6569 17.2551 19.6569 17.173 19.6569C16.9472 19.6569 16.7009 19.5748 16.5572 19.4311L13.5396 16.9061C13.3754 16.783 13.2522 16.5366 13.2522 16.2903C13.2522 16.0234 13.3754 15.7976 13.5396 15.6539L16.5366 13.129C16.7624 12.9237 17.173 12.8006 17.4809 12.9853C17.7067 13.088 17.8504 13.3138 17.8504 13.5806V14.9765H20.3343C21.0938 14.9765 21.8534 15.2229 22.4692 15.695C23.0645 15.2023 23.8446 14.9149 24.6657 14.9149H27.1495V13.5806C27.1495 13.3138 27.2932 13.088 27.519 12.9853C27.827 12.8416 28.217 12.9443 28.4633 13.129L31.4399 15.6539C31.6246 15.7976 31.7272 16.0234 31.7272 16.2903C31.7272 16.5366 31.6246 16.783 31.4399 16.9061L28.4633 19.4516C28.2786 19.5748 28.0528 19.6569 27.827 19.6569C27.7038 19.6569 27.6011 19.6158 27.519 19.5953C27.2932 19.4721 27.1495 19.2463 27.1495 19V17.6657H24.6657C24.2346 17.6657 23.8651 18.0352 23.8651 18.4457V26.6158V26.78C23.9472 27.1085 24.2756 27.3753 24.6246 27.3753H27.1495V26.0616C27.1495 25.8152 27.2932 25.5894 27.519 25.4663C27.827 25.3226 28.217 25.4457 28.4633 25.6099L31.4399 28.1554C31.6246 28.2991 31.7272 28.5249 31.7272 28.7712C31.7272 29.0381 31.6246 29.2639 31.4399 29.4076L28.4633 31.9325C28.2786 32.0146 28.0528 32.1378 27.827 32.1378C27.7038 32.1378 27.6011 32.1173 27.519 32.0762C27.2932 31.9736 27.1495 31.7478 27.1495 31.4809V30.1055H24.6657C23.8856 30.1055 23.1261 29.8592 22.5102 29.3871C21.9149 29.8387 21.1759 30.1055 20.3548 30.1055ZM17.8504 29.3255H20.3343C21.0528 29.3255 21.6891 29.0381 22.1818 28.5865C22.1818 28.566 22.2023 28.566 22.2023 28.5454C22.7566 28.0322 23.044 27.3138 23.044 26.5748V18.4457C23.044 17.563 23.7419 16.8651 24.6246 16.8651H27.1085V15.7566H24.6657C23.9677 15.7566 23.3314 16.0029 22.8592 16.434C22.8387 16.4751 22.7976 16.5161 22.7771 16.5366C22.2434 17.0498 21.956 17.7683 21.956 18.5073V26.6158C21.956 27.4985 21.2375 28.1965 20.3548 28.1965H17.8504V29.3255ZM17.8504 16.8856H20.3343C20.7038 16.8856 21.0733 17.0293 21.3196 17.2551C21.4633 16.9061 21.6481 16.5777 21.8739 16.2903C21.4223 15.9824 20.868 15.7771 20.2932 15.7771H17.8504V16.8856ZM23.2492 28.607C23.2082 28.6686 23.1466 28.7507 23.1056 28.8123C23.5572 29.1202 24.0909 29.3255 24.6657 29.3255H27.1495V28.1965H24.6657C24.2962 28.1965 23.9267 28.0528 23.6598 27.827C23.5572 28.0938 23.434 28.3607 23.2492 28.607Z" fill="#373F51"/>
</svg>
