<svg width="45" height="45" viewBox="0 0 45 45" fill="none" xmlns="http://www.w3.org/2000/svg">
<path fill-rule="evenodd" clip-rule="evenodd" d="M23.5781 27.4759V30.3015C25.0098 30.7346 26.0808 32.0076 26.2281 33.5529C27.6827 33.2306 29.1299 33.9453 29.7957 35.2313C30.6239 34.5357 31.7829 34.3741 32.7719 34.8318C33.3218 33.4357 34.6736 32.4486 36.2544 32.4486C38.3231 32.4486 40 34.139 40 36.2243C40 38.3096 38.3231 40 36.2544 40H8.74559C6.67694 40 5 38.3096 5 36.2243C5 34.139 6.67694 32.4486 8.74559 32.4486C10.3263 32.4486 11.6782 33.4357 12.2281 34.8318C13.217 34.3741 14.3761 34.5357 15.2043 35.2313C15.8701 33.9452 17.3172 33.2306 18.7719 33.5529C18.9192 32.0076 19.9903 30.7346 21.4219 30.3015V27.4759H23.5781ZM25.2226 8.17933C23.5966 9.04542 21.4034 9.04534 19.7774 8.17933C20.3321 7.14418 21.0574 6.1563 21.983 5.21803C22.2698 4.92732 22.7303 4.92732 23.0171 5.21803C23.9427 6.1563 24.6679 7.14418 25.2227 8.17926L25.2226 8.17933ZM22.5 12.3048C23.7215 12.3048 24.7117 13.303 24.7117 14.5343C24.7117 15.7657 23.7215 16.7638 22.5 16.7638C21.2785 16.7638 20.2883 15.7656 20.2883 14.5343C20.2883 13.3031 21.2785 12.3048 22.5 12.3048ZM24.1776 26.7408C24.3421 26.7408 24.4816 26.6354 24.5276 26.4761C26.4838 19.7123 27.8124 13.7622 25.549 8.83601C23.7153 9.80632 21.2846 9.80632 19.4509 8.83601C17.1875 13.7622 18.5161 19.7123 20.4723 26.4761C20.5183 26.6353 20.6578 26.7408 20.8223 26.7408H24.1776ZM19.6151 26.1361C19.2154 24.7417 18.8242 23.3189 18.4905 21.8845C16.3795 24.271 15.9604 26.3923 16.0493 29.0066C16.0567 29.225 16.342 29.3004 16.4548 29.1136C17.2369 27.8179 18.5304 26.728 19.6151 26.1362V26.1361ZM26.5074 21.8928C26.1737 23.326 25.7828 24.7473 25.3835 26.1405C26.4666 26.7334 27.7555 27.821 28.5357 29.1136C28.6485 29.3005 28.9338 29.225 28.9411 29.0066C29.03 26.3953 28.612 24.2759 26.5074 21.8928Z" fill="#383F51"/>
</svg>
