<?xml version="1.0" encoding="UTF-8"?>
<svg id="Layer_1" data-name="Layer 1" xmlns="http://www.w3.org/2000/svg" version="1.1" viewBox="0 0 140 30">
  <defs>
    <style>
      .cls-1, .cls-2 {
        font-family: Sora-Light, Sora;
        font-weight: 300;
      }

      .cls-1, .cls-3 {
        fill: #373f51;
      }

      .cls-4, .cls-5 {
        fill: #f47c20;
      }

      .cls-4, .cls-6, .cls-3 {
        stroke-width: 0px;
      }

      .cls-7 {
        font-size: 6.49px;
        letter-spacing: 1.1em;
      }

      .cls-5 {
        font-family: Sora-Medium, Sora;
        font-weight: 500;
      }

      .cls-2, .cls-6 {
        fill: #fff;
      }

      .cls-8 {
        display: none;
      }
    </style>
  </defs>
  <g class="cls-8">
    <text class="cls-7" transform="translate(40.88 16.86)"><tspan class="cls-5" x="0" y="0">WATTLE</tspan><tspan class="cls-1" x="69.85" y="0">SOL</tspan></text>
    <g>
      <path class="cls-3" d="M35.17,6.39c-.33.57-.63,1.09-.94,1.6-.74,1.24-1.48,2.49-2.23,3.73-.13.21-.12.37,0,.57,1,1.71,1.99,3.42,2.99,5.13.13.23.16.4.02.64-.97,1.76-1.93,3.53-2.89,5.31-.11.2-.22.29-.46.29-2.07,0-4.15,0-6.22,0-.06,0-.11,0-.24-.02.07-.14.13-.25.19-.35.99-1.74,1.98-3.48,2.98-5.22.12-.21.12-.37,0-.57-1.01-1.67-2-3.36-3.01-5.03-.13-.21-.13-.36,0-.58,1-1.74,1.98-3.48,2.97-5.22.1-.17.18-.3.42-.3,2.06.01,4.12,0,6.19,0,.06,0,.11.01.24.03Z"/>
      <path class="cls-3" d="M11.76,23.64C8.47,17.89,5.2,12.17,1.89,6.39c.16-.01.27-.03.38-.03,1.96,0,3.91,0,5.87,0,.25,0,.38.09.5.29,2.1,3.61,4.21,7.22,6.33,10.83.1.17.17.31.05.51-1.04,1.82-2.08,3.64-3.11,5.47-.03.05-.07.09-.14.18Z"/>
      <path class="cls-4" d="M11.98,6.36c.78,0,1.46,0,2.14,0,1.36,0,2.71,0,4.07,0,.29,0,.44.1.58.34,2.1,3.6,4.21,7.2,6.3,10.81.07.13.11.35.04.47-1.02,1.82-2.05,3.63-3.08,5.44-.03.06-.07.12-.15.24-3.3-5.77-6.58-11.49-9.9-17.29Z"/>
    </g>
  </g>
  <g>
    <text class="cls-7" transform="translate(40.88 16.86)"><tspan class="cls-5" x="0" y="0">WATTLE</tspan><tspan class="cls-2" x="69.85" y="0">SOL</tspan></text>
    <path class="cls-6" d="M35.17,6.39c-.33.57-.63,1.09-.94,1.6-.74,1.24-1.48,2.49-2.23,3.73-.13.21-.12.37,0,.57,1,1.71,1.99,3.42,2.99,5.13.13.23.16.4.02.64-.97,1.76-1.93,3.53-2.89,5.31-.11.2-.22.29-.46.29-2.07,0-4.15,0-6.22,0-.06,0-.11,0-.24-.02.07-.14.13-.25.19-.35.99-1.74,1.98-3.48,2.98-5.22.12-.21.12-.37,0-.57-1.01-1.67-2-3.36-3.01-5.03-.13-.21-.13-.36,0-.58,1-1.74,1.98-3.48,2.97-5.22.1-.17.18-.3.42-.3,2.06.01,4.12,0,6.19,0,.06,0,.11.01.24.03Z"/>
    <path class="cls-6" d="M11.76,23.64C8.47,17.89,5.2,12.17,1.89,6.39c.16-.01.27-.03.38-.03,1.96,0,3.91,0,5.87,0,.25,0,.38.09.5.29,2.1,3.61,4.21,7.22,6.33,10.83.1.17.17.31.05.51-1.04,1.82-2.08,3.64-3.11,5.47-.03.05-.07.09-.14.18Z"/>
    <path class="cls-4" d="M11.98,6.36c.78,0,1.46,0,2.14,0,1.36,0,2.71,0,4.07,0,.29,0,.44.1.58.34,2.1,3.6,4.21,7.2,6.3,10.81.07.13.11.35.04.47-1.02,1.82-2.05,3.63-3.08,5.44-.03.06-.07.12-.15.24-3.3-5.77-6.58-11.49-9.9-17.29Z"/>
  </g>
</svg>