<?xml version="1.0" encoding="UTF-8"?>
<svg id="Layer_1" data-name="Layer 1" xmlns="http://www.w3.org/2000/svg" version="1.1" viewBox="0 0 173.3 30">
  <defs>
    <style>
      .cls-1, .cls-2 {
        font-family: Sora-Light, Sora;
        font-weight: 300;
      }

      .cls-1, .cls-3 {
        fill: #373f51;
      }

      .cls-4, .cls-5 {
        fill: #f47c20;
      }

      .cls-4, .cls-6, .cls-3 {
        stroke-width: 0px;
      }

      .cls-7, .cls-8 {
        font-size: 17.55px;
      }

      .cls-7, .cls-9 {
        display: none;
      }

      .cls-10 {
        font-size: 6.49px;
        letter-spacing: 1.1em;
      }

      .cls-5 {
        font-family: Sora-Medium, Sora;
        font-weight: 500;
      }

      .cls-8 {
        letter-spacing: .25em;
      }

      .cls-2, .cls-6 {
        fill: #fff;
      }
    </style>
  </defs>
  <text class="cls-7" transform="translate(28.52 21.36)"><tspan class="cls-5" x="0" y="0">WATTLE</tspan><tspan class="cls-1" x="73.17" y="0">SOL</tspan></text>
  <g class="cls-9">
    <path class="cls-3" d="M26.94,8.51c-.25.43-.48.82-.71,1.2-.56.94-1.11,1.88-1.68,2.81-.1.16-.09.27,0,.43.75,1.28,1.5,2.58,2.25,3.86.1.17.12.3.02.48-.73,1.33-1.45,2.66-2.17,4-.08.15-.17.22-.35.22-1.56,0-3.12,0-4.68,0-.04,0-.09,0-.18-.01.06-.11.09-.19.14-.27.75-1.31,1.49-2.62,2.24-3.93.09-.16.09-.28,0-.43-.76-1.26-1.51-2.53-2.27-3.79-.1-.16-.1-.27,0-.43.75-1.31,1.49-2.62,2.24-3.93.07-.13.14-.23.32-.23,1.55,0,3.11,0,4.66,0,.04,0,.09,0,.18.02Z"/>
    <path class="cls-3" d="M9.32,21.51c-2.48-4.33-4.94-8.64-7.43-12.99.12,0,.21-.02.29-.02,1.47,0,2.95,0,4.42,0,.19,0,.29.07.38.22,1.58,2.72,3.17,5.44,4.76,8.16.07.13.12.23.04.39-.79,1.37-1.56,2.74-2.34,4.12-.02.04-.05.07-.1.13Z"/>
    <path class="cls-4" d="M9.49,8.49c.59,0,1.1,0,1.61,0,1.02,0,2.04,0,3.06,0,.22,0,.33.08.44.26,1.58,2.71,3.17,5.42,4.74,8.14.06.09.08.27.03.35-.77,1.37-1.54,2.73-2.32,4.1-.03.05-.06.09-.12.18-2.48-4.34-4.95-8.65-7.45-13.02Z"/>
  </g>
  <g class="cls-9">
    <text class="cls-8" transform="translate(27.76 20.04)"><tspan class="cls-5" x="0" y="0">WATTLE</tspan><tspan class="cls-2" x="99.5" y="0">SOL</tspan></text>
    <g>
      <path class="cls-6" d="M26.18,7.19c-.25.43-.48.82-.71,1.2-.56.94-1.11,1.88-1.68,2.81-.1.16-.09.27,0,.43.75,1.28,1.5,2.58,2.25,3.86.1.17.12.3.02.48-.73,1.33-1.45,2.66-2.17,4-.08.15-.17.22-.35.22-1.56,0-3.12,0-4.68,0-.04,0-.09,0-.18-.01.06-.11.09-.19.14-.27.75-1.31,1.49-2.62,2.24-3.93.09-.16.09-.28,0-.43-.76-1.26-1.51-2.53-2.27-3.79-.1-.16-.1-.27,0-.43.75-1.31,1.49-2.62,2.24-3.93.07-.13.14-.23.32-.23,1.55,0,3.11,0,4.66,0,.04,0,.09,0,.18.02Z"/>
      <path class="cls-6" d="M8.56,20.19C6.08,15.86,3.62,11.55,1.13,7.2c.12,0,.21-.02.29-.02,1.47,0,2.95,0,4.42,0,.19,0,.29.07.38.22,1.58,2.72,3.17,5.44,4.76,8.16.07.13.12.23.04.39-.79,1.37-1.56,2.74-2.34,4.12-.02.04-.05.07-.1.13Z"/>
      <path class="cls-4" d="M8.72,7.17c.59,0,1.1,0,1.61,0,1.02,0,2.04,0,3.06,0,.22,0,.33.08.44.26,1.58,2.71,3.17,5.42,4.74,8.14.06.09.08.27.03.35-.77,1.37-1.54,2.73-2.32,4.1-.03.05-.06.09-.12.18-2.48-4.34-4.95-8.65-7.45-13.02Z"/>
    </g>
  </g>
  <text class="cls-8" transform="translate(27.76 19.88)"><tspan class="cls-5" x="0" y="0">WATTLE</tspan><tspan class="cls-1" x="99.5" y="0">SOL</tspan></text>
  <path class="cls-3" d="M26.18,7.04c-.25.43-.48.82-.71,1.2-.56.94-1.11,1.88-1.68,2.81-.1.16-.09.27,0,.43.75,1.28,1.5,2.58,2.25,3.86.1.17.12.3.02.48-.73,1.33-1.45,2.66-2.17,4-.08.15-.17.22-.35.22-1.56,0-3.12,0-4.68,0-.04,0-.09,0-.18-.01.06-.11.09-.19.14-.27.75-1.31,1.49-2.62,2.24-3.93.09-.16.09-.28,0-.43-.76-1.26-1.51-2.53-2.27-3.79-.1-.16-.1-.27,0-.43.75-1.31,1.49-2.62,2.24-3.93.07-.13.14-.23.32-.23,1.55,0,3.11,0,4.66,0,.04,0,.09,0,.18.02Z"/>
  <path class="cls-3" d="M8.56,20.03C6.08,15.7,3.62,11.4,1.13,7.04c.12,0,.21-.02.29-.02,1.47,0,2.95,0,4.42,0,.19,0,.29.07.38.22,1.58,2.72,3.17,5.44,4.76,8.16.07.13.12.23.04.39-.79,1.37-1.56,2.74-2.34,4.12-.02.04-.05.07-.1.13Z"/>
  <path class="cls-4" d="M8.72,7.02c.59,0,1.1,0,1.61,0,1.02,0,2.04,0,3.06,0,.22,0,.33.08.44.26,1.58,2.71,3.17,5.42,4.74,8.14.06.09.08.27.03.35-.77,1.37-1.54,2.73-2.32,4.1-.03.05-.06.09-.12.18-2.48-4.34-4.95-8.65-7.45-13.02Z"/>
  <g class="cls-9">
    <path class="cls-3" d="M-35.12,47.76c-.33.57-.63,1.09-.94,1.6-.74,1.24-1.48,2.49-2.23,3.73-.13.21-.12.37,0,.57,1,1.71,1.99,3.42,2.99,5.13.13.23.16.4.02.64-.97,1.76-1.93,3.53-2.89,5.31-.11.2-.22.29-.46.29-2.07,0-4.15,0-6.22,0-.06,0-.11,0-.24-.02.07-.14.13-.25.19-.35.99-1.74,1.98-3.48,2.98-5.22.12-.21.12-.37,0-.57-1.01-1.67-2-3.36-3.01-5.03-.13-.21-.13-.36,0-.58,1-1.74,1.98-3.48,2.97-5.22.1-.17.18-.3.42-.3,2.06.01,4.12,0,6.19,0,.06,0,.11.01.24.03Z"/>
    <path class="cls-3" d="M-58.53,65.02c-3.29-5.75-6.56-11.47-9.87-17.25.16-.01.27-.03.38-.03,1.96,0,3.91,0,5.87,0,.25,0,.38.09.5.29,2.1,3.61,4.21,7.22,6.33,10.83.1.17.17.31.05.51-1.04,1.82-2.08,3.64-3.11,5.47-.03.05-.07.09-.14.18Z"/>
    <path class="cls-6" d="M-58.31,47.73c.78,0,1.46,0,2.14,0,1.36,0,2.71,0,4.07,0,.29,0,.44.1.58.34,2.1,3.6,4.21,7.2,6.3,10.81.07.13.11.35.04.47-1.02,1.82-2.05,3.63-3.08,5.44-.03.06-.07.12-.15.24-3.3-5.77-6.58-11.49-9.9-17.29Z"/>
  </g>
  <g class="cls-9">
    <path class="cls-6" d="M-35.12,16.91c-.33.57-.63,1.09-.94,1.6-.74,1.24-1.48,2.49-2.23,3.73-.13.21-.12.37,0,.57,1,1.71,1.99,3.42,2.99,5.13.13.23.16.4.02.64-.97,1.76-1.93,3.53-2.89,5.31-.11.2-.22.29-.46.29-2.07,0-4.15,0-6.22,0-.06,0-.11,0-.24-.02.07-.14.13-.25.19-.35.99-1.74,1.98-3.48,2.98-5.22.12-.21.12-.37,0-.57-1.01-1.67-2-3.36-3.01-5.03-.13-.21-.13-.36,0-.58,1-1.74,1.98-3.48,2.97-5.22.1-.17.18-.3.42-.3,2.06.01,4.12,0,6.19,0,.06,0,.11.01.24.03Z"/>
    <path class="cls-6" d="M-58.53,34.16c-3.29-5.75-6.56-11.47-9.87-17.25.16-.01.27-.03.38-.03,1.96,0,3.91,0,5.87,0,.25,0,.38.09.5.29,2.1,3.61,4.21,7.22,6.33,10.83.1.17.17.31.05.51-1.04,1.82-2.08,3.64-3.11,5.47-.03.05-.07.09-.14.18Z"/>
    <path class="cls-4" d="M-58.31,16.88c.78,0,1.46,0,2.14,0,1.36,0,2.71,0,4.07,0,.29,0,.44.1.58.34,2.1,3.6,4.21,7.2,6.3,10.81.07.13.11.35.04.47-1.02,1.82-2.05,3.63-3.08,5.44-.03.06-.07.12-.15.24-3.3-5.77-6.58-11.49-9.9-17.29Z"/>
  </g>
  <g class="cls-9">
    <text class="cls-10" transform="translate(40.88 16.86)"><tspan class="cls-5" x="0" y="0">WATTLE</tspan><tspan class="cls-2" x="69.85" y="0">SOL</tspan></text>
    <path class="cls-6" d="M35.17,6.39c-.33.57-.63,1.09-.94,1.6-.74,1.24-1.48,2.49-2.23,3.73-.13.21-.12.37,0,.57,1,1.71,1.99,3.42,2.99,5.13.13.23.16.4.02.64-.97,1.76-1.93,3.53-2.89,5.31-.11.2-.22.29-.46.29-2.07,0-4.15,0-6.22,0-.06,0-.11,0-.24-.02.07-.14.13-.25.19-.35.99-1.74,1.98-3.48,2.98-5.22.12-.21.12-.37,0-.57-1.01-1.67-2-3.36-3.01-5.03-.13-.21-.13-.36,0-.58,1-1.74,1.98-3.48,2.97-5.22.1-.17.18-.3.42-.3,2.06.01,4.12,0,6.19,0,.06,0,.11.01.24.03Z"/>
    <path class="cls-6" d="M11.76,23.64C8.47,17.89,5.2,12.17,1.89,6.39c.16-.01.27-.03.38-.03,1.96,0,3.91,0,5.87,0,.25,0,.38.09.5.29,2.1,3.61,4.21,7.22,6.33,10.83.1.17.17.31.05.51-1.04,1.82-2.08,3.64-3.11,5.47-.03.05-.07.09-.14.18Z"/>
    <path class="cls-4" d="M11.98,6.36c.78,0,1.46,0,2.14,0,1.36,0,2.71,0,4.07,0,.29,0,.44.1.58.34,2.1,3.6,4.21,7.2,6.3,10.81.07.13.11.35.04.47-1.02,1.82-2.05,3.63-3.08,5.44-.03.06-.07.12-.15.24-3.3-5.77-6.58-11.49-9.9-17.29Z"/>
  </g>
</svg>