<svg width="45" height="45" viewBox="0 0 45 45" fill="none" xmlns="http://www.w3.org/2000/svg">
<path d="M40.1082 21.6962C40.0182 21.8987 39.8157 22.0309 39.5935 22.0309H38.4573C38.162 30.2996 31.3417 36.9371 22.9998 36.9371C16.098 36.9371 10.1017 32.333 8.17798 25.8952L8.25954 25.9852C8.57735 26.3312 9.03017 26.5309 9.50266 26.5309C9.53923 26.5309 9.57298 26.5281 9.60954 26.5281C10.0427 26.4999 10.4449 26.3059 10.743 25.9824L11.927 24.6915C13.3417 29.5233 17.8445 32.9996 22.9998 32.9996C29.1704 32.9996 34.2245 28.1284 34.517 22.0309H33.4061C33.1839 22.0309 32.9814 21.8987 32.8914 21.6934C32.8014 21.4909 32.8407 21.2518 32.9926 21.0887L36.092 17.7081C36.1876 17.6026 36.3341 17.5427 36.475 17.5362C36.6373 17.5289 36.7934 17.5911 36.9076 17.7053L40.007 21.0887C40.1589 21.2518 40.1982 21.4909 40.1082 21.6962Z" fill="#373F51"/>
<path d="M37.8217 17.039L37.7514 16.9631C37.336 16.514 36.6942 16.3084 36.0976 16.4552C35.7759 16.5342 35.4789 16.7086 35.2567 16.955L34.0726 18.2459C32.6579 13.4137 28.1551 9.9375 22.9998 9.9375C16.8292 9.9375 11.7752 14.8087 11.4827 20.9062H12.5936C12.8158 20.9062 13.0183 21.0384 13.1083 21.2437C13.1983 21.4462 13.1589 21.6853 13.007 21.8484C13.007 21.8484 9.91583 25.2206 9.9133 25.2234C9.81571 25.3297 9.68211 25.3955 9.53756 25.4048C9.36909 25.4155 9.20062 25.3474 9.08644 25.2234C8.34281 24.4123 5.99269 21.8484 5.99269 21.8484C5.84082 21.6853 5.80144 21.4462 5.89144 21.2409C5.94769 21.1172 6.04332 21.0187 6.16144 20.9653C6.23456 20.9259 6.31894 20.9062 6.40613 20.9062H7.54238C7.83768 12.6375 14.658 6 22.9998 6C29.8989 6 35.8951 10.6041 37.8217 17.039Z" fill="#373F51"/>
<path d="M31.3166 22.3745L30.0285 21.6292C30.0313 21.5785 30.0313 21.5251 30.0313 21.4688C30.0313 21.4126 30.0313 21.3592 30.0285 21.3085L31.3166 20.5632C31.5219 20.4451 31.6288 20.2145 31.5894 19.981C31.2406 17.9504 30.1719 16.1026 28.58 14.7751C28.4 14.626 28.1441 14.6035 27.9388 14.7217L26.6535 15.4642C26.5635 15.4079 26.4706 15.3545 26.375 15.301V13.8132C26.375 13.577 26.2288 13.3661 26.0066 13.2845C24.08 12.5757 21.92 12.5757 19.9935 13.2845C19.7713 13.3661 19.625 13.577 19.625 13.8132V15.301C19.5294 15.3545 19.4366 15.4079 19.3466 15.4642L18.0613 14.7217C17.856 14.6035 17.6 14.626 17.42 14.7751C15.8282 16.1026 14.7594 17.9504 14.4107 19.981C14.3713 20.2145 14.4782 20.4451 14.6835 20.5632L15.9716 21.3085C15.9688 21.3591 15.9688 21.4126 15.9688 21.4688C15.9688 21.5251 15.9688 21.5785 15.9716 21.6291L14.6835 22.3745C14.4782 22.4926 14.3713 22.7232 14.4107 22.9566C14.7594 24.9873 15.8282 26.8351 17.42 28.1626C17.6 28.3116 17.856 28.3341 18.0613 28.216L19.3466 27.4735C19.4366 27.5298 19.5294 27.5832 19.625 27.6366V29.1244C19.625 29.3607 19.7713 29.5716 19.9935 29.6532C20.9553 30.0076 21.9678 30.1876 23 30.1876C24.0322 30.1876 25.0447 30.0076 26.0066 29.6532C26.2288 29.5716 26.375 29.3607 26.375 29.1244V27.6366C26.4706 27.5832 26.5634 27.5298 26.6534 27.4735L27.9388 28.216C28.1441 28.3341 28.4 28.3116 28.58 28.1626C30.1719 26.8351 31.2406 24.9873 31.5894 22.9566C31.6288 22.7232 31.5219 22.4926 31.3166 22.3745ZM23 24.5626C21.2928 24.5626 19.9063 23.176 19.9063 21.4688C19.9063 19.7617 21.2929 18.3751 23 18.3751C24.7072 18.3751 26.0938 19.7617 26.0938 21.4688C26.0938 23.176 24.7072 24.5626 23 24.5626Z" fill="#373F51"/>
<path d="M23 23.4375C24.0873 23.4375 24.9687 22.5561 24.9687 21.4687C24.9687 20.3814 24.0873 19.5 23 19.5C21.9127 19.5 21.0312 20.3814 21.0312 21.4687C21.0312 22.5561 21.9127 23.4375 23 23.4375Z" fill="#373F51"/>
<path d="M41 34.9686C41 35.1261 40.9325 35.278 40.8172 35.3821L37.4422 38.4758C37.3382 38.5742 37.2004 38.6249 37.0626 38.6249C36.9866 38.6249 36.9079 38.608 36.8347 38.577C36.6322 38.487 36.5001 38.2846 36.5001 38.0624V36.9374H29.0076C31.041 36.1471 32.9169 34.9517 34.5285 33.3936C34.6635 33.2642 34.7929 33.1321 34.9222 32.9999H36.5V31.8749C36.5 31.6527 36.6322 31.4502 36.8347 31.3602C37.04 31.2702 37.2791 31.3096 37.4422 31.4614L40.8172 34.5552C40.9325 34.6592 41 34.8111 41 34.9686Z" fill="#373F51"/>
<path d="M23.5625 33.5625V36.375C23.5625 36.6844 23.3093 36.9375 23 36.9375H6.68749C5.75655 36.9375 5 36.1809 5 35.25V34.6875C5 33.7566 5.75656 33 6.68749 33H23C23.3093 33 23.5625 33.2531 23.5625 33.5625Z" fill="#373F51"/>
</svg>
