<svg xmlns="http://www.w3.org/2000/svg" viewBox="0 0 60 60" xml:space="preserve">
    <g stroke-width="0"/>
    <g stroke-linecap="round" stroke-linejoin="round"/>
    <path d="M14 32v-2h-2V16h-2v15c0 .6.4 1 1 1zM12 2h23V0H11c-.6 0-1 .4-1 1v3h2zm46 36.1-5.9-7.7c-.2-.3-.5-.4-.8-.4H46v2h4.8l7.4 9.6c.2.3.5.4.8.4.1 0 .2 0 .3-.1.4-.1.7-.5.7-.9V26h-2z"/>
    <path d="M7.9 48.4 2 56.1V20h5v-2H1c-.6 0-1 .4-1 1v40c0 .4.3.8.7.9.1.1.2.1.3.1.3 0 .6-.1.8-.4L9.2 50H14v-2H8.7c-.3 0-.6.1-.8.4M48 48h-2v2h3c.6 0 1-.4 1-1V35h-2z"/>
    <path d="M43 30H17c-.6 0-1 .4-1 1v4h-5v2h6c.6 0 1-.4 1-1v-3.1l11.4 7.9c.2.1.4.2.6.2s.4-.1.5-.2l11.5-8V48H18v-4c0-.6-.4-1-1-1H9v2h7v4c0 .6.4 1 1 1h26c.6 0 1-.4 1-1V31c0-.6-.4-1-1-1m-13 8.8L20.1 32h19.7zM5 35h4v2H5zm54-25h-2.8c-.1-.1-.1-.3-.2-.4l1.9-1.9c.2-.2.3-.4.3-.7s-.1-.5-.3-.7l-4.2-4.2c-.4-.4-1-.4-1.4 0L50.4 4c-.2 0-.3-.1-.4-.1V1c0-.6-.4-1-1-1h-6c-.6 0-1 .4-1 1v2.8c-.1.1-.3.1-.4.2l-1.9-1.9c-.4-.4-1-.4-1.4 0l-4.2 4.2c-.2.2-.3.4-.3.7s.1.5.3.7L36 9.6c0 .2-.1.3-.1.3H33c-.6 0-1 .4-1 1v6c0 .6.4 1 1 1h2.8c.1.1.1.3.2.4l-1.9 1.9c-.2.2-.3.4-.3.7s.1.5.3.7l4.2 4.2c.4.4 1 .4 1.4 0l1.9-1.9c.2.1.3.1.4.2V27c0 .6.4 1 1 1h6c.6 0 1-.4 1-1v-2.8c.1-.1.3-.1.4-.2l1.9 1.9c.4.4 1 .4 1.4 0l4.2-4.2c.2-.2.3-.4.3-.7s-.1-.5-.3-.7L56 18.4c.1-.1.1-.3.2-.4H59c.6 0 1-.4 1-1v-6c0-.6-.4-1-1-1m-1 6h-2.5c-.5 0-.9.4-1 .8 0 .2-.4 1-.5 1.2s-.2.4-.2.6c0 .3.1.5.3.7l1.7 1.7-2.8 2.8-1.7-1.7c-.2-.2-.4-.3-.7-.3-.2 0-.4.1-.6.2s-1 .4-1.2.5c-.5.1-.8.5-.8 1V26h-4v-2.5c0-.3-.1-.5-.3-.7-.2-.3-1.9-1-2.3-1-.3 0-.5.1-.7.3L39 23.8 36.2 21l1.7-1.7c.2-.2.3-.4.3-.7 0-.2-.1-.4-.2-.6s-.4-1-.5-1.2c-.1-.5-.5-.8-1-.8H34v-4h2.5c.3 0 .5-.1.7-.3.3-.2 1-1.9 1-2.3 0-.3-.1-.5-.3-.7L36.2 7 39 4.2l1.7 1.7c.2.2.4.3.7.3.2 0 .4-.1.6-.2s1-.4 1.2-.5c.5-.1.8-.5.8-1V2h4v2.5c0 .3.1.5.3.7.2.3 1.9 1 2.3 1 .3 0 .5-.1.7-.3L53 4.2 55.8 7l-1.7 1.7c-.2.2-.3.4-.3.7 0 .2.1.4.2.6s.4 1 .5 1.2c.1.5.5.8 1 .8H58z"/>
    <path d="M46 10c-2.2 0-4 1.8-4 4s1.8 4 4 4 4-1.8 4-4-1.8-4-4-4m0 6c-1.1 0-2-.9-2-2s.9-2 2-2 2 .9 2 2-.9 2-2 2M5 43h2v2H5zm2-4h11v2H7zm7.3-29.7 1.4 1.4 3-3c.4-.4.4-1 0-1.4l-3-3-1.4 1.4L15.6 6H0v2h15.6zm-11 7.4 1.4-1.4L3.4 14H19v-2H3.4l1.3-1.3-1.4-1.4-3 3c-.4.4-.4 1 0 1.4zM20 24h11v2H20zm-5 0h3v2h-3zm0-4h16v2H15zm0-4h16v2H15zm10-4h6v2h-6zm0-4h6v2h-6zm0-4h6v2h-6z"/>
</svg>