<svg width="45" height="45" viewBox="0 0 45 45" fill="none" xmlns="http://www.w3.org/2000/svg">
<path d="M20.9534 9.75862V8.65517C20.9539 8.21634 21.1291 7.79562 21.4405 7.48532C21.752 7.17502 22.1744 7.00048 22.6149 7H27.0455C27.486 7.00048 27.9083 7.17502 28.2198 7.48532C28.5313 7.79562 28.7065 8.21634 28.707 8.65517V9.75862C28.7065 10.1975 28.5313 10.6182 28.2198 10.9285C27.9083 11.2388 27.486 11.4133 27.0455 11.4138H22.6149C22.1744 11.4133 21.752 11.2388 21.4405 10.9285C21.1291 10.6182 20.9539 10.1975 20.9534 9.75862ZM6.55383 19.6897H10.9845C11.1313 19.6897 11.2722 19.6315 11.3761 19.5281C11.4799 19.4246 11.5383 19.2843 11.5383 19.1379C11.5383 18.9916 11.4799 18.8513 11.3761 18.7478C11.2722 18.6443 11.1313 18.5862 10.9845 18.5862H6.55383C6.40694 18.5862 6.26608 18.6443 6.16221 18.7478C6.05835 18.8513 6 18.9916 6 19.1379C6 19.2843 6.05835 19.4246 6.16221 19.5281C6.26608 19.6315 6.40694 19.6897 6.55383 19.6897ZM8.21531 21.8966C8.06843 21.8966 7.92756 21.9547 7.8237 22.0581C7.71984 22.1616 7.66149 22.3019 7.66149 22.4483C7.66149 22.5946 7.71984 22.7349 7.8237 22.8384C7.92756 22.9419 8.06843 23 8.21531 23H9.8768C10.0237 23 10.1646 22.9419 10.2684 22.8384C10.3723 22.7349 10.4306 22.5946 10.4306 22.4483C10.4306 22.3019 10.3723 22.1616 10.2684 22.0581C10.1646 21.9547 10.0237 21.8966 9.8768 21.8966H8.21531ZM10.9845 31.8276H6.55383C6.40694 31.8276 6.26608 31.8857 6.16221 31.9892C6.05835 32.0926 6 32.233 6 32.3793C6 32.5256 6.05835 32.666 6.16221 32.7694C6.26608 32.8729 6.40694 32.931 6.55383 32.931H10.9845C11.1313 32.931 11.2722 32.8729 11.3761 32.7694C11.4799 32.666 11.5383 32.5256 11.5383 32.3793C11.5383 32.233 11.4799 32.0926 11.3761 31.9892C11.2722 31.8857 11.1313 31.8276 10.9845 31.8276ZM9.8768 28.5172H8.21531C8.06843 28.5172 7.92756 28.5754 7.8237 28.6788C7.71984 28.7823 7.66149 28.9226 7.66149 29.069C7.66149 29.2153 7.71984 29.3556 7.8237 29.4591C7.92756 29.5626 8.06843 29.6207 8.21531 29.6207H9.8768C10.0237 29.6207 10.1646 29.5626 10.2684 29.4591C10.3723 29.3556 10.4306 29.2153 10.4306 29.069C10.4306 28.9226 10.3723 28.7823 10.2684 28.6788C10.1646 28.5754 10.0237 28.5172 9.8768 28.5172ZM6.55383 26.3103H9.8768C10.0237 26.3103 10.1646 26.2522 10.2684 26.1487C10.3723 26.0453 10.4306 25.9049 10.4306 25.7586C10.4306 25.6123 10.3723 25.472 10.2684 25.3685C10.1646 25.265 10.0237 25.2069 9.8768 25.2069H6.55383C6.40694 25.2069 6.26608 25.265 6.16221 25.3685C6.05835 25.472 6 25.6123 6 25.7586C6 25.9049 6.05835 26.0453 6.16221 26.1487C6.26608 26.2522 6.40694 26.3103 6.55383 26.3103ZM11.8628 16.931C12.0706 17.1377 12.3523 17.2538 12.6459 17.2538C12.9396 17.2538 13.2213 17.1377 13.4291 16.931L15.9689 14.4009C16.1765 14.1939 16.293 13.9133 16.293 13.6207C16.293 13.3281 16.1765 13.0475 15.9689 12.8405L15.0906 11.9655C14.8827 11.759 14.601 11.643 14.3074 11.643C14.0138 11.643 13.7322 11.759 13.5243 11.9655L10.9845 14.4957C10.7769 14.7027 10.6603 14.9833 10.6603 15.2759C10.6603 15.5684 10.7769 15.849 10.9845 16.056L11.8628 16.931ZM38.6759 14.4957L36.1361 11.9655C35.9281 11.759 35.6465 11.643 35.3529 11.643C35.0593 11.643 34.7777 11.759 34.5698 11.9655L33.6914 12.8405C33.4839 13.0475 33.3673 13.3281 33.3673 13.6207C33.3673 13.9133 33.4839 14.1939 33.6914 14.4009L36.2313 16.931C36.4391 17.1377 36.7207 17.2538 37.0144 17.2538C37.3081 17.2538 37.5897 17.1377 37.7975 16.931L38.6759 16.056C38.8834 15.849 39 15.5684 39 15.2759C39 14.9833 38.8834 14.7027 38.6759 14.4957ZM24.7993 24.389C24.75 24.3077 24.7225 24.2151 24.7196 24.1202C24.7166 24.0252 24.7383 23.9311 24.7826 23.847L26.6831 20.2414H24.0919L21.7841 25.7586H24.2763C24.3627 25.7586 24.4478 25.7787 24.525 25.8173C24.6021 25.8559 24.6692 25.9119 24.7207 25.9809C24.7723 26.0499 24.8069 26.1299 24.8219 26.2146C24.8368 26.2993 24.8317 26.3864 24.8069 26.4687L23.9854 29.1972L27.5674 24.6552H25.2731C25.1778 24.6553 25.0841 24.6308 25.0011 24.5842C24.9181 24.5376 24.8486 24.4703 24.7993 24.389ZM32.5838 25.7586C32.5837 25.8311 32.598 25.9028 32.6258 25.9698C32.6537 26.0368 32.6945 26.0976 32.7459 26.1488C32.7973 26.2001 32.8584 26.2407 32.9256 26.2684C32.9928 26.2961 33.0649 26.3104 33.1376 26.3103H34.771C34.6477 28.5571 33.7578 30.6945 32.2488 32.3688L31.096 31.2204C31.0446 31.1692 30.9836 31.1285 30.9164 31.1008C30.8492 31.0731 30.7771 31.0588 30.7044 31.0588C30.6317 31.0588 30.5597 31.0731 30.4925 31.1008C30.4253 31.1285 30.3642 31.1692 30.3128 31.2204C30.2614 31.2717 30.2206 31.3325 30.1927 31.3994C30.1649 31.4664 30.1506 31.5381 30.1506 31.6106C30.1506 31.683 30.1649 31.7548 30.1927 31.8217C30.2206 31.8886 30.2614 31.9495 30.3128 32.0007L31.4656 33.1491C29.7849 34.6523 27.6393 35.5388 25.384 35.6617V34.0345C25.384 33.8882 25.3257 33.7478 25.2218 33.6444C25.1179 33.5409 24.9771 33.4828 24.8302 33.4828C24.6833 33.4828 24.5424 33.5409 24.4386 33.6444C24.3347 33.7478 24.2763 33.8882 24.2763 34.0345V35.6617C22.021 35.5388 19.8754 34.6523 18.1948 33.1491L19.3475 32.0007C19.4514 31.8972 19.5098 31.7569 19.5098 31.6105C19.5098 31.4642 19.4514 31.3239 19.3475 31.2204C19.2437 31.1169 19.1028 31.0588 18.9559 31.0588C18.809 31.0588 18.6682 31.1169 18.5643 31.2204L17.4115 32.3688C15.9025 30.6945 15.0127 28.5571 14.8893 26.3103H16.5227C16.6696 26.3103 16.8105 26.2522 16.9144 26.1487C17.0182 26.0453 17.0766 25.9049 17.0766 25.7586C17.0766 25.6123 17.0182 25.472 16.9144 25.3685C16.8105 25.265 16.6696 25.2069 16.5227 25.2069H14.8893C15.0127 22.9601 15.9025 20.8227 17.4115 19.1484L18.5643 20.2968C18.6683 20.3999 18.809 20.4577 18.9557 20.4575C19.1023 20.4574 19.243 20.3993 19.3467 20.296C19.4504 20.1926 19.5087 20.0526 19.5089 19.9065C19.5091 19.7603 19.451 19.6201 19.3476 19.5166L18.1948 18.3682C19.8754 16.8649 22.021 15.9784 24.2763 15.8555V17.4828C24.2763 17.6291 24.3347 17.7694 24.4386 17.8729C24.5424 17.9764 24.6833 18.0345 24.8302 18.0345C24.9771 18.0345 25.1179 17.9764 25.2218 17.8729C25.3257 17.7694 25.384 17.6291 25.384 17.4828V15.8555C27.6393 15.9784 29.7849 16.8649 31.4656 18.3682L30.3128 19.5166C30.2093 19.6201 30.1513 19.7603 30.1515 19.9064C30.1517 20.0526 30.21 20.1926 30.3137 20.2959C30.4174 20.3993 30.558 20.4574 30.7047 20.4575C30.8514 20.4577 30.9921 20.3999 31.0961 20.2968L32.2488 19.1484C33.7578 20.8227 34.6476 22.9601 34.771 25.2069H33.1376C33.0649 25.2069 32.9928 25.2211 32.9256 25.2488C32.8584 25.2765 32.7973 25.3172 32.7459 25.3684C32.6945 25.4196 32.6537 25.4805 32.6258 25.5474C32.598 25.6144 32.5837 25.6862 32.5838 25.7586ZM29.2051 23.8621C29.1596 23.769 29.0888 23.6906 29.0007 23.6357C28.9126 23.5808 28.8109 23.5517 28.707 23.5517H26.1893L28.0899 19.9461C28.1341 19.862 28.1558 19.7679 28.1529 19.673C28.15 19.5781 28.1225 19.4856 28.0732 19.4043C28.0239 19.323 27.9544 19.2558 27.8714 19.2092C27.7883 19.1625 27.6946 19.138 27.5993 19.1379H23.7225C23.6132 19.138 23.5064 19.1703 23.4154 19.2307C23.3245 19.2911 23.2535 19.3769 23.2114 19.4774L20.4423 26.0981C20.4072 26.1819 20.3934 26.2731 20.4022 26.3635C20.4109 26.4539 20.442 26.5408 20.4925 26.6163C20.5431 26.6919 20.6116 26.7539 20.692 26.7968C20.7724 26.8396 20.8622 26.8621 20.9534 26.8621H23.5321L22.0843 31.6692C22.0473 31.7923 22.0545 31.9243 22.1048 32.0427C22.1551 32.161 22.2452 32.2581 22.3597 32.3173C22.4742 32.3765 22.6058 32.394 22.7319 32.3669C22.8579 32.3397 22.9705 32.2696 23.0502 32.1686L29.1424 24.4445C29.2065 24.363 29.2464 24.2652 29.2575 24.1622C29.2686 24.0593 29.2504 23.9553 29.2051 23.8621ZM38.1221 25.7586C38.1221 28.3775 37.3425 30.9376 35.882 33.1151C34.4214 35.2927 32.3455 36.9898 29.9168 37.9921C27.488 38.9943 24.8154 39.2565 22.2371 38.7456C19.6587 38.2346 17.2903 36.9735 15.4314 35.1217C13.5725 33.2698 12.3066 30.9105 11.7937 28.3419C11.2808 25.7733 11.544 23.1109 12.5501 20.6914C13.5561 18.2718 15.2598 16.2038 17.4456 14.7488C19.6314 13.2938 22.2013 12.5172 24.8302 12.5172C28.3542 12.5213 31.7327 13.9176 34.2245 16.4C36.7163 18.8824 38.118 22.248 38.1221 25.7586ZM35.9067 25.7586C35.9067 23.5762 35.2571 21.4428 34.04 19.6282C32.8229 17.8136 31.093 16.3993 29.069 15.5641C27.045 14.7289 24.8179 14.5104 22.6692 14.9362C20.5206 15.3619 18.5469 16.4129 16.9979 17.9561C15.4488 19.4993 14.3938 21.4654 13.9664 23.6059C13.539 25.7464 13.7584 27.965 14.5968 29.9813C15.4351 31.9976 16.8548 33.721 18.6764 34.9335C20.4979 36.1459 22.6394 36.7931 24.8302 36.7931C27.7669 36.7898 30.5823 35.6262 32.6589 33.5576C34.7354 31.4889 35.9035 28.6841 35.9067 25.7586Z" fill="#373F51"/>
</svg>
