<svg width="40" height="40" viewBox="0 0 40 40" fill="none" xmlns="http://www.w3.org/2000/svg">
<rect width="40" height="40" fill="white"/>
<path d="M22.11 23.75H18.84C18.55 23.75 18.31 23.52 18.29 23.23L18.18 21.23C17.61 21.06 17.06 20.83 16.54 20.55L15.04 21.89C14.82 22.08 14.49 22.07 14.29 21.87L11.98 19.56C11.77 19.36 11.77 19.03 11.96 18.81L13.3 17.31C13.01 16.79 12.78 16.24 12.62 15.67L10.62 15.56C10.33 15.54 10.1 15.3 10.1 15.01V11.74C10.1 11.45 10.33 11.21 10.62 11.19L12.62 11.08C12.79 10.51 13.02 9.96 13.3 9.44L11.96 7.94C11.77 7.72 11.78 7.39 11.98 7.19L14.29 4.88C14.49 4.67 14.82 4.67 15.04 4.86L16.54 6.2C17.06 5.91 17.61 5.68 18.18 5.52L18.29 3.52C18.31 3.23 18.55 3 18.84 3H22.11C22.4 3 22.64 3.23 22.66 3.52L22.77 5.52C23.34 5.69 23.89 5.92 24.41 6.2L25.9 4.86C26.12 4.67 26.44 4.68 26.65 4.88L28.96 7.19C29.17 7.39 29.18 7.72 28.99 7.94L27.65 9.44C27.94 9.96 28.16 10.51 28.33 11.08L30.33 11.19C30.62 11.21 30.85 11.45 30.85 11.74V15.01C30.85 15.3 30.62 15.54 30.33 15.56L28.33 15.67C28.16 16.24 27.93 16.79 27.65 17.31L28.99 18.81C29.18 19.03 29.17 19.36 28.97 19.56L26.66 21.87C26.46 22.07 26.13 22.08 25.91 21.89L24.41 20.55C23.89 20.84 23.34 21.07 22.77 21.23L22.66 23.23C22.64 23.52 22.4 23.75 22.11 23.75ZM19.35 22.66H21.59L21.69 20.78C21.7 20.54 21.87 20.33 22.11 20.28C22.84 20.11 23.54 19.81 24.18 19.42C24.39 19.29 24.65 19.32 24.83 19.48L26.24 20.74L27.82 19.16L26.56 17.76C26.4 17.58 26.38 17.32 26.5 17.11C26.9 16.47 27.19 15.77 27.36 15.04C27.42 14.81 27.62 14.64 27.86 14.62L29.74 14.52V12.28L27.86 12.18C27.62 12.17 27.42 12 27.36 11.76C27.18 11.03 26.89 10.33 26.5 9.69C26.37 9.48 26.4 9.22 26.56 9.04L27.82 7.64L26.24 6.06L24.84 7.32C24.66 7.48 24.4 7.5 24.19 7.38C23.55 6.98 22.85 6.69 22.12 6.52C21.88 6.46 21.71 6.26 21.7 6.02L21.6 4.14H19.36L19.26 6.02C19.25 6.26 19.08 6.46 18.84 6.52C18.11 6.69 17.41 6.99 16.77 7.38C16.56 7.51 16.3 7.48 16.12 7.32L14.72 6.06L13.14 7.64L14.4 9.04C14.56 9.22 14.59 9.48 14.46 9.69C14.06 10.33 13.77 11.03 13.6 11.76C13.54 11.99 13.34 12.16 13.1 12.18L11.22 12.28V14.52L13.1 14.62C13.34 14.63 13.54 14.8 13.6 15.04C13.77 15.77 14.07 16.47 14.46 17.11C14.59 17.32 14.56 17.58 14.4 17.76L13.14 19.16L14.72 20.74L16.12 19.48C16.3 19.32 16.56 19.29 16.77 19.42C17.41 19.82 18.11 20.11 18.84 20.28C19.07 20.34 19.24 20.54 19.26 20.78L19.36 22.66H19.35Z" fill="#383F51"/>
<path d="M20.47 18.5606C17.46 18.5606 15.01 16.1206 15.01 13.1006C15.01 10.0806 17.45 7.64062 20.47 7.64062C23.49 7.64062 25.93 10.0806 25.93 13.1006C25.93 16.1106 23.49 18.5506 20.47 18.5606ZM20.47 8.74062C18.06 8.74062 16.1 10.6906 16.1 13.1106C16.1 15.5306 18.05 17.4806 20.47 17.4806C22.89 17.4806 24.84 15.5306 24.84 13.1106C24.84 10.7006 22.88 8.75062 20.47 8.74062Z" fill="#383F51"/>
<path d="M21.9501 15.1298L21.1801 14.3598L22.4301 13.1098L21.1801 11.8598L21.9501 11.0898L23.5901 12.7298C23.8001 12.9398 23.8001 13.2898 23.5901 13.4998L21.9501 15.1398V15.1298Z" fill="#383F51"/>
<path d="M18.99 15.1301L17.35 13.4901C17.14 13.2801 17.14 12.9301 17.35 12.7201L18.99 11.0801L19.76 11.8501L18.51 13.1001L19.76 14.3501L18.99 15.1201V15.1301Z" fill="#383F51"/>
<path d="M24.83 37.9391H16.1C15.5 37.9391 15.01 37.4491 15.01 36.8491V28.1191H16.1V36.8491H24.83V28.1191H25.92V36.8491C25.92 37.4491 25.43 37.9391 24.83 37.9391Z" fill="#383F51"/>
<path d="M15.56 35.7501H13.38C13.08 35.7501 12.83 35.5101 12.83 35.2001V27.5601C12.83 27.4201 12.89 27.2801 12.99 27.1701L15.17 24.9901C15.27 24.8901 15.41 24.8301 15.56 24.8301H18.8299C18.9699 24.8301 19.1099 24.8901 19.2199 24.9901L20.86 26.6301L20.09 27.4001L18.61 25.9201H15.79L13.93 27.7801V34.6501H15.57V35.7401L15.56 35.7501Z" fill="#383F51"/>
<path d="M22.65 28.1102C22.65 28.1102 22.56 28.1102 22.52 28.0902L20.34 27.5402L20.61 26.4802L22.26 26.8902L22.67 25.2402L23.73 25.5102L23.18 27.6902C23.12 27.9302 22.9 28.1002 22.65 28.1002V28.1102Z" fill="#383F51"/>
<path d="M18.29 28.11C18.04 28.11 17.82 27.94 17.76 27.7L17.21 25.52L18.27 25.25L18.68 26.9L20.33 26.49L20.6 27.55L18.42 28.1C18.42 28.1 18.33 28.12 18.29 28.12V28.11Z" fill="#383F51"/>
<path d="M20.4699 35.7505C20.3299 35.7505 20.1899 35.6905 20.0799 35.5905L18.9899 34.5005C18.8799 34.3905 18.8199 34.2305 18.8299 34.0705L19.3799 26.9805L20.4699 27.0605L19.9399 33.9005L20.4699 34.4305L20.9999 33.9005L20.4699 27.0605L21.5599 26.9805L22.11 34.0705C22.12 34.2305 22.0599 34.3905 21.9499 34.5005L20.86 35.5905C20.76 35.6905 20.6199 35.7505 20.4699 35.7505Z" fill="#383F51"/>
<path d="M27.56 35.7498H25.38V34.6598H27.02V27.7898L25.16 25.9298H22.34L20.86 27.4098L20.09 26.6398L21.73 24.9998C21.83 24.8998 21.97 24.8398 22.12 24.8398H25.39C25.53 24.8398 25.67 24.8998 25.78 24.9998L27.96 27.1798C28.06 27.2798 28.12 27.4198 28.12 27.5698V35.2098C28.12 35.5098 27.88 35.7598 27.57 35.7598L27.56 35.7498Z" fill="#383F51"/>
<path d="M37.39 37.9407H29.75C29.45 37.9407 29.2 37.7007 29.2 37.3907V33.0207C29.2 32.7207 29.44 32.4707 29.75 32.4707H37.39C37.69 32.4707 37.9399 32.7107 37.9399 33.0207V37.3907C37.9399 37.6907 37.7 37.9407 37.39 37.9407ZM30.2899 36.8507H36.84V33.5807H30.2899V36.8507Z" fill="#383F51"/>
<path d="M31.38 34.6602H32.47V35.7502H31.38V34.6602Z" fill="#383F51"/>
<path d="M33.5699 34.6602H35.75V35.7502H33.5699V34.6602Z" fill="#383F51"/>
<path d="M34.1101 33.0305H33.0201V28.3405L27.1801 22.5005L27.9501 21.7305L33.9501 27.7305C34.0501 27.8305 34.1101 27.9705 34.1101 28.1205V33.0305Z" fill="#383F51"/>
<path d="M11.19 37.9407H3.55C3.25 37.9407 3 37.7007 3 37.3907V33.0207C3 32.7207 3.24 32.4707 3.55 32.4707H11.19C11.49 32.4707 11.74 32.7107 11.74 33.0207V37.3907C11.74 37.6907 11.5 37.9407 11.19 37.9407ZM4.1 36.8507H10.65V33.5807H4.1V36.8507Z" fill="#383F51"/>
<path d="M8.45996 34.6602H9.54996V35.7502H8.45996V34.6602Z" fill="#383F51"/>
<path d="M5.18994 34.6602H7.36994V35.7502H5.18994V34.6602Z" fill="#383F51"/>
<path d="M7.91995 33.0305H6.82996V28.1205C6.82996 27.9805 6.88995 27.8405 6.98995 27.7305L12.99 21.7305L13.76 22.5005L7.91995 28.3405V33.0305Z" fill="#383F51"/>
<path d="M36.29 21.5709H35.2001V6.83094C35.2001 6.53094 35.4401 6.28094 35.7501 6.28094H36.07L34.1101 4.32094L32.15 6.28094H32.47C32.77 6.28094 33.02 6.52094 33.02 6.83094V16.6509H31.93V7.38094H30.8401C30.6201 7.38094 30.4201 7.25094 30.3401 7.04094C30.2601 6.83094 30.3 6.60094 30.46 6.45094L33.73 3.18094C33.94 2.97094 34.2901 2.97094 34.5001 3.18094L37.77 6.45094C37.93 6.61094 37.9701 6.84094 37.8901 7.04094C37.8101 7.24094 37.6101 7.38094 37.3901 7.38094H36.3V21.5709H36.29Z" fill="#383F51"/>
<path d="M31.9301 17.75H33.0201V18.84H31.9301V17.75Z" fill="#383F51"/>
<path d="M5.73001 21.5709H4.64001V7.38094H3.55001C3.33001 7.38094 3.13001 7.25094 3.05001 7.04094C2.97001 6.83094 3.01001 6.60094 3.17001 6.45094L6.44001 3.18094C6.65001 2.97094 7.00001 2.97094 7.21001 3.18094L10.48 6.45094C10.64 6.61094 10.68 6.84094 10.6 7.04094C10.52 7.24094 10.32 7.38094 10.1 7.38094H9.01001V16.6609H7.92001V6.83094C7.92001 6.53094 8.16001 6.28094 8.47001 6.28094H8.79001L6.83001 4.32094L4.87001 6.28094H5.19001C5.49001 6.28094 5.74001 6.52094 5.74001 6.83094V21.5609L5.73001 21.5709Z" fill="#383F51"/>
<path d="M7.92004 17.75H9.01005V18.84H7.92004V17.75Z" fill="#383F51"/>
</svg>
