<svg width="40" height="40" viewBox="0 0 40 40" fill="none" xmlns="http://www.w3.org/2000/svg">
<rect width="40" height="40" fill="white"/>
<path d="M34.46 29.88H33.71C34.88 29.18 35.67 27.8 35.67 26.21C35.67 24 34.13 22.19 32.19 22.06V13.26H33.9C34.08 13.26 34.24 13.16 34.32 13C34.4 12.84 34.39 12.65 34.28 12.51L30.61 7.36C30.52 7.24 30.38 7.16 30.22 7.16C30.06 7.16 29.92 7.23 29.83 7.36L26.16 12.51C26.06 12.65 26.04 12.84 26.12 13C26.2 13.16 26.36 13.26 26.54 13.26H28.25V26.1C28.25 26.1 28.25 26.17 28.25 26.2C28.25 26.23 28.25 26.27 28.25 26.3V26.34C28.29 27.87 29.08 29.19 30.21 29.87H29.46C28.63 29.87 27.83 30.09 27.12 30.52C26.41 29.6 25.41 28.92 24.25 28.62L25.61 27.26C25.95 26.92 26.01 26.4 25.74 25.99L24.68 24.35C24.68 24.35 24.66 24.31 24.68 24.28C24.82 23.99 24.95 23.68 25.05 23.38C25.05 23.35 25.07 23.34 25.1 23.34L27.01 22.93C27.48 22.83 27.81 22.42 27.81 21.94V19.03C27.81 18.55 27.48 18.14 27.01 18.04L25.1 17.63C25.1 17.63 25.06 17.61 25.05 17.59C24.94 17.28 24.82 16.98 24.68 16.69C24.67 16.66 24.67 16.65 24.68 16.62L25.74 14.98C26 14.57 25.95 14.05 25.61 13.71L24.66 12.76V7.1H26.37C26.55 7.1 26.71 7 26.79 6.84C26.87 6.68 26.86 6.49 26.75 6.35L23.11 1.2C23.02 1.08 22.88 1 22.72 1C22.56 1 22.42 1.07 22.33 1.2L18.66 6.35C18.56 6.49 18.54 6.68 18.62 6.84C18.7 7 18.86 7.1 19.04 7.1H20.75V12.51L20.65 12.57C20.65 12.57 20.61 12.59 20.58 12.57C20.29 12.43 19.98 12.3 19.68 12.2C19.65 12.2 19.64 12.18 19.64 12.15L19.23 10.24C19.13 9.77 18.72 9.44 18.24 9.44H15.33C14.85 9.44 14.44 9.77 14.34 10.24L13.93 12.15C13.93 12.15 13.91 12.19 13.89 12.2C13.58 12.31 13.28 12.43 12.99 12.57C12.96 12.58 12.95 12.58 12.92 12.57L11.28 11.51C10.87 11.25 10.35 11.3 10.01 11.64L7.95 13.7C7.61 14.04 7.55 14.56 7.82 14.97L8.88 16.61C8.88 16.61 8.9 16.65 8.88 16.68C8.74 16.97 8.61 17.28 8.51 17.58C8.51 17.61 8.49 17.62 8.46 17.62L6.55 18.03C6.08 18.13 5.75 18.54 5.75 19.02V21.93C5.75 22.23 5.88 22.51 6.09 22.69C5.05 23.43 4.36 24.73 4.36 26.2C4.36 27.78 5.15 29.17 6.32 29.87H5.57C3.05 29.87 1 31.92 1 34.44V38.54C1 38.8 1.21 39.01 1.47 39.01H38.55C38.81 39.01 39.02 38.8 39.02 38.54V34.44C39.02 31.92 36.97 29.87 34.45 29.87L34.46 29.88ZM28.74 12.32H27.48L30.23 8.46L32.98 12.32H31.72C31.46 12.32 31.25 12.53 31.25 12.79V22.13C30.45 22.31 29.74 22.78 29.22 23.43V12.79C29.22 12.53 29.01 12.32 28.75 12.32H28.74ZM29.21 26.32V26.11C29.26 24.39 30.48 23.01 31.96 23.01C33.44 23.01 34.72 24.45 34.72 26.22C34.72 27.99 33.48 29.43 31.96 29.43C30.47 29.43 29.25 28.05 29.21 26.33V26.32ZM24.98 26.51C24.98 26.51 25 26.57 24.98 26.59L23.11 28.46C23.11 28.46 23.01 28.46 22.96 28.46H21.76C22.95 27.87 23.85 26.69 24.17 25.25L24.99 26.52L24.98 26.51ZM21.24 19.47C21.03 18.52 20.51 17.67 19.77 17.03C18.94 16.32 17.89 15.92 16.79 15.92C14.28 15.92 12.23 17.96 12.23 20.48C12.23 22.63 13.75 24.48 15.81 24.93C15.87 25.3 15.97 25.65 16.1 25.99C13.36 25.65 11.23 23.31 11.23 20.48C11.23 17.42 13.72 14.93 16.78 14.93C19.84 14.93 22.09 17.18 22.31 20.04C21.98 19.8 21.61 19.61 21.22 19.47H21.24ZM15.76 23.94C14.26 23.49 13.19 22.09 13.19 20.48C13.19 18.49 14.81 16.87 16.8 16.87C18.37 16.87 19.71 17.85 20.21 19.28C20.15 19.28 20.09 19.28 20.03 19.28C17.72 19.28 15.83 21.36 15.77 23.94H15.76ZM16.7 24.07C16.7 21.95 18.19 20.22 20.02 20.22C21.85 20.22 23.34 21.95 23.34 24.07C23.34 26.19 21.85 27.92 20.02 27.92C18.19 27.92 16.7 26.19 16.7 24.07ZM21.24 6.15H19.98L22.73 2.29L25.48 6.15H24.22C23.96 6.15 23.75 6.36 23.75 6.62V11.8L23.58 11.63C23.24 11.29 22.72 11.23 22.31 11.5L21.71 11.89V6.62C21.71 6.36 21.5 6.15 21.24 6.15ZM5.32 26.21C5.32 24.44 6.56 23 8.08 23C9.6 23 10.84 24.44 10.84 26.21C10.84 27.98 9.6 29.42 8.08 29.42C6.56 29.42 5.32 27.98 5.32 26.21ZM11.78 26.21C11.78 23.92 10.12 22.05 8.08 22.05C7.84 22.05 7.6 22.08 7.37 22.13L6.76 22C6.76 22 6.71 21.97 6.71 21.93V19.02C6.71 19.02 6.73 18.96 6.76 18.95L8.67 18.54C9.02 18.47 9.3 18.22 9.41 17.88C9.51 17.61 9.62 17.34 9.74 17.08C9.89 16.76 9.87 16.39 9.68 16.09L8.62 14.45C8.62 14.45 8.6 14.39 8.62 14.37L10.68 12.31C10.68 12.31 10.74 12.28 10.76 12.31L12.4 13.37C12.7 13.56 13.07 13.59 13.39 13.43C13.65 13.3 13.92 13.19 14.19 13.1C14.53 12.98 14.77 12.7 14.85 12.36L15.26 10.45C15.26 10.45 15.29 10.4 15.33 10.4H18.24C18.24 10.4 18.3 10.42 18.31 10.45L18.72 12.36C18.79 12.71 19.04 12.99 19.38 13.1C19.65 13.2 19.92 13.31 20.18 13.43C20.5 13.58 20.87 13.56 21.17 13.37L22.81 12.31C22.81 12.31 22.87 12.29 22.89 12.31L24.95 14.37C24.95 14.37 24.98 14.43 24.95 14.45L23.89 16.09C23.7 16.39 23.67 16.76 23.83 17.08C23.96 17.34 24.07 17.61 24.16 17.88C24.28 18.22 24.56 18.46 24.9 18.54L26.81 18.95C26.81 18.95 26.86 18.98 26.86 19.02V21.93C26.86 21.93 26.84 21.99 26.81 22L24.9 22.41C24.56 22.48 24.28 22.72 24.16 23.06C24.01 22.28 23.69 21.57 23.24 20.98C23.25 20.82 23.26 20.65 23.26 20.49C23.26 16.91 20.35 13.99 16.76 13.99C13.17 13.99 10.26 16.9 10.26 20.49C10.26 24.08 13.08 26.89 16.59 26.98C17.02 27.62 17.6 28.13 18.26 28.46H17.06C15.35 28.46 13.84 29.27 12.87 30.53C12.16 30.11 11.36 29.88 10.53 29.88H9.78C10.95 29.18 11.74 27.8 11.74 26.21H11.78ZM1.96 34.45C1.96 32.45 3.59 30.83 5.58 30.83H10.57C11.22 30.83 11.85 31 12.4 31.33C12.03 32.05 11.81 32.87 11.81 33.74V38.08H11.6V34.24C11.6 33.98 11.39 33.77 11.13 33.77C10.87 33.77 10.66 33.98 10.66 34.24V38.08H5.5V34.24C5.5 33.98 5.29 33.77 5.03 33.77C4.77 33.77 4.56 33.98 4.56 34.24V38.08H1.96V34.46V34.45ZM27.28 38.08H24.61V33.5C24.61 33.24 24.4 33.03 24.14 33.03C23.88 33.03 23.67 33.24 23.67 33.5V38.08H16.39V33.5C16.39 33.24 16.18 33.03 15.92 33.03C15.66 33.03 15.45 33.24 15.45 33.5V38.08H12.78V33.74C12.78 31.35 14.73 29.4 17.12 29.4H22.97C25.36 29.4 27.31 31.35 27.31 33.74V38.08H27.28ZM38.09 38.08H35.5V34.24C35.5 33.98 35.29 33.77 35.03 33.77C34.77 33.77 34.56 33.98 34.56 34.24V38.08H29.4V34.24C29.4 33.98 29.19 33.77 28.93 33.77C28.67 33.77 28.46 33.98 28.46 34.24V38.08H28.25V33.74C28.25 32.87 28.04 32.05 27.66 31.33C28.21 31 28.84 30.83 29.49 30.83H34.48C36.48 30.83 38.1 32.46 38.1 34.45V38.07L38.09 38.08Z" fill="#383F51"/>
</svg>
