<svg width="40" height="40" viewBox="0 0 40 40" fill="none" xmlns="http://www.w3.org/2000/svg">
<rect width="40" height="40" fill="white"/>
<path d="M17.79 21.9893C17.99 22.1393 18.03 22.4293 17.87 22.6293C17.71 22.8293 17.43 22.8693 17.23 22.7093L14.93 20.9493C14.69 20.7593 14.69 20.3993 14.93 20.2193L17.22 18.4593C17.42 18.3093 17.71 18.3493 17.86 18.5393C18.01 18.7293 17.97 19.0293 17.78 19.1793L15.95 20.5793L17.78 21.9793L17.79 21.9893ZM20.91 18.3493C21.03 18.1293 21.31 18.0493 21.53 18.1793C21.75 18.2993 21.83 18.5793 21.7 18.7993L19.38 22.8193C19.25 23.0393 18.98 23.1193 18.76 22.9893C18.54 22.8693 18.47 22.5893 18.59 22.3693L20.91 18.3493ZM23.06 22.7193C22.86 22.8693 22.57 22.8293 22.42 22.6393C22.27 22.4493 22.31 22.1493 22.5 21.9993L24.33 20.5993L22.5 19.1993C22.3 19.0493 22.26 18.7593 22.42 18.5593C22.58 18.3593 22.86 18.3193 23.06 18.4793L25.35 20.2393C25.59 20.4193 25.6 20.7793 25.35 20.9693L23.05 22.7293L23.06 22.7193ZM20.15 12.9493C24.37 12.9493 27.79 16.3693 27.79 20.5893C27.79 24.8093 24.37 28.2293 20.15 28.2293C15.93 28.2293 12.51 24.8093 12.51 20.5893C12.51 16.3693 15.93 12.9493 20.15 12.9493ZM24.9 15.8393C22.27 13.2093 18.02 13.2093 15.39 15.8393C12.76 18.4693 12.76 22.7193 15.39 25.3393C18.02 27.9693 22.27 27.9693 24.9 25.3393C27.53 22.7193 27.53 18.4593 24.9 15.8393ZM18.33 8.25933H21.96C22.21 8.25933 22.42 8.46933 22.42 8.71933V10.7193C23.52 10.9693 24.57 11.4093 25.53 12.0093L26.94 10.5993C27.12 10.4193 27.41 10.4193 27.59 10.5993L30.16 13.1693C30.34 13.3493 30.34 13.6393 30.16 13.8193L28.75 15.2293C29.35 16.1793 29.79 17.2293 30.04 18.3393H32.04C32.29 18.3393 32.5 18.5493 32.5 18.7993V22.4293C32.5 22.6993 32.29 22.8893 32.01 22.8893H30.05C29.8 23.9893 29.36 25.0393 28.76 25.9993L30.17 27.4093C30.35 27.5893 30.35 27.8793 30.17 28.0593L27.6 30.6293C27.42 30.8093 27.14 30.8093 26.95 30.6293L25.55 29.2393C24.6 29.8393 23.55 30.2793 22.44 30.5293V32.5293C22.44 32.7793 22.23 32.9893 21.98 32.9893H18.35C18.1 32.9893 17.89 32.7793 17.89 32.5293V30.5293C16.79 30.2793 15.74 29.8393 14.78 29.2393L13.37 30.6493C13.19 30.8293 12.91 30.8293 12.72 30.6493L10.15 28.0793C9.97 27.8993 9.97 27.6093 10.15 27.4293L11.56 26.0193C10.96 25.0693 10.52 24.0193 10.27 22.9093H8.26C8.01 22.9093 7.8 22.6993 7.8 22.4493V18.8193C7.8 18.5693 8.01 18.3593 8.26 18.3593H10.26C10.51 17.2593 10.95 16.2093 11.55 15.2493L10.14 13.8393C9.96 13.6593 9.96 13.3693 10.14 13.1893L12.71 10.6193C12.89 10.4393 13.18 10.4393 13.36 10.6193L14.77 12.0293C15.72 11.4293 16.78 10.9893 17.88 10.7393V8.72933C17.88 8.47933 18.09 8.26933 18.34 8.26933L18.33 8.25933ZM21.51 9.16933H18.79V11.0493C18.81 11.2693 18.65 11.4793 18.42 11.5193C17.8 11.6393 17.19 11.8193 16.62 12.0593C16.05 12.2993 15.5 12.5893 14.99 12.9393C14.81 13.0793 14.55 13.0693 14.39 12.8993L13.04 11.5493L11.11 13.4793L12.46 14.8293C12.61 14.9793 12.64 15.2293 12.51 15.4093C12.16 15.9293 11.86 16.4793 11.62 17.0593C11.38 17.6193 11.21 18.2193 11.09 18.8293C11.07 19.0593 10.87 19.2293 10.63 19.2293H8.72V21.9493H10.64C10.85 21.9493 11.05 22.0993 11.09 22.3193C11.21 22.9393 11.39 23.5493 11.63 24.1193C11.87 24.6893 12.16 25.2393 12.51 25.7493C12.65 25.9293 12.64 26.1893 12.47 26.3493L11.12 27.6993L13.05 29.6293L14.4 28.2793C14.55 28.1293 14.8 28.0993 14.98 28.2293C15.5 28.5793 16.05 28.8793 16.63 29.1193C17.19 29.3593 17.79 29.5293 18.4 29.6493C18.63 29.6693 18.8 29.8693 18.8 30.1093V32.0193H21.52V30.1193C21.52 29.9093 21.67 29.7093 21.89 29.6693C22.51 29.5493 23.12 29.3693 23.69 29.1293C24.26 28.8893 24.81 28.5993 25.32 28.2493C25.5 28.1093 25.76 28.1193 25.92 28.2893L27.27 29.6393L29.2 27.7093L27.85 26.3693C27.7 26.2193 27.67 25.9693 27.8 25.7893C28.51 24.7493 29 23.5693 29.23 22.3293C29.27 22.1193 29.45 21.9593 29.68 21.9593H31.59V19.2393H29.68C29.47 19.2393 29.28 19.0893 29.23 18.8693C29.11 18.2493 28.93 17.6393 28.69 17.0693C28.45 16.4993 28.16 15.9493 27.81 15.4393C27.67 15.2593 27.68 14.9993 27.85 14.8393L29.2 13.4893L27.27 11.5593L25.92 12.8993C25.77 13.0493 25.52 13.0793 25.34 12.9493C24.82 12.5993 24.27 12.2993 23.69 12.0593C23.13 11.8193 22.53 11.6493 21.92 11.5293C21.69 11.4993 21.52 11.3093 21.52 11.0693V9.16933H21.51ZM9.6 7.79933C9.41 7.95933 9.12 7.93933 8.96 7.74933C8.79 7.55933 8.82 7.26933 9.01 7.10933C14.65 2.27933 22.81 1.63933 29.14 5.54933C31.63 7.08933 33.71 9.23933 35.14 11.7993C35.14 11.5493 35.35 11.3393 35.6 11.3493C35.85 11.3593 36.05 11.5593 36.04 11.8093L35.99 13.5893C35.99 13.9493 35.58 14.1493 35.29 13.9593L33.72 12.9393C33.51 12.7993 33.45 12.5193 33.58 12.3093C33.72 12.0993 34 12.0393 34.21 12.1693L34.34 12.2493C31.48 7.15932 26.09 3.90933 20.12 3.90933C16.21 3.90933 12.5 5.29933 9.57 7.78933L9.6 7.79933ZM19.99 37.3493C20.19 37.4793 20.26 37.7493 20.13 37.9593C20 38.1693 19.73 38.2493 19.51 38.1293L17.92 37.2193C17.6 37.0393 17.62 36.5793 17.94 36.4193L19.62 35.5693C19.84 35.4593 20.11 35.5493 20.24 35.7693C20.35 35.9893 20.26 36.2593 20.03 36.3893L19.9 36.4593H20.16C30.28 36.4593 37.91 27.3193 36.17 17.3893C36.12 17.1393 36.29 16.8993 36.54 16.8593C36.79 16.8093 37.02 16.9793 37.07 17.2293C38.91 27.7193 30.84 37.3793 20.16 37.3793C20.11 37.3593 20.06 37.3593 19.99 37.3593V37.3493ZM5.28 11.4893C5.06 11.6093 4.79 11.5393 4.66 11.3193C4.54 11.0993 4.61 10.8293 4.83 10.6993L6.53 9.72933C6.84 9.54933 7.23 9.78933 7.22 10.1493L7.12 12.0193C7.1 12.2693 6.89 12.4593 6.64 12.4493C6.39 12.4293 6.2 12.2193 6.21 11.9693V11.8093C2.94 17.2593 3.16 24.1593 6.77 29.3793C8.63 32.0793 11.28 34.1793 14.38 35.3693C14.62 35.4593 14.73 35.7193 14.65 35.9593C14.56 36.1993 14.3 36.3093 14.06 36.2293C7.46 33.7193 3 27.3593 3 20.1893C3 17.0793 3.83 14.0893 5.38 11.4593L5.3 11.4993L5.28 11.4893Z" fill="#383F51"/>
</svg>
