<svg width="45" height="45" viewBox="0 0 45 45" fill="none" xmlns="http://www.w3.org/2000/svg">
<path d="M35.1757 20.4285C36.5981 20.4267 37.9701 19.9015 39.03 18.953C40.0899 18.0045 40.7637 16.6991 40.9229 15.2856H26.8572C27.0163 16.6991 27.6901 18.0045 28.7501 18.953C29.81 19.9015 31.182 20.4267 32.6043 20.4285H35.1757Z" fill="#373F51"/>
<path d="M39.0328 10.1429C39.0328 8.77889 38.491 7.47078 37.5265 6.50631C36.562 5.54184 35.2539 5 33.8899 5C32.526 5 31.2179 5.54184 30.2534 6.50631C29.2889 7.47078 28.7471 8.77889 28.7471 10.1429C28.7461 10.8746 28.9029 11.598 29.2069 12.2636C29.5109 12.9293 29.9548 13.5215 30.5085 14H33.2471V13.3571C32.7361 13.3556 32.2464 13.1519 31.8851 12.7906C31.5237 12.4292 31.32 11.9396 31.3185 11.4286C31.3185 11.2581 31.3862 11.0946 31.5068 10.974C31.6274 10.8534 31.7909 10.7857 31.9614 10.7857C32.1319 10.7857 32.2954 10.8534 32.4159 10.974C32.5365 11.0946 32.6042 11.2581 32.6042 11.4286C32.6042 11.5991 32.6719 11.7626 32.7925 11.8831C32.9131 12.0037 33.0766 12.0714 33.2471 12.0714H34.5328C34.7033 12.0714 34.8668 12.0037 34.9874 11.8831C35.1079 11.7626 35.1756 11.5991 35.1756 11.4286C35.1756 11.2581 35.1079 11.0946 34.9874 10.974C34.8668 10.8534 34.7033 10.7857 34.5328 10.7857H33.2471C32.7356 10.7857 32.245 10.5825 31.8834 10.2208C31.5217 9.85917 31.3185 9.36863 31.3185 8.85714C31.3185 8.34565 31.5217 7.85511 31.8834 7.49344C32.245 7.13176 32.7356 6.92857 33.2471 6.92857V6.28571C33.2471 6.11522 33.3148 5.9517 33.4354 5.83115C33.5559 5.71059 33.7194 5.64286 33.8899 5.64286C34.0604 5.64286 34.2239 5.71059 34.3445 5.83115C34.4651 5.9517 34.5328 6.11522 34.5328 6.28571V6.92857C35.0438 6.9301 35.5335 7.13378 35.8948 7.49512C36.2562 7.85647 36.4598 8.34612 36.4614 8.85714C36.4614 9.02764 36.3936 9.19115 36.2731 9.31171C36.1525 9.43227 35.989 9.5 35.8185 9.5C35.648 9.5 35.4845 9.43227 35.3639 9.31171C35.2434 9.19115 35.1756 9.02764 35.1756 8.85714C35.1756 8.68665 35.1079 8.52313 34.9874 8.40257C34.8668 8.28202 34.7033 8.21429 34.5328 8.21429H33.2471C33.0766 8.21429 32.9131 8.28202 32.7925 8.40257C32.6719 8.52313 32.6042 8.68665 32.6042 8.85714C32.6042 9.02764 32.6719 9.19115 32.7925 9.31171C32.9131 9.43227 33.0766 9.5 33.2471 9.5H34.5328C35.0443 9.5 35.5348 9.70319 35.8965 10.0649C36.2582 10.4265 36.4614 10.9171 36.4614 11.4286C36.4614 11.9401 36.2582 12.4306 35.8965 12.7923C35.5348 13.154 35.0443 13.3571 34.5328 13.3571V14H37.2714C37.825 13.5215 38.269 12.9293 38.573 12.2636C38.8769 11.598 39.0338 10.8746 39.0328 10.1429Z" fill="#373F51"/>
<path d="M15.8899 32.6431H30.0327V37.7859H15.8899V32.6431Z" fill="#373F51"/>
<path d="M11.3899 39.0713H34.5327V40.9999H11.3899V39.0713Z" fill="#373F51"/>
<path d="M12.0328 15.1829L12.4249 14H11.6406L12.0328 15.1829Z" fill="#373F51"/>
<path d="M13.7815 14L12.9265 16.5714H17.5679L16.7129 14H13.7815Z" fill="#373F51"/>
<path d="M13.3186 22.9998C14.7409 22.998 16.1129 22.4728 17.1728 21.5243C18.2328 20.5758 18.9066 19.2704 19.0657 17.8569H5C5.15916 19.2704 5.83295 20.5758 6.89289 21.5243C7.95283 22.4728 9.32478 22.998 10.7471 22.9998H13.3186Z" fill="#373F51"/>
<path d="M13.4986 10.1431H10.5672L9.71216 12.7145H14.3536L13.4986 10.1431Z" fill="#373F51"/>
<path d="M7.3528 14L6.4978 16.5714H11.1392L10.2842 14H7.3528Z" fill="#373F51"/>
<path d="M12.0327 7.57143C12.2032 7.57143 12.3668 7.5037 12.4873 7.38314C12.6079 7.26258 12.6756 7.09907 12.6756 6.92857V5.64286C12.6756 5.47236 12.6079 5.30885 12.4873 5.18829C12.3668 5.06773 12.2032 5 12.0327 5C11.8623 5 11.6987 5.06773 11.5782 5.18829C11.4576 5.30885 11.3899 5.47236 11.3899 5.64286V6.92857C11.3899 7.09907 11.4576 7.26258 11.5782 7.38314C11.6987 7.5037 11.8623 7.57143 12.0327 7.57143Z" fill="#373F51"/>
<path d="M8.26189 8.11119C8.34775 8.25764 8.48804 8.36418 8.65216 8.40757C8.81628 8.45096 8.9909 8.42768 9.13791 8.3428C9.28493 8.25792 9.3924 8.11833 9.43688 7.95451C9.48135 7.79068 9.45923 7.61591 9.37532 7.46834L8.73247 6.35491C8.69056 6.28121 8.6345 6.21652 8.56749 6.16458C8.50049 6.11263 8.42387 6.07446 8.34205 6.05224C8.26024 6.03003 8.17483 6.02422 8.09076 6.03515C8.00669 6.04608 7.9256 6.07352 7.85218 6.11592C7.77876 6.15831 7.71445 6.2148 7.66295 6.28215C7.61145 6.3495 7.57379 6.42636 7.55212 6.50833C7.53045 6.59029 7.5252 6.67573 7.53669 6.75973C7.54817 6.84373 7.57616 6.92463 7.61904 6.99776L8.26189 8.11119Z" fill="#373F51"/>
<path d="M14.9257 8.34648C15.0733 8.43172 15.2488 8.45482 15.4135 8.4107C15.5781 8.36657 15.7186 8.25884 15.8038 8.11119L16.4467 6.99776C16.4895 6.92463 16.5175 6.84373 16.529 6.75973C16.5405 6.67573 16.5352 6.59029 16.5136 6.50833C16.4919 6.42636 16.4542 6.3495 16.4027 6.28215C16.3512 6.2148 16.2869 6.15831 16.2135 6.11592C16.1401 6.07352 16.059 6.04608 15.9749 6.03515C15.8909 6.02422 15.8055 6.03003 15.7236 6.05224C15.6418 6.07446 15.5652 6.11263 15.4982 6.16458C15.4312 6.21652 15.3751 6.28121 15.3332 6.35491L14.6904 7.46834C14.6051 7.61599 14.582 7.79145 14.6262 7.95613C14.6703 8.12082 14.778 8.26123 14.9257 8.34648Z" fill="#373F51"/>
<path d="M15.8899 32.6431H30.0327V37.7859H15.8899V32.6431Z" fill="#373F51"/>
<path d="M11.3899 39.0713H34.5327V40.9999H11.3899V39.0713Z" fill="#373F51"/>
<path d="M18.4614 30.335V31.3571H27.4614V30.335L22.9614 25.835L18.4614 30.335Z" fill="#373F51"/>
<path d="M33.247 23.7458V24.9286C33.247 25.0991 33.3148 25.2627 33.4353 25.3832C33.5559 25.5038 33.7194 25.5715 33.8899 25.5715C34.0604 25.5715 34.2239 25.5038 34.3445 25.3832C34.465 25.2627 34.5327 25.0991 34.5327 24.9286V21.7144H33.247V22.4472L23.6042 23.8615V23.0001C23.6042 22.8296 23.5364 22.6661 23.4159 22.5455C23.2953 22.4249 23.1318 22.3572 22.9613 22.3572C22.7908 22.3572 22.6273 22.4249 22.5068 22.5455C22.3862 22.6661 22.3185 22.8296 22.3185 23.0001V24.0544L12.6756 25.4686V24.2858H11.3899V27.5001C11.3899 27.6706 11.4576 27.8341 11.5782 27.9546C11.6987 28.0752 11.8623 28.1429 12.0327 28.1429C12.2032 28.1429 12.3668 28.0752 12.4873 27.9546C12.6079 27.8341 12.6756 27.6706 12.6756 27.5001V26.7672L33.247 23.7458Z" fill="#373F51"/>
</svg>
