<svg width="45" height="45" viewBox="0 0 45 45" fill="none" xmlns="http://www.w3.org/2000/svg">
<path d="M26.5606 32.8781V31.065C26.5606 30.8198 26.6994 30.5949 26.9215 30.4802C30.7736 28.493 32.744 24.1943 31.6968 20.0609C30.65 15.9275 26.8557 13.0244 22.5 13.0244C18.1443 13.0244 14.3501 15.9275 13.3032 20.0609C12.256 24.1943 14.2265 28.493 18.0786 30.4802C18.3006 30.5949 18.4394 30.8198 18.4394 31.065V32.8781H26.5606ZM15.9591 22.1243L16.8592 21.1357L19.4546 23.3914L22.0499 21.1357C22.3064 20.9132 22.6923 20.9132 22.9488 21.1357L25.5468 23.3921L28.1441 21.1357L29.043 22.1282L25.9975 24.7748C25.7411 24.9977 25.3545 24.9977 25.098 24.7748L22.5 22.5153L19.9013 24.7709C19.6449 24.9939 19.2583 24.9939 19.0019 24.7709L15.9591 22.1243Z" fill="#373F51"/>
<path d="M33.666 37.3902L37.4941 33.5703L34.6042 30.051C34.4309 29.8397 34.4061 29.5435 34.5422 29.3065C35.1274 28.2904 35.5798 27.2038 35.8882 26.0731C35.9595 25.8094 36.1869 25.6171 36.4595 25.5898L41 25.1406V19.7468L36.4595 19.2943C36.1869 19.2667 35.9595 19.0744 35.8882 18.8107C35.5794 17.6804 35.1271 16.5935 34.5422 15.5773C34.4061 15.3403 34.4309 15.0444 34.6042 14.8332L37.4941 11.3103L33.666 7.49389L30.1334 10.3758C29.9211 10.5482 29.624 10.5723 29.3865 10.4363C28.3664 9.85392 27.276 9.40307 26.142 9.09469C25.8774 9.0233 25.6848 8.79659 25.6574 8.52518L25.209 4H19.7978L19.3439 8.52518C19.3164 8.79659 19.1238 9.0233 18.8596 9.09469C17.7253 9.40307 16.6349 9.85392 15.6148 10.4363C15.3773 10.5723 15.0802 10.5482 14.8682 10.3758L11.334 7.49389L7.50585 11.3103L10.3958 14.8316C10.5691 15.0428 10.5939 15.339 10.4578 15.576C9.87287 16.5922 9.42057 17.6788 9.11182 18.8094C9.04053 19.0731 8.81308 19.2654 8.54047 19.2931L4 19.7433V25.1406L8.54047 25.593C8.81308 25.6203 9.04053 25.8126 9.11182 26.0763C9.42024 27.207 9.87255 28.2936 10.4578 29.3101C10.5939 29.5467 10.5691 29.8429 10.3958 30.0542L7.50585 33.5703L11.334 37.3902L14.1578 35.0852L14.5759 35.5955H16.0045C15.9312 35.3894 15.8935 35.172 15.8929 34.9534C15.8964 34.1192 16.4252 33.377 17.2143 33.0988V31.5611C13.15 29.2245 11.1178 24.4964 12.2251 19.952C13.3326 15.4072 17.3137 12.1348 22.0006 11.9168C26.8721 11.685 31.2703 14.8068 32.644 19.4715C34.0177 24.136 32.01 29.1319 27.7857 31.5617V33.0988C28.5748 33.377 29.1036 34.1192 29.1071 34.9534C29.1068 35.1704 29.07 35.3859 28.9981 35.5907H30.4228L30.8409 35.081L33.666 37.3902ZM34.3929 21.7817H35.7143V23.0989H34.3929V21.7817ZM10.6071 23.0989H9.28571V21.7817H10.6071V23.0989ZM13.6226 30.3571L14.5576 31.2884L13.6233 32.2203L12.6883 31.289L13.6226 30.3571ZM13.6226 14.5235L12.6883 13.5916L13.6233 12.6603L14.5576 13.5922L13.6226 14.5235ZM23.1607 10.5858H21.8393V9.26866H23.1607V10.5858ZM31.3774 14.5235L30.4424 13.5922L31.3767 12.6603L32.3117 13.5916L31.3774 14.5235ZM31.3774 30.3571L32.3117 31.289L31.3767 32.2203L30.4424 31.2884L31.3774 30.3571Z" fill="#373F51"/>
<path d="M26.5609 37.3901H18.439V37.9918C18.4413 39.6524 19.9549 40.9978 21.8231 40.9999H23.1768C25.045 40.9978 26.5586 39.6524 26.5609 37.9918V37.3901Z" fill="#373F51"/>
<path d="M18.157 35.5855H26.843C27.1857 35.5855 27.4635 35.3835 27.4635 35.1343C27.4635 34.8851 27.1857 34.6831 26.843 34.6831H18.157C17.8144 34.6831 17.5366 34.8851 17.5366 35.1343C17.5366 35.3835 17.8144 35.5855 18.157 35.5855Z" fill="#373F51"/>
</svg>
