<svg width="64" height="64" viewBox="0 0 64 64" fill="none" xmlns="http://www.w3.org/2000/svg">
<path d="M42.9012 47.0813L37.9747 52.285L38.9845 59.4733C39.0083 59.6426 38.9389 59.8115 38.8043 59.912C38.7262 59.9703 38.6337 60 38.5405 60C38.4728 60 38.4052 59.9843 38.3424 59.9526L31.9999 56.7463L25.6607 59.9526C25.5116 60.028 25.3338 60.0127 25.199 59.912C25.0643 59.8115 24.9949 59.6427 25.0186 59.4734L26.0255 52.285L21.0988 47.0811C20.9827 46.9585 20.9422 46.7799 20.9937 46.6174C21.0451 46.4547 21.18 46.3347 21.3441 46.3056L28.3093 45.0709L31.6031 38.6487C31.6807 38.4975 31.8334 38.4027 31.9999 38.4027C32.1663 38.4027 32.3192 38.4973 32.3968 38.6486L35.6939 45.071L42.6559 46.3057C42.8199 46.3347 42.9548 46.4548 43.0063 46.6175C43.0577 46.7802 43.0174 46.9587 42.9012 47.0813ZM14.3653 38.384L12.5237 43.5178L13.3322 44.3484L13.689 44.2852L15.7697 40.2291C16.1591 39.4702 16.9194 38.9989 17.7541 38.9989C18.5887 38.9989 19.3493 39.4702 19.7385 40.229L21.8191 44.2852L22.0036 44.3179L27.1333 43.4085L27.6235 42.453C21.9217 40.5448 17.8806 35.0186 17.8806 28.6571C17.8806 20.6585 24.2145 14.1512 31.9999 14.1512C39.7853 14.1512 46.1192 20.6585 46.1192 28.6571C46.1192 35.018 42.079 40.5436 36.3782 42.4523L36.8691 43.4085L41.9963 44.3179L42.1807 44.2852L44.2613 40.2291C44.6506 39.4705 45.4107 38.9993 46.245 38.9989C47.08 38.9989 47.8403 39.4699 48.2296 40.2279L50.3134 44.2852L50.6686 44.3482L51.4762 43.5173L49.6347 38.384L51.1652 34.5918L56 32.3009V25.0169L51.1653 22.7225L49.6347 18.9301L51.4763 13.7963L46.4646 8.64755L41.4677 10.5395L37.7764 8.96707L35.5432 4H28.4568L26.2235 8.96707L22.5323 10.5395L17.5354 8.64755L12.5237 13.7963L14.3653 18.9301L12.8347 22.7225L8 25.0169V32.2973L12.8347 34.5916L14.3653 38.3841V38.384ZM30.0154 37.7894C30.4049 37.0306 31.165 36.5595 31.9992 36.5591H32C32.8343 36.5591 33.5945 37.03 33.9838 37.7883L35.5247 40.7899V36.3292C35.5247 35.8202 35.9265 35.4074 36.422 35.4074C36.9175 35.4074 37.3192 35.8202 37.3192 36.3292V40.0824C38.0588 39.7178 38.7562 39.2798 39.4033 38.7781V35.7642C39.4033 33.553 37.4854 31.754 35.1281 31.754H28.8716C26.516 31.754 24.5995 33.553 24.5995 35.7642V38.7806C25.2468 39.2819 25.944 39.7195 26.6836 40.0839V36.3292C26.6836 35.8202 27.0853 35.4074 27.5808 35.4074C28.0763 35.4074 28.4781 35.8202 28.4781 36.3292V40.7865L30.0153 37.7894H30.0154ZM31.9999 21.1684C30.1878 21.1684 28.7134 22.6816 28.7134 24.5416C28.7134 26.5308 29.733 29.3323 31.9999 29.3323C34.2668 29.3323 35.2864 26.5309 35.2864 24.5416C35.2864 22.6816 33.812 21.1684 31.9999 21.1684ZM44.3247 28.657C44.3247 21.6749 38.7959 15.9947 31.9999 15.9947C25.2039 15.9947 19.6751 21.6749 19.6751 28.657C19.6751 31.8644 20.8523 34.8282 22.805 37.0811V35.7642C22.805 32.5364 25.5265 29.9104 28.8716 29.9104H28.9278C27.6098 28.6252 26.9188 26.5444 26.9188 24.5416C26.9188 21.665 29.198 19.3248 31.9998 19.3248C34.8015 19.3248 37.0808 21.665 37.0808 24.5416C37.0808 26.5444 36.3898 28.6252 35.0717 29.9104H35.128C38.4749 29.9104 41.1977 32.5364 41.1977 35.7642V37.0774C43.1486 34.825 44.3245 31.8627 44.3245 28.657H44.3247ZM22.4312 51.5949L22.6499 51.3639L19.8123 48.3666C19.2303 47.752 19.0288 46.8631 19.287 46.0472C19.4365 45.5741 19.726 45.1751 20.1032 44.8944L18.151 41.0886C18.0734 40.9373 17.9205 40.8425 17.7541 40.8425C17.5876 40.8425 17.4348 40.9373 17.3572 41.0886L14.8646 45.9475L9.59284 46.8823C9.42887 46.9113 9.29394 47.0314 9.24246 47.1941C9.19109 47.3568 9.23147 47.5354 9.34766 47.6579L13.077 51.595L12.3137 57.0334C12.29 57.2026 12.3594 57.3716 12.494 57.472C12.6287 57.5725 12.8067 57.5881 12.9558 57.5127L17.7539 55.0864L22.5519 57.5127C22.6147 57.5444 22.6824 57.5601 22.7501 57.5601C22.8432 57.5601 22.9357 57.5303 23.0137 57.472C23.1484 57.3715 23.2179 57.2026 23.1941 57.0334L22.4309 51.5949H22.4312ZM54.7573 47.1941C54.7058 47.0314 54.571 46.9113 54.4069 46.8821L49.1381 45.9474L46.6425 41.0882C46.5649 40.937 46.412 40.8424 46.2457 40.8424C46.0793 40.8424 45.9265 40.9371 45.8489 41.0884L43.8967 44.8944C44.2735 45.1749 44.5631 45.5739 44.713 46.0471C44.9709 46.8639 44.7694 47.7522 44.1874 48.3668L41.3517 51.3622L41.5721 51.595L40.8088 57.0335C40.7851 57.2028 40.8545 57.3717 40.9892 57.4722C41.124 57.5728 41.3015 57.5882 41.451 57.5127L46.2458 55.0865L51.0437 57.5128C51.1065 57.5445 51.1743 57.5602 51.2419 57.5602C51.335 57.5602 51.4275 57.5305 51.5056 57.4722C51.6403 57.3716 51.7097 57.2028 51.6859 57.0335L50.9227 51.5951L54.652 47.658C54.7682 47.5355 54.8086 47.3569 54.7572 47.1942L54.7573 47.1941Z" fill="#383F51"/>
</svg>
