<svg width="45" height="45" viewBox="0 0 45 45" fill="none" xmlns="http://www.w3.org/2000/svg">
<path fill-rule="evenodd" clip-rule="evenodd" d="M30.4928 40.7648H6.62856C6.29333 40.7648 6 40.4715 6 40.1363V9.735C6 9.39977 6.29333 9.10645 6.62856 9.10645H12.118V9.735C12.118 10.4264 12.6837 10.9921 13.3751 10.9921H14.1503V11.8302H9.07993C8.89137 11.8302 8.72375 11.9978 8.72375 12.1864V37.6849C8.72375 37.8735 8.89137 38.0411 9.07993 38.0411H28.0624C28.251 38.0411 28.3976 37.8735 28.3976 37.6849V30.5612C28.3976 30.3727 28.251 30.205 28.0624 30.205C27.8738 30.205 27.7062 30.3727 27.7062 30.5612V37.3287H9.41517V12.5426H27.0567C27.2453 12.5426 27.3919 12.3749 27.3919 12.1864C27.3919 11.9978 27.2453 11.8302 27.0567 11.8302H22.9711V10.9921H23.7463C24.4377 10.9921 25.0034 10.4264 25.0034 9.735V9.10645H30.4928C30.849 9.10645 31.1214 9.39977 31.1214 9.735V12.6683H29.1309C28.4395 12.6683 27.8738 13.234 27.8738 13.9254V14.6797L27.3291 14.1559C26.8681 13.674 26.051 13.674 25.5691 14.1559L23.6206 16.1044C23.1177 16.5863 23.1177 17.3825 23.6206 17.8853L24.1444 18.4091H23.3901C22.6987 18.4091 22.133 18.9748 22.133 19.6662V22.4109C22.133 23.1023 22.6987 23.668 23.3901 23.668H24.1444L23.6206 24.1918C23.1177 24.6947 23.1177 25.4909 23.6206 25.9728L25.5691 27.9213C26.051 28.4241 26.8472 28.4241 27.3291 27.9213L27.8738 27.3975V28.1518C27.8738 28.8432 28.4395 29.4089 29.1309 29.4089H31.1214V40.1363C31.1214 40.4715 30.849 40.7648 30.4928 40.7648ZM12.0551 32.2793C12.1599 32.2793 12.2437 32.2374 12.3065 32.1745L14.7998 29.6812C14.9255 29.5555 14.9255 29.3251 14.7998 29.1994C14.6531 29.0527 14.4436 29.0527 14.297 29.1994L12.0551 31.4412L11.3008 30.666C11.1751 30.5403 10.9447 30.5403 10.8189 30.666C10.6723 30.8127 10.6723 31.0222 10.8189 31.1688L11.8037 32.1745C11.8875 32.2374 11.9713 32.2793 12.0551 32.2793ZM12.0551 26.6851C12.1599 26.6851 12.2437 26.6432 12.3065 26.5804L14.7998 24.0871C14.9255 23.9614 14.9255 23.7309 14.7998 23.6052C14.6531 23.4585 14.4436 23.4585 14.297 23.6052L12.0551 25.847L11.3008 25.0928C11.1751 24.9461 10.9447 24.9461 10.8189 25.0928C10.6723 25.2185 10.6723 25.449 10.8189 25.5747L11.8037 26.5804C11.8875 26.6432 11.9713 26.6851 12.0551 26.6851ZM12.0551 21.091C12.1599 21.091 12.2437 21.049 12.3065 20.9862L14.7998 18.4929C14.9255 18.3672 14.9255 18.1367 14.7998 18.011C14.6531 17.8644 14.4436 17.8644 14.297 18.011L12.0551 20.2529L11.3008 19.4986C11.1751 19.3519 10.9447 19.3519 10.8189 19.4986C10.6723 19.6243 10.6723 19.8548 10.8189 19.9805L11.8037 20.9862C11.8875 21.049 11.9713 21.091 12.0551 21.091ZM25.632 35.0659C25.8205 35.0659 25.9881 34.9192 25.9881 34.7307C25.9881 34.5211 25.8205 34.3745 25.632 34.3745H15.9731C15.7846 34.3745 15.6169 34.5211 15.6169 34.7307C15.6169 34.9192 15.7846 35.0659 15.9731 35.0659H25.632ZM25.632 32.2793C25.8205 32.2793 25.9881 32.1117 25.9881 31.9231C25.9881 31.7345 25.8205 31.5669 25.632 31.5669H15.9731C15.7846 31.5669 15.6169 31.7345 15.6169 31.9231C15.6169 32.1117 15.7846 32.2793 15.9731 32.2793H25.632ZM25.632 29.4717C25.8205 29.4717 25.9881 29.3251 25.9881 29.1365C25.9881 28.927 25.8205 28.7803 25.632 28.7803H16.9579C16.7693 28.7803 16.6226 28.927 16.6226 29.1365C16.6226 29.3251 16.7693 29.4717 16.9579 29.4717H25.632ZM22.133 26.6851C22.3425 26.6851 22.4892 26.5175 22.4892 26.3289C22.4892 26.1404 22.3425 25.9937 22.133 25.9937H15.9731C15.7846 25.9937 15.6169 26.1404 15.6169 26.3289C15.6169 26.5175 15.7846 26.6851 15.9731 26.6851H22.133ZM21.4416 23.8776C21.6301 23.8776 21.7978 23.7309 21.7978 23.5423C21.7978 23.3328 21.6301 23.1861 21.4416 23.1861H16.9579C16.7693 23.1861 16.6226 23.3328 16.6226 23.5423C16.6226 23.7309 16.7693 23.8776 16.9579 23.8776H21.4416ZM20.7502 21.091C20.9387 21.091 21.0854 20.9233 21.0854 20.7348C21.0854 20.5462 20.9387 20.3995 20.7502 20.3995H15.9731C15.7846 20.3995 15.6169 20.5462 15.6169 20.7348C15.6169 20.9233 15.7846 21.091 15.9731 21.091H20.7502ZM21.4416 18.2834C21.6301 18.2834 21.7978 18.1367 21.7978 17.9482C21.7978 17.7596 21.6301 17.592 21.4416 17.592H16.9579C16.7693 17.592 16.6226 17.7596 16.6226 17.9482C16.6226 18.1367 16.7693 18.2834 16.9579 18.2834H21.4416ZM13.396 15.1406C13.396 15.3501 13.5427 15.4968 13.7313 15.4968H22.6987C22.8873 15.4968 23.0549 15.3501 23.0549 15.1406C23.0549 14.952 22.8873 14.8054 22.6987 14.8054H13.7313C13.5427 14.8054 13.396 14.952 13.396 15.1406Z" fill="#373F51"/>
<path fill-rule="evenodd" clip-rule="evenodd" d="M14.7788 11.8303V10.3637H13.375C13.0398 10.3637 12.7465 10.0913 12.7465 9.73514V5.62856C12.7465 5.29333 13.0398 5 13.375 5H23.7462C24.1024 5 24.3748 5.29333 24.3748 5.62856V9.73514C24.3748 10.0913 24.1024 10.3637 23.7462 10.3637H22.3424V11.8303H14.7788ZM20.0168 8.14279C20.2053 8.14279 20.373 7.97517 20.373 7.78661C20.373 7.59804 20.2053 7.45138 20.0168 7.45138H17.1045C16.9159 7.45138 16.7692 7.59804 16.7692 7.78661C16.7692 7.97517 16.9159 8.14279 17.1045 8.14279H20.0168Z" fill="#373F51"/>
<path fill-rule="evenodd" clip-rule="evenodd" d="M31.8757 28.7804H29.131C28.7748 28.7804 28.5024 28.487 28.5024 28.1518V26.5804C28.3348 26.5175 28.1672 26.4547 27.9996 26.3709L26.8891 27.4813C26.6587 27.7328 26.2606 27.7328 26.0091 27.4813L24.0606 25.5328C23.8092 25.2814 23.8092 24.8833 24.0606 24.6528L25.1711 23.5424C25.0873 23.3748 25.0244 23.2071 24.9615 23.0395H23.3902C23.0549 23.0395 22.7616 22.7672 22.7616 22.411V19.6663C22.7616 19.3101 23.0549 19.0377 23.3902 19.0377H24.9615C25.0244 18.8701 25.0873 18.7025 25.1711 18.5349L24.0606 17.4244C23.8092 17.1939 23.8092 16.7958 24.0606 16.5444L26.0091 14.5959C26.2396 14.3654 26.6587 14.3654 26.8891 14.5959L27.9996 15.7063C28.1672 15.6225 28.3348 15.5597 28.5024 15.4968V13.9254C28.5024 13.5902 28.7748 13.2969 29.131 13.2969H31.8757C32.2319 13.2969 32.5042 13.5902 32.5042 13.9254V15.4968C32.6719 15.5597 32.8395 15.6225 33.0071 15.7063L34.0966 14.5959C34.348 14.3445 34.7461 14.3445 34.9975 14.5959L36.9461 16.5444C37.0718 16.6701 37.1346 16.8168 37.1346 16.9844C37.1346 17.152 37.0718 17.3196 36.9461 17.4244L35.8356 18.5349C35.9194 18.7025 35.9823 18.8701 36.0451 19.0377H37.6165C37.9518 19.0377 38.2241 19.3101 38.2241 19.6663V22.411C38.2241 22.7672 37.9518 23.0395 37.6165 23.0395H36.0451C35.9823 23.2071 35.9194 23.3748 35.8356 23.5424L36.9461 24.6528C37.1975 24.8833 37.1975 25.2814 36.9461 25.5328L34.9975 27.4813C34.7461 27.7328 34.348 27.7328 34.0966 27.4813L33.0071 26.3709C32.8395 26.4547 32.6719 26.5175 32.5042 26.5804V28.1518C32.5042 28.487 32.2319 28.7804 31.8757 28.7804ZM30.4929 23.8986C28.9215 23.8986 27.6434 22.6205 27.6434 21.0281C27.6434 19.4567 28.9215 18.1787 30.4929 18.1787C32.0852 18.1787 33.3633 19.4567 33.3633 21.0281C33.3633 22.6205 32.0852 23.8986 30.4929 23.8986Z" fill="#373F51"/>
<path fill-rule="evenodd" clip-rule="evenodd" d="M36.548 40.7651H32.9442C32.588 40.7651 32.3157 40.4718 32.3157 40.1366V36.5328C32.3157 36.1766 32.588 35.9043 32.9442 35.9043H36.548C36.8832 35.9043 37.1765 36.1766 37.1765 36.5328V40.1366C37.1765 40.4718 36.8832 40.7651 36.548 40.7651ZM36.548 34.731H32.9442C32.588 34.731 32.3157 34.4376 32.3157 34.1024V30.4987C32.3157 30.1425 32.588 29.8701 32.9442 29.8701H36.548C36.8832 29.8701 37.1765 30.1425 37.1765 30.4987V34.1024C37.1765 34.4376 36.8832 34.731 36.548 34.731Z" fill="#373F51"/>
</svg>
