<svg width="64" height="64" viewBox="0 0 64 64" fill="none" xmlns="http://www.w3.org/2000/svg">
<path d="M11 33.2285V52.9989H30.7695V33.2285H11Z" fill="#383F51"/>
<path d="M50.5391 13.4593H48.0782V11H45.6046V13.4593H38.1839V11H35.7103V13.4593H28.2897V11H25.8161V13.4593H18.3954V11H15.9219V13.4593H13.461V15.9203H11.0507V18.394H13.461V25.8149H11.0507V28.2887H13.461V30.7686H31.4904L42.2425 20.016H38.9021V17.5549H46.4436V25.0969H43.9827V21.7561L33.2305 32.5088V50.539H35.7104V53H38.184V50.539H45.6047V53H48.0782V50.539H50.5391V48.0779H53V45.6042H50.5391V38.1833H53V35.7096H50.5391V28.2887H53V25.8149H50.5391V18.394H53V15.9203H50.5391V13.4593Z" fill="#383F51"/>
</svg>
