<svg width="64" height="64" viewBox="0 0 64 64" fill="none" xmlns="http://www.w3.org/2000/svg">
<path fill-rule="evenodd" clip-rule="evenodd" d="M14.2043 20.0345C15.4704 20.0345 16.2365 20.6092 16.6566 21.0909C17.1809 21.6936 17.4736 22.4976 17.4736 23.3539V23.3899C17.4736 23.3981 17.4783 23.4062 17.4783 23.4155L21.7071 40.7945H21.7638L25.9879 23.4155C25.9925 23.4074 25.9925 23.3993 25.9972 23.3899C25.9972 23.3783 25.9972 23.3655 25.9972 23.3539C25.9972 22.4976 26.2853 21.6936 26.8096 21.0909C27.2297 20.6092 28.0005 20.0345 29.2665 20.0345C31.0858 20.0345 32.5695 21.5261 32.5695 23.3585C32.5695 25.191 31.0858 26.6814 29.2665 26.6814C28.218 26.6814 27.4137 26.2835 26.8663 25.6843L23.193 40.7945H25.5042C25.8872 40.7945 26.1985 41.1074 26.1985 41.4925V45.4391H28.0467C28.453 43.4402 29.4262 41.8334 30.3336 40.5908C29.233 38.9038 28.5895 36.8875 28.5895 34.7234C28.5895 29.0759 32.956 24.4348 38.4706 24.031C38.4706 23.9659 38.4706 23.9019 38.4706 23.8379C38.4706 23.8332 38.4706 23.8274 38.4706 23.8216C38.4706 14.5463 30.962 7 21.7383 7C12.51 7 5.00605 14.5463 5.00605 23.8216V23.8379C4.84518 30.7187 7.92129 34.3302 10.9037 37.8241C12.9116 40.1813 14.8165 42.4175 15.431 45.4391H17.2734V41.4925C17.2734 41.1074 17.5847 40.7945 17.9678 40.7945H20.2789L16.5999 25.6843C16.0513 26.2835 15.2482 26.6814 14.2043 26.6814C12.3804 26.6814 10.8967 25.191 10.8967 23.3585C10.8967 21.5261 12.3804 20.0345 14.2043 20.0345ZM26.945 55.4718H16.5258L18.2085 57.1553C18.7756 57.7231 19.4133 58 20.1644 58H23.3111C24.0575 58 24.6998 57.7231 25.2669 57.1553L26.945 55.4718ZM27.9322 51.1529H15.5375V54.0756H27.9322V51.1529ZM27.9322 46.8352H15.5375V49.7579H27.9322V46.8352ZM24.8086 45.4391H18.661V42.1906H24.8086V45.4391ZM49.8769 35.6775C49.4661 40.3349 46.0821 44.1453 41.6497 45.1726V56.5177H45.8321C45.7569 56.2048 45.7187 55.8825 45.7187 55.5579C45.7187 53.2821 47.5611 51.4298 49.8248 51.4298C52.0885 51.4298 53.9309 53.2821 53.9309 55.5579C53.9309 55.8825 53.8927 56.2048 53.8175 56.5177H58V51.7731C57.7072 51.8394 57.4051 51.8731 57.1019 51.8731C54.8383 51.8731 53.0005 50.0209 53.0005 47.7451C53.0005 45.4693 54.8383 43.6182 57.1019 43.6182C57.404 43.6182 57.7072 43.652 58 43.7183V40.0789H53.1C52.8778 40.0789 52.6753 39.9754 52.5422 39.7985C52.4102 39.6228 52.372 39.3936 52.4334 39.183C52.504 38.9329 52.5422 38.6723 52.5422 38.4082C52.5422 36.9177 51.3513 35.7031 49.8769 35.6775ZM41.6497 11.4014V24.2754C43.1715 24.6279 44.5695 25.3109 45.7708 26.2428C46.0775 24.2684 47.7787 22.7535 49.8248 22.7535C52.0885 22.7535 53.9309 24.6058 53.9309 26.8816C53.9309 27.2062 53.8927 27.5284 53.8175 27.8414H58V23.0968C57.7072 23.1631 57.4051 23.1968 57.1019 23.1968C54.8383 23.1968 53.0005 21.3457 53.0005 19.0699C53.0005 16.793 54.8383 14.9419 57.1019 14.9419C57.404 14.9419 57.7072 14.9757 58 15.042V11.4014H53.1C52.8778 11.4014 52.6753 11.2979 52.5422 11.1222C52.4102 10.9465 52.372 10.7173 52.4334 10.5067C52.504 10.2566 52.5422 9.99596 52.5422 9.73185C52.5422 8.22514 51.3235 7 49.8248 7C48.3273 7 47.1075 8.22514 47.1075 9.73185C47.1075 9.9948 47.1457 10.2554 47.2209 10.5067C47.2822 10.7185 47.2394 10.9465 47.1121 11.1222C46.9802 11.2979 46.7719 11.4014 46.5543 11.4014H41.6497ZM39.254 25.3981C44.367 25.3981 48.5298 29.582 48.5298 34.7234C48.5298 39.8648 44.367 44.0487 39.254 44.0487C34.1365 44.0487 29.9783 39.8648 29.9783 34.7234C29.9783 29.582 34.1365 25.3981 39.254 25.3981ZM42.8602 31.6518C43.1298 31.3796 43.5685 31.3796 43.8427 31.6518C44.1124 31.9241 44.1124 32.3662 43.8427 32.6385L38.7113 37.795C38.5793 37.9311 38.4 37.9998 38.2194 37.9998C38.0447 37.9998 37.8653 37.9311 37.7276 37.795L34.6653 34.7141C34.3911 34.4419 34.3911 33.9997 34.6653 33.7275C34.935 33.4552 35.3736 33.4552 35.6433 33.7275L38.2183 36.3151L42.8602 31.6518ZM27.3882 23.3539C27.3882 22.8431 27.5584 22.3545 27.8558 22.0124C28.1914 21.6261 28.6682 21.4306 29.2689 21.4306C30.3232 21.4306 31.183 22.2951 31.183 23.3585C31.183 24.4208 30.3232 25.2853 29.2689 25.2853C27.9704 25.2853 27.3882 24.3149 27.3882 23.3539ZM15.6127 22.0124C15.9148 22.3545 16.0849 22.8443 16.0849 23.3539C16.0849 24.3149 15.5039 25.2853 14.2043 25.2853C13.1453 25.2853 12.2855 24.4208 12.2855 23.3585C12.2855 22.2963 13.1453 21.4306 14.2043 21.4306C14.8049 21.4306 15.2771 21.6273 15.6127 22.0124Z" fill="#383F51"/>
</svg>
