<svg width="45" height="45" viewBox="0 0 45 45" fill="none" xmlns="http://www.w3.org/2000/svg">
<path d="M27.6808 36.7608C27.6808 36.9331 27.5701 37.0898 27.4041 37.1602C27.3487 37.1524 27.3013 37.1524 27.2459 37.1524H18.7462C18.6908 37.1524 18.6355 37.1524 18.5801 37.1602C18.4141 37.0976 18.3113 36.9331 18.3113 36.7608C18.3113 36.5259 18.5089 36.3301 18.7462 36.3301H27.2459C27.4911 36.3301 27.6808 36.5259 27.6808 36.7608ZM23 42C24.1149 42 25.0558 41.2325 25.3088 40.1988H20.6991C20.9442 41.2325 21.8851 42 23 42ZM27.2538 38.2488H18.7462C18.5089 38.2488 18.3113 38.4446 18.3113 38.6795C18.3113 38.9145 18.5089 39.1102 18.7462 39.1102H27.2459C27.4831 39.1102 27.6808 38.9145 27.6808 38.6795C27.6808 38.4367 27.4911 38.2488 27.2538 38.2488ZM16.4532 24.262C15.9076 24.4657 15.5439 24.9904 15.5439 25.5699C15.5439 26.0319 15.7811 26.4627 16.1606 26.7211H29.5943C30.1319 26.4078 30.4561 25.844 30.4561 25.2253C30.4561 24.5596 30.0687 23.9566 29.4757 23.6669C29.4282 23.659 29.3808 23.6512 29.3491 23.6434C28.4636 23.5102 27.6255 24.0819 27.4357 24.9434C27.3804 25.2018 27.1511 25.3741 26.898 25.3741C26.8585 25.3741 26.819 25.3663 26.7794 25.3584C26.479 25.2958 26.2892 25.006 26.3525 24.7084C26.6371 23.4006 27.831 22.5 29.1436 22.5235C29.1752 22.3825 29.1989 22.2416 29.1989 22.0928C29.1989 21.1373 28.4161 20.3542 27.4515 20.3542C27.2459 20.3542 27.0404 20.3934 26.8506 20.456C26.5739 20.5578 26.2655 20.4247 26.1469 20.1584C25.8702 19.5241 25.2376 19.109 24.5339 19.109C24.1307 19.109 23.7591 19.2422 23.4507 19.4849C23.2451 19.6494 22.9526 19.6416 22.747 19.4771C22.4307 19.2108 22.0354 19.0699 21.6242 19.0699C20.9126 19.0699 20.2959 19.4849 20.0191 20.1036C20.6517 20.597 21.047 21.3331 21.0787 22.1476C21.0945 22.453 20.8573 22.7036 20.5489 22.7193C20.541 22.7193 20.5331 22.7193 20.5252 22.7193C20.2326 22.7193 19.9875 22.4922 19.9717 22.1946C19.9401 21.5681 19.5605 21.012 18.9834 20.7458L18.7303 20.6283C18.588 20.597 18.4457 20.5813 18.2955 20.5813C17.2597 20.5813 16.4216 21.4114 16.4216 22.4373C16.4216 22.7898 16.5243 23.1343 16.7141 23.4319C16.8011 23.5729 16.8248 23.7452 16.7695 23.9018C16.7299 24.0741 16.6113 24.1994 16.4532 24.262ZM23.7195 27.8175H22.2805V35.2416H23.7195V27.8175ZM23 12.7578C17.1332 12.7578 12.3654 17.4801 12.3654 23.291C12.3654 26.0554 13.4407 28.6633 15.3858 30.6446C15.7495 31.0127 16.129 31.3416 16.5006 31.6548C17.5522 32.5476 18.6355 33.4639 18.9675 35.2416H21.1735V27.8175H16.0104C15.9155 27.8175 15.8285 27.794 15.7416 27.747C14.9351 27.3084 14.437 26.4705 14.437 25.562C14.437 24.7398 14.856 23.9723 15.5202 23.5102C15.3937 23.1735 15.3225 22.8211 15.3225 22.453C15.3225 20.8241 16.6588 19.5006 18.3034 19.5006C18.5564 19.5006 18.8015 19.5319 19.0387 19.5946C19.5052 18.6235 20.4936 17.9813 21.6242 17.9813C22.154 17.9813 22.6679 18.1301 23.1186 18.3964C23.5456 18.1536 24.0437 18.0205 24.5418 18.0205C25.5223 18.0205 26.4157 18.5139 26.9376 19.3048C27.1036 19.2735 27.2776 19.2578 27.4515 19.2578C29.025 19.2578 30.3059 20.5265 30.3059 22.0928C30.3059 22.3355 30.2742 22.5783 30.211 22.8133C31.0333 23.3223 31.5551 24.2307 31.5551 25.2175C31.5551 26.2982 30.9463 27.2693 29.9738 27.7548C29.8947 27.794 29.8156 27.8096 29.7287 27.8096H24.8186V35.2337H26.8743C27.5385 33.1976 28.1315 32.6729 29.1594 31.8819C29.5626 31.5765 30.0212 31.2241 30.5826 30.6524C32.5435 28.6711 33.6267 26.0476 33.6267 23.2753C33.6346 17.4801 28.8589 12.7578 23 12.7578ZM23 8.01205C23.3084 8.01205 23.5535 7.76928 23.5535 7.46386V3.54819C23.5535 3.24277 23.3084 3 23 3C22.6916 3 22.4465 3.24277 22.4465 3.54819V7.46386C22.4465 7.76928 22.6916 8.01205 23 8.01205ZM8.50687 21.2705H4.55347C4.24511 21.2705 4 21.5133 4 21.8187C4 22.1241 4.24511 22.3669 4.55347 22.3669H8.50687C8.81523 22.3669 9.06034 22.1241 9.06034 21.8187C9.06034 21.5133 8.81523 21.2705 8.50687 21.2705ZM13.1481 12.053C13.3616 11.8416 13.3616 11.4892 13.1481 11.2777L10.3491 8.51325C10.1357 8.30181 9.77986 8.30181 9.56638 8.51325C9.35289 8.7247 9.35289 9.07711 9.56638 9.28855L12.3654 12.0608C12.4761 12.1705 12.6184 12.2253 12.7607 12.2253C12.903 12.2253 13.0375 12.1627 13.1481 12.053ZM41.4465 21.2705H37.4931C37.1848 21.2705 36.9397 21.5133 36.9397 21.8187C36.9397 22.1241 37.1848 22.3669 37.4931 22.3669H41.4465C41.7549 22.3669 42 22.1241 42 21.8187C42 21.5133 41.747 21.2705 41.4465 21.2705ZM35.6509 8.51325L32.8519 11.2855C32.6384 11.497 32.6384 11.8494 32.8519 12.0608C32.9625 12.1705 33.1049 12.2253 33.2472 12.2253C33.3895 12.2253 33.5318 12.1705 33.6425 12.0608L36.4415 9.28855C36.655 9.07711 36.655 8.7247 36.4415 8.51325C36.2201 8.29398 35.8643 8.29398 35.6509 8.51325Z" fill="#373F51"/>
</svg>
