<svg clip-rule="evenodd" fill-rule="evenodd" height="32" image-rendering="optimizeQuality" shape-rendering="geometricPrecision" text-rendering="geometricPrecision" viewBox="0 0 1706.66 1706.66" width="32"
    xmlns="http://www.w3.org/2000/svg"
    xmlns:xodm="http://www.corel.com/coreldraw/odm/2003">
    <g id="Layer_x0020_1">
        <path d="m562.84 861.83c-134.67 0-121.16 14.09-121.16-85.59-15.54-4.74-30.56-10.96-44.92-18.63-70.46 70.48-50.97 70.08-146.2-25.14-10.43-10.42-10.42-27.33-.02-37.72l41.68-41.67c-7.67-14.36-13.89-29.37-18.62-44.92-99.67.01-85.58 13.51-85.58-121.15 0-14.74 11.93-26.67 26.67-26.67l58.93-.01c4.73-15.55 10.96-30.56 18.62-44.91l-41.68-41.67c-10.43-10.42-10.42-27.32-.02-37.72l66.83-66.83c10.41-10.41 27.33-10.41 37.72.02l41.67 41.68c14.36-7.67 29.37-13.89 44.92-18.62-.01-99.68-13.52-85.59 121.16-85.59 14.73 0 26.67 11.93 26.67 26.67v58.93c15.54 4.74 30.56 10.96 44.92 18.62 70.38-70.4 51.46-69.62 146.2 25.15 10.41 10.42 10.41 27.29 0 37.7l-41.67 41.67c7.67 14.36 13.89 29.37 18.62 44.92 99.67-.01 85.57-13.52 85.57 121.15 0 14.73-11.93 26.67-26.67 26.67h-58.93c-4.73 15.54-10.96 30.56-18.62 44.92 70.43 70.41 70.16 50.98-25.14 146.2-10.42 10.4-27.31 10.4-37.7 0l-41.68-41.67c-14.36 7.67-29.36 13.89-44.92 18.63v58.91c0 14.72-11.93 26.66-26.67 26.66zm-47.25-165.37c-89.43 0-162.19-72.76-162.19-162.2 0-89.43 72.76-162.19 162.19-162.19 89.44 0 162.2 72.76 162.2 162.19 0 89.44-72.76 162.2-162.2 162.2z"/>
        <path d="m1582.45 1285.55h-1458.26c-56.1 0-101.72-45.63-101.72-101.72v-1082.07c0-56.1 45.63-101.72 101.72-101.72h1458.26c56.1 0 101.72 45.63 101.72 101.72v1082.07c0 56.09-45.62 101.72-101.72 101.72zm-1506.65-270.38h1555.03v-913.41c0-26.68-21.7-48.39-48.39-48.39h-1458.26c-26.68 0-48.39 21.7-48.39 48.39v913.41zm1439.76 152.06h-93.74c-35.11 0-35.11-53.33 0-53.33h93.74c35.11 0 35.1 53.33 0 53.33zm-201.38 0h-93.74c-35.11 0-35.11-53.33 0-53.33h93.74c35.11 0 35.11 53.33 0 53.33zm-216.14 0h-93.74c-35.11 0-35.11-53.33 0-53.33h93.74c35.11 0 35.11 53.33 0 53.33z"/>
        <path d="m1042.23 1491.2h-355.79c-14.74 0-26.67-11.93-26.67-26.67v-205.65c0-14.73 11.93-26.67 26.67-26.67h355.79c14.74 0 26.67 11.93 26.67 26.67v205.65c-.02 14.72-11.94 26.67-26.67 26.67z"/>
        <path d="m1252.76 1706.61h-776.86c-14.73 0-26.67-11.93-26.67-26.67v-137.09c0-57.9 47.11-105.01 105.01-105.01h620.18c57.9 0 105.01 47.11 105.01 105.01v137.09c-.01 14.74-11.96 26.67-26.68 26.67z"/>
        <path d="m948.74 560.93h-132.25c-35.11 0-35.11-53.33 0-53.33h132.25c35.11 0 35.11 53.33 0 53.33z"/>
        <path d="m1092.52 823.07h-143.78c-14.74 0-26.67-11.93-26.67-26.67v-524.28c0-14.74 11.93-26.67 26.67-26.67h143.78c35.11 0 35.11 53.33 0 53.33h-117.12v470.96h117.12c35.11 0 35.11 53.32 0 53.32z"/>
        <path d="m1092.52 560.93h-143.78c-35.11 0-35.11-53.33 0-53.33h143.78c35.11 0 35.1 53.33 0 53.33z"/>
        <path d="m1487.14 365.2h-394.62c-14.74 0-26.67-11.93-26.67-26.67v-132.84c0-14.73 11.93-26.67 26.67-26.67h394.62c14.73 0 26.67 11.93 26.67 26.67v132.84c0 14.74-11.95 26.67-26.67 26.67z"/>
        <path d="m1487.14 889.5h-394.62c-14.74 0-26.67-11.93-26.67-26.67v-132.84c0-14.73 11.93-26.67 26.67-26.67h394.62c14.73 0 26.67 11.93 26.67 26.67v132.84c0 14.72-11.95 26.67-26.67 26.67z"/>
        <path d="m1487.14 618.56h-394.62c-14.74 0-26.67-11.93-26.67-26.67v-115.26c0-14.74 11.93-26.67 26.67-26.67h394.62c14.73 0 26.67 11.93 26.67 26.67v115.26c0 14.73-11.95 26.67-26.67 26.67z"/>
    </g>
</svg>