<?xml version="1.0" encoding="UTF-8" standalone="no"?>
<!-- Created with Inkscape (http://www.inkscape.org/) -->
<svg xmlns="http://www.w3.org/2000/svg"
    xmlns:svg="http://www.w3.org/2000/svg" version="1.1" id="svg819" width="35px" height="35px" viewBox="0 0 682.66669 682.66669">
    <defs id="defs823">
        <clipPath clipPathUnits="userSpaceOnUse" id="clipPath833">
            <path d="M 0,512 H 512 V 0 H 0 Z" id="path831"/>
        </clipPath>
    </defs>
    <mask id="custom">
        <rect id="bg" x="0" y="0" width="100%" height="100%" fill="white"/>
        <g transform="matrix(1.3333333,0,0,-1.3333333,0,682.66667)">
            <path transform="matrix(1,0,0,1,512,256)" d="m 0,0 c 0,-141.385 -114.615,-256 -256,-256 -141.385,0 -256,114.615 -256,256 0,141.385 114.615,256 256,256 C -114.615,256 0,141.385 0,0" style="fill:#ffffff;fill-opacity:1;fill-rule:nonzero;stroke:none" id="path837"/>
            <path transform="matrix(1,0,0,1,394.6667,137.3784)" d="m 0,0 c -36.997,-43.179 -93.574,-68.482 -154.54,-63.159 -46.671,4.075 -87.697,25.381 -117.36,57.102" style="fill:none;stroke:#000000;stroke-width:30;stroke-linecap:butt;stroke-linejoin:miter;stroke-miterlimit:10;stroke-dasharray:none;stroke-opacity:1" id="path841"/>
            <path transform="matrix(1,0,0,1,123.5663,78.6997)" d="M 0,0 -0.796,52.664 51.868,57.46" style="fill:none;stroke:#000000;stroke-width:30;stroke-linecap:butt;stroke-linejoin:miter;stroke-miterlimit:10;stroke-dasharray:none;stroke-opacity:1" id="path845"/>
            <path transform="matrix(1,0,0,1,117.3334,374.6216)" d="M 0,0 C 36.997,43.179 93.574,68.482 154.54,63.159 201.211,59.084 242.237,37.778 271.9,6.057" style="fill:none;stroke:#000000;stroke-width:30;stroke-linecap:butt;stroke-linejoin:miter;stroke-miterlimit:10;stroke-dasharray:none;stroke-opacity:1" id="path849"/>
            <path transform="matrix(1,0,0,1,388.4337,433.3003)" d="M 0,0 0.796,-52.664 -51.868,-57.46" style="fill:none;stroke:#000000;stroke-width:30;stroke-linecap:butt;stroke-linejoin:miter;stroke-miterlimit:10;stroke-dasharray:none;stroke-opacity:1" id="path853"/>
            <path transform="matrix(1,0,0,1,164.706,224.5162)" d="m 0,0 v -23.098 h -80.181 v 18.243 l 38.546,36.044 c 8.239,7.651 9.416,12.359 9.416,16.625 0,6.621 -4.414,10.593 -13.241,10.593 -7.503,0 -14.271,-3.384 -18.391,-10.004 l -21.626,12.064 c 7.797,12.946 22.362,21.479 42.665,21.479 23.686,0 40.017,-12.211 40.017,-31.336 0,-10.005 -2.795,-19.126 -17.508,-32.661 L -39.723,0 Z" style="fill:#000000;fill-opacity:1;fill-rule:nonzero;stroke:none" id="path857"/>
            <path transform="matrix(1,0,0,1,272.5523,221.1324)" d="M 0,0 H -15.3 V -19.714 H -43.695 V 0 H -98.13 v 18.979 l 46.196,64.292 h 30.16 l -41.93,-60.173 h 20.892 V 40.605 H -15.3 V 23.098 H 0 Z" style="fill:#000000;fill-opacity:1;fill-rule:nonzero;stroke:none" id="path861"/>
            <path transform="matrix(1,0,0,1,322.7242,325.2942)" d="m 0,0 h 24.863 l -48.55,-138.588 h -24.864 z" style="fill:#000000;fill-opacity:1;fill-rule:nonzero;stroke:none" id="path865"/>
            <path transform="matrix(1,0,0,1,432.7713,304.403)" d="m 0,0 v -18.243 l -36.338,-84.742 h -31.779 l 34.721,79.887 h -27.07 V -38.987 H -85.33 l 0,38.987 z" style="fill:#000000;fill-opacity:1;fill-rule:nonzero;stroke:none" id="path869"/>
        </g>
    </mask>
    <g mask="url(#custom)">
        <g id="g825" transform="matrix(1.3333333,0,0,-1.3333333,0,682.66667)">
            <g id="g827">
                <g id="g829" clip-path="url(#clipPath833)">
                    <g id="g835" transform="translate(512,256)">
                        <path d="m 0,0 c 0,-141.385 -114.615,-256 -256,-256 -141.385,0 -256,114.615 -256,256 0,141.385 114.615,256 256,256 C -114.615,256 0,141.385 0,0" style="fill:#000000;fill-opacity:1;fill-rule:nonzero;stroke:none" id="path837"/>
                    </g>
                    <g id="g839" transform="translate(394.6667,137.3784)">
                        <path d="m 0,0 c -36.997,-43.179 -93.574,-68.482 -154.54,-63.159 -46.671,4.075 -87.697,25.381 -117.36,57.102" style="fill:none;stroke:#ffffff;stroke-width:30;stroke-linecap:butt;stroke-linejoin:miter;stroke-miterlimit:10;stroke-dasharray:none;stroke-opacity:1" id="path841"/>
                    </g>
                    <g id="g843" transform="translate(123.5663,78.6997)">
                        <path d="M 0,0 -0.796,52.664 51.868,57.46" style="fill:none;stroke:#ffffff;stroke-width:30;stroke-linecap:butt;stroke-linejoin:miter;stroke-miterlimit:10;stroke-dasharray:none;stroke-opacity:1" id="path845"/>
                    </g>
                    <g id="g847" transform="translate(117.3334,374.6216)">
                        <path d="M 0,0 C 36.997,43.179 93.574,68.482 154.54,63.159 201.211,59.084 242.237,37.778 271.9,6.057" style="fill:none;stroke:#ffffff;stroke-width:30;stroke-linecap:butt;stroke-linejoin:miter;stroke-miterlimit:10;stroke-dasharray:none;stroke-opacity:1" id="path849"/>
                    </g>
                    <g id="g851" transform="translate(388.4337,433.3003)">
                        <path d="M 0,0 0.796,-52.664 -51.868,-57.46" style="fill:none;stroke:#ffffff;stroke-width:30;stroke-linecap:butt;stroke-linejoin:miter;stroke-miterlimit:10;stroke-dasharray:none;stroke-opacity:1" id="path853"/>
                    </g>
                    <g id="g855" transform="translate(164.706,224.5162)">
                        <path d="m 0,0 v -23.098 h -80.181 v 18.243 l 38.546,36.044 c 8.239,7.651 9.416,12.359 9.416,16.625 0,6.621 -4.414,10.593 -13.241,10.593 -7.503,0 -14.271,-3.384 -18.391,-10.004 l -21.626,12.064 c 7.797,12.946 22.362,21.479 42.665,21.479 23.686,0 40.017,-12.211 40.017,-31.336 0,-10.005 -2.795,-19.126 -17.508,-32.661 L -39.723,0 Z" style="fill:#ffffff;fill-opacity:1;fill-rule:nonzero;stroke:none" id="path857"/>
                    </g>
                    <g id="g859" transform="translate(272.5523,221.1324)">
                        <path d="M 0,0 H -15.3 V -19.714 H -43.695 V 0 H -98.13 v 18.979 l 46.196,64.292 h 30.16 l -41.93,-60.173 h 20.892 V 40.605 H -15.3 V 23.098 H 0 Z" style="fill:#ffffff;fill-opacity:1;fill-rule:nonzero;stroke:none" id="path861"/>
                    </g>
                    <g id="g863" transform="translate(322.7242,325.2942)">
                        <path d="m 0,0 h 24.863 l -48.55,-138.588 h -24.864 z" style="fill:#ffffff;fill-opacity:1;fill-rule:nonzero;stroke:none" id="path865"/>
                    </g>
                    <g id="g867" transform="translate(432.7713,304.403)">
                        <path d="m 0,0 v -18.243 l -36.338,-84.742 h -31.779 l 34.721,79.887 h -27.07 V -38.987 H -85.33 l 0,38.987 z" style="fill:#ffffff;fill-opacity:1;fill-rule:nonzero;stroke:none" id="path869"/>
                    </g>
                </g>
            </g>
        </g>
    </g>
</svg>
