<svg id="Capa_1" enable-background="new 0 0 512 512" height="512" viewBox="0 0 512 512" width="512"
    xmlns="http://www.w3.org/2000/svg">
    <g>
        <path d="m414.406 190.973c0-7.845-6.383-14.228-14.228-14.228h-26.148v28.455h26.148c7.845 0 14.228-6.383 14.228-14.227z"/>
        <path d="m0 47.079h38.545v37.535h-38.545z"/>
        <path d="m241 114.614h-241v350.307h241zm-173.792 314.776h-30v-30h30zm0-67.47h-30v-30h30zm2.184-64.751v-102.484c0-25.986 22.983-47.939 50.188-47.939s50.188 21.953 50.188 47.939v102.484h-30v-48.617h-40.376v48.617zm132.203 132.221h-97.447v-30h97.447zm-97.448-67.47v-30h97.447v30z"/>
        <path d="m414.406 249.429c0-7.846-6.383-14.229-14.228-14.229h-26.148v28.456h26.148c7.845 0 14.228-6.383 14.228-14.227z"/>
        <path d="m139.768 218.552v-23.867c0-8.469-8.634-17.939-20.188-17.939s-20.188 9.471-20.188 17.939v23.867z"/>
        <path d="m271 114.614v350.307h241v-350.307zm66.404 314.776h-30v-30h30zm0-67.47h-30v-30h30zm6.626-126.72v-30-58.455h56.148c24.387 0 44.228 19.841 44.228 44.228 0 11.197-4.19 21.428-11.075 29.228 6.885 7.8 11.075 18.031 11.075 29.229 0 24.387-19.841 44.228-44.228 44.228h-56.148zm127.761 194.19h-97.448v-30h97.448zm0-67.47h-97.448v-30h97.448z"/>
        <path d="m136.015 47.079h375.985v37.535h-375.985z"/>
        <path d="m68.545 47.079h37.47v37.535h-37.47z"/>
    </g>
</svg>