<svg id="Layer_1" width="35px" height = "35px" enable-background="new 0 0 512 512" viewBox="0 0 512 512"
    xmlns="http://www.w3.org/2000/svg">
    <path clip-rule="evenodd" d="m80.28 82.86h85.07l33.14 45.2c1.17 1.6 3 2.45 4.84 2.45 1.23 0 2.48-.38 3.54-1.16 2.68-1.96 3.26-5.71 1.3-8.38l-34.94-47.66c-1.13-1.54-2.93-2.45-4.84-2.45h-88.11c-2.78-13.22-14.54-23.18-28.57-23.18-16.09 0-29.18 13.09-29.18 29.19s13.09 29.19 29.18 29.19c14.03-.01 25.79-9.97 28.57-23.2zm92.94 356.4 34.94-47.65c1.96-2.67 1.38-6.43-1.3-8.39-2.67-1.96-6.42-1.38-8.38 1.29l-33.14 45.2h-85.06c-2.78-13.23-14.53-23.19-28.56-23.19-16.09 0-29.18 13.09-29.18 29.19s13.09 29.19 29.18 29.19c14.03 0 25.78-9.96 28.56-23.19h88.11c1.91.01 3.7-.9 4.83-2.45zm-121.51-20.73c9.47 0 17.18 7.71 17.18 17.19s-7.71 17.19-17.18 17.19-17.18-7.71-17.18-17.19c.01-9.48 7.72-17.19 17.18-17.19zm215.48-30.47c0-3.32-2.68-6-6-6-3.31 0-6 2.69-6 6v49.82c-13.22 2.77-23.18 14.52-23.18 28.56 0 16.1 13.09 29.19 29.18 29.19s29.18-13.09 29.18-29.19c0-14.04-9.96-25.79-23.18-28.56zm-5.99 61.2c9.47 0 17.17 7.71 17.17 17.19s-7.7 17.19-17.18 17.19c-9.47 0-17.18-7.71-17.18-17.19s7.72-17.19 17.19-17.19zm63.88-341.76v36.73h15.93c17.87 0 32.41 14.54 32.41 32.42v159.28c0 17.87-14.54 32.42-32.41 32.42h-15.93v48.39c0 9.58 4.32 19.12 11.56 25.5 5.82 5.13 12.83 7.48 19.73 6.61 17.5-2.21 27.09-12.41 28.53-30.34-6.39-3.57-13.01-9.24-19-18.14-1.85-2.75-1.12-6.48 1.63-8.33s6.48-1.12 8.33 1.63c7.57 11.25 16.98 17.45 27.95 18.42 13.78 1.22 25.91-6.12 29.33-9.66 3.12-3.22 13.17-14.82 11.72-28.9-1.02-9.96-7.76-19.25-20.04-27.59-2.74-1.87-3.45-5.6-1.59-8.34 1.87-2.74 5.6-3.45 8.34-1.58 8.77 5.96 15.29 12.51 19.54 19.57 9.97-4.05 20.71-21.13 21.56-32.76 1.39-19.01-2.66-31.79-13.47-42.02-2.6.87-5.28 1.57-8.02 2.05-.35.07-.71.09-1.05.09-2.86 0-5.39-2.05-5.9-4.96-.58-3.26 1.6-6.37 4.86-6.95 13.72-2.42 25.53-11.13 33.26-24.5 8.71-15.08 10.78-33.67 5.39-48.52-6.72-18.5-31.56-44.43-69.64-35.28-3.22.78-6.46-1.21-7.24-4.43-.77-3.22 1.21-6.46 4.43-7.24 13.92-3.34 25.95-2.54 35.81.05 1.21-13.93-4.16-27.44-14.88-36.83-12.06-10.57-28.98-14.31-45.28-10.01-3.2.85-6.49-1.06-7.33-4.27-.85-3.21 1.06-6.49 4.27-7.33 5.23-1.38 10.52-2.08 15.75-2.14-6.28-15.17-19.51-24.87-36.06-25.92-10.38-.65-20.51 3.13-28.51 10.64-8.89 8.33-13.98 20.09-13.98 32.24zm49.73 254.75c11.24.18 21.94 5.72 31.79 16.46 2.24 2.44 2.07 6.24-.37 8.48-1.15 1.06-2.61 1.58-4.05 1.58-1.63 0-3.24-.65-4.43-1.94-7.64-8.33-15.21-12.45-23.14-12.57-3.31-.06-5.95-2.78-5.9-6.1.07-3.32 2.78-5.96 6.1-5.91zm17.73-218.73c3.29.41 5.62 3.41 5.2 6.7-2.78 22.03 6.93 34 30.57 37.66 3.28.51 5.52 3.57 5.01 6.85-.46 2.96-3.01 5.08-5.92 5.08-.31 0-.62-.02-.93-.07-30.21-4.69-44.26-22.33-40.63-51.02.4-3.28 3.4-5.62 6.7-5.2zm12.65 156.95c-9.09-29.19.57-49.58 27.92-58.95 3.14-1.07 6.55.6 7.62 3.73 1.08 3.14-.59 6.55-3.73 7.62-21 7.19-27.46 21.19-20.35 44.04.98 3.16-.79 6.53-3.95 7.51-.59.18-1.19.27-1.79.27-2.54 0-4.91-1.65-5.72-4.22zm-143.99-169.95c3.32 0 6-2.69 6-6v-49.82c13.22-2.78 23.18-14.53 23.18-28.57 0-16.09-13.09-29.19-29.18-29.19s-29.18 13.09-29.18 29.19c0 14.04 9.96 25.79 23.18 28.57v49.81c-.01 3.32 2.68 6.01 6 6.01zm0-67.2c-9.47 0-17.18-7.71-17.18-17.19s7.71-17.19 17.18-17.19c9.48 0 17.18 7.71 17.18 17.19s-7.7 17.19-17.18 17.19zm-17.03 117.1 51.8 145.16c1.11 3.12-.51 6.55-3.63 7.67-.67.24-1.35.35-2.02.35-2.47 0-4.78-1.53-5.65-3.98l-16.86-47.24h-58.58l-16.86 47.24c-1.11 3.12-4.55 4.74-7.67 3.63s-4.74-4.55-3.63-7.67l51.8-145.16c.85-2.39 3.11-3.98 5.65-3.98 2.53 0 4.8 1.6 5.65 3.98zm-83.19-3.77c0-11.26 9.16-20.42 20.42-20.42h159.61c11.25 0 20.41 9.16 20.41 20.42v159.28c0 11.26-9.16 20.42-20.41 20.42h-159.61c-11.26 0-20.42-9.16-20.42-20.42zm168.7 153.88v-148.48c0-3.32 2.69-6 6-6 3.32 0 6 2.68 6 6v148.47c0 3.31-2.68 6-6 6-3.31 0-6-2.68-6-5.99zm-91.17-130.24-25.01 70.09h50.02zm-136.32 119.86h-23.76c-2.77-13.23-14.52-23.19-28.56-23.19-16.09 0-29.18 13.09-29.18 29.19s13.09 29.19 29.18 29.19c14.04 0 25.79-9.96 28.56-23.19h26.28c1.6 0 3.13-.64 4.26-1.78l28.03-28.31c2.33-2.35 2.31-6.15-.05-8.48-2.35-2.34-6.15-2.32-8.48.04zm-35.14 6c0 9.48-7.7 17.19-17.18 17.19-9.47 0-17.18-7.71-17.18-17.19s7.71-17.19 17.18-17.19c9.48.01 17.18 7.72 17.18 17.19zm64.42-75.86h-53.04c-2.77-13.23-14.52-23.19-28.56-23.19-16.09 0-29.18 13.1-29.18 29.19 0 16.1 13.09 29.19 29.18 29.19 14.04 0 25.79-9.96 28.56-23.19h53.04c3.31 0 6-2.69 6-6-.01-3.31-2.7-6-6-6zm-64.42 6c0 9.48-7.7 17.19-17.18 17.19-9.47 0-17.18-7.71-17.18-17.19s7.71-17.19 17.18-17.19c9.48 0 17.18 7.71 17.18 17.19zm41.91-74.09c-1.13-1.14-2.66-1.78-4.26-1.78h-26.27c-2.77-13.23-14.52-23.19-28.56-23.19-16.09 0-29.18 13.09-29.18 29.19s13.09 29.19 29.18 29.19c14.04 0 25.79-9.97 28.56-23.19h23.77l26.27 26.53c1.17 1.18 2.72 1.78 4.26 1.78 1.53 0 3.05-.58 4.22-1.74 2.36-2.33 2.38-6.13.05-8.49zm-41.91 4.23c0 9.48-7.7 17.19-17.18 17.19-9.47 0-17.18-7.71-17.18-17.19s7.71-17.19 17.18-17.19c9.48 0 17.18 7.71 17.18 17.19zm1.85-109.57c0 9.48-7.71 17.19-17.18 17.19s-17.18-7.71-17.18-17.19 7.71-17.19 17.18-17.19c9.47.01 17.18 7.72 17.18 17.19z" fill-rule="evenodd"/>
</svg>