<svg id="Layer_1" enable-background="new 0 0 512 512" height="512" viewBox="0 0 512 512" width="512"
    xmlns="http://www.w3.org/2000/svg">
    <path clip-rule="evenodd" d="m281.272 384.96c7.742.945 14.081-1.311 16.239-9.367 1.929-7.2-2.63-13.935-9.4-16.322-22.733-4.173-44.732-12.126-62.037-18.383-24.678-8.921-31.018-11.046-55.371 3.053l-42.836 24.801 36.081 63.753 1.676-.967c1.9-1.092 4.062-1.313 6.025-.789l99.307 26.584c12.124 3.25 23.676 1.809 34.403-4.795l136.904-84.299c4.081-2.512 6.082-8.389 5.485-14.149-.484-4.671-2.768-8.947-7.062-11.121-6.958-3.524-19.11-2.432-37.993 8.565l-75.44 43.939c-6.113 3.56-12.405 5.823-18.939 6.921-18.799 3.158-46.99-5.657-63.849-10.471-5.386-1.538-10.854-3.1-16.176-4.526-4.263-1.139-6.795-5.518-5.656-9.781s5.518-6.795 9.781-5.656c16.258 4.354 32.381 9.595 48.858 13.01zm-122.767-311.91c2.344 0 4.255-1.911 4.255-4.255v-47.777c-.904.413-1.736.998-2.493 1.755l-47.785 47.785c-.757.757-1.342 1.589-1.755 2.493h47.778zm277.19 317.943v42.92c0 4.687-3.823 8.511-8.511 8.511h-75.014zm-8.51-370.713h-248.425v48.515c0 11.175-9.08 20.255-20.255 20.255h-48.515v253.64c3.26 2.219 6.072 5.194 8.138 8.845l1.876 3.315 22.504-13.029v-25.24c0-4.406 3.594-8 8-8h23.672c4.406 0 8 3.594 8 8v4.346c11.654-3.937 22.171-4.347 33.993-.44v-53.024c0-4.406 3.594-8 8-8h23.673c4.406 0 8 3.594 8 8v66.903c10.824 3.516 22.4 6.813 33.993 9.015 0-18.687 0-35.1 0-59.382 0-4.406 3.594-8 8-8h23.673c4.406 0 8 3.594 8 8v91.677l33.992-19.799v-140.455c0-4.406 3.594-8 8-8h23.673c4.406 0 8 3.594 8 8v117.754c13.034-6.318 23.832-8.433 32.518-7.754v-296.631c0-4.688-3.823-8.511-8.51-8.511zm-188.019 40.589h107.787c4.418 0 8 3.582 8 8s-3.582 8-8 8h-107.787c-4.418 0-8-3.582-8-8 .001-4.419 3.582-8 8-8zm0 36.06h107.787c4.418 0 8 3.582 8 8s-3.582 8-8 8h-107.787c-4.418 0-8-3.582-8-8 .001-4.418 3.582-8 8-8zm0 36.063h107.787c4.418 0 8 3.582 8 8s-3.582 8-8 8h-107.787c-4.418 0-8-3.582-8-8 .001-4.418 3.582-8 8-8zm-42.657-72.123h11.523c4.418 0 8 3.582 8 8s-3.582 8-8 8h-11.523c-4.418 0-8-3.582-8-8 0-4.419 3.581-8 8-8zm0 36.06h11.523c4.418 0 8 3.582 8 8s-3.582 8-8 8h-11.523c-4.418 0-8-3.582-8-8s3.581-8 8-8zm0 36.063h11.523c4.418 0 8 3.582 8 8s-3.582 8-8 8h-11.523c-4.418 0-8-3.582-8-8s3.581-8 8-8zm194.715 28.07-2.62 23.437c-.483 4.384-4.429 7.545-8.812 7.062-4.384-.483-7.545-4.429-7.062-8.813l.128-1.145-57.524 58.016c-2.046 2.054-5.144 2.916-8.094 1.969l-69.671-22.581-70.317 54.753c-3.469 2.709-8.478 2.094-11.188-1.375-2.709-3.469-2.094-8.478 1.375-11.188l73.666-57.36c2.16-1.687 4.916-2.084 7.342-1.308l69.02 22.365 54.852-55.321-2.27.199c-4.4.379-8.276-2.881-8.656-7.281-.379-4.401 2.881-8.277 7.282-8.656l23.98-2.103c5.218-.45 9.447 4.232 8.569 9.33zm-227.577 303.387-59.444-105.032c-2.874-5.079-9.381-6.882-14.459-4.008l-20.219 11.443c-5.079 2.874-6.882 9.381-4.008 14.46l59.444 105.033c2.875 5.079 9.381 6.882 14.459 4.008l20.219-11.443c5.079-2.876 6.882-9.383 4.008-14.461zm-70.985-75.003c-3.945.577-7.61-2.154-8.188-6.099-.577-3.945 2.154-7.611 6.099-8.188s7.61 2.154 8.187 6.099c.577 3.946-2.154 7.611-6.098 8.188z" fill-rule="evenodd"/>
</svg>