<svg id="Layer_1" enable-background="new 0 0 500 500" height="32" viewBox="0 0 500 500" width="32"
    xmlns="http://www.w3.org/2000/svg">
    <path d="m206.2 344.9h19.6v32.9h-42.3zm-77.5 0h-43.4l-22.7 32.9h43.4zm10.9-46.6 42-11.3-30.4-25.9-42 11.3zm49.6 46.6h-43.4l-22.8 32.8h43.4zm11.1-96.5c-1 0-2 .1-3 .4l-29.8 8 30.4 25.9 18.9-5.1-5.5-20.7c-1.3-5.1-6-8.5-11-8.5zm127.1 187.6c-5.9 0-10.7 4.8-10.7 10.7s4.8 10.7 10.7 10.7 10.7-4.8 10.7-10.7-4.8-10.7-10.7-10.7zm-293.1-143.5-7.8 2.1c-3 .8-5.4 2.7-7 5.4s-2 5.8-1.2 8.7l5.5 20.7 40.8-10.9zm58.4-15.7-42 11.3 30.4 25.9 42-11.3zm-15.8-90.8c13.5 0 24.4-10.9 24.4-24.4s-10.9-24.4-24.4-24.4-24.4 10.9-24.4 24.4 10.9 24.4 24.4 24.4zm299.2 96.4c0-1.5-.5-4.2-4.1-4.2h-81.6c-3.5 0-4.1 2.6-4.1 4.2 0 1.5.5 4.2 4.1 4.2h81.6c3.6 0 4.1-2.6 4.1-4.2zm-4-26.5h-81.6c-3.5 0-4.1 2.6-4.1 4.2 0 1.5.5 4.2 4.1 4.2h81.6c3.5 0 4.1-2.6 4.1-4.2-.1-1.6-.6-4.2-4.1-4.2zm-57.1-104.2v51.1l44.2-25.5zm3.7 153.9h25.2c3.4 0 6.2-1.5 8.1-4.3l.5-.8h-42.5l.5.8c2 2.8 4.8 4.3 8.2 4.3zm-148.6 86.1h55.6v82.8c0 6.3-5.1 11.5-11.5 11.5h-176.8c-6.3 0-11.5-5.1-11.5-11.5v-82.8h23.2 60.4zm-7.7 48.4c0-2.5-1.3-4.8-3.5-6.1l-50-28.9c-2.2-1.3-4.8-1.3-7 0s-3.5 3.6-3.5 6.1v57.8c0 2.5 1.3 4.8 3.5 6.1 1.1.6 2.3.9 3.5.9s2.4-.3 3.5-.9l50-28.9c2.1-1.2 3.5-3.6 3.5-6.1zm-136.4-62.4h19.6l22.7-32.9h-42.3zm260.4-141.3c-15.8-22.4-32.2-45.5-32.2-71.8 0-42.5 34.6-77.1 77.1-77.1s77.1 34.6 77.1 77.1c0 26.5-16.6 50-32.6 72.8-1.1 1.5-2.1 3.1-3.2 4.6h-82.3c-1.3-1.9-2.6-3.8-3.9-5.6zm14.6-21.5c0 2.5 1.3 4.8 3.5 6.1 1.1.6 2.3.9 3.5.9s2.4-.3 3.5-.9l65.2-37.7c2.2-1.3 3.5-3.6 3.5-6.1s-1.3-4.8-3.5-6.1l-65.2-37.7c-2.2-1.3-4.8-1.3-7 0s-3.5 3.6-3.5 6.1zm-188.7 242 29-16.7-29-16.7c.1-.1.1 33.4 0 33.4zm376.7-299.2h-33.8c-3.9 0-7 3.1-7 7s3.1 7 7 7h33.8c3.9 0 7-3.1 7-7s-3.1-7-7-7zm-63.4 205v108.6c0 15.8-12.9 28.7-28.7 28.7h-108.6c-15.8 0-28.7-12.9-28.7-28.7v-108.6c0-15.8 12.9-28.7 28.7-28.7h108.6c15.8 0 28.7 12.9 28.7 28.7zm-46.6 18.4-30.4-17.6c-2.2-1.3-4.8-1.3-7 0s-3.5 3.6-3.5 6.1v54.9c-3.2-1.6-6.9-2.5-10.7-2.5-13.6 0-24.7 11.1-24.7 24.7s11.1 24.7 24.7 24.7 24.7-11.1 24.7-24.7c0-.7 0-1.5-.1-2.2.1-.4.1-.8.1-1.1v-61.7l19.9 11.5c3.4 1.9 7.6.8 9.6-2.6s.8-7.6-2.6-9.5zm-349.2-146.7c-14.2 0-25.8-11.5-25.8-25.8v-94.1c0-14.2 11.6-25.8 25.8-25.8h94.1c14.2 0 25.8 11.6 25.8 25.8v94.1c0 14.2-11.6 25.8-25.8 25.8zm8.7-72.8c0 21.2 17.2 38.4 38.4 38.4s38.4-17.2 38.4-38.4-17.2-38.4-38.4-38.4-38.4 17.2-38.4 38.4zm409.3-113.3c-2.7-2.7-7.2-2.7-9.9 0l-23.9 23.9c-2.7 2.7-2.7 7.2 0 9.9 1.4 1.4 3.2 2.1 5 2.1s3.6-.7 5-2.1l23.9-23.9c2.6-2.8 2.6-7.2-.1-9.9zm-116.5-.5c3.9 0 7-3.1 7-7v-33.8c0-3.9-3.1-7-7-7s-7 3.1-7 7v33.8c0 3.9 3.1 7 7 7zm-157.7 123.9h33.8c3.9 0 7-3.1 7-7s-3.1-7-7-7h-33.8c-3.9 0-7 3.1-7 7s3.1 7 7 7zm51.1-123.4c-2.7-2.7-7.2-2.7-9.9 0s-2.7 7.2 0 9.9l23.9 23.9c1.4 1.4 3.2 2.1 4.9 2.1s3.6-.7 4.9-2.1c2.7-2.7 2.7-7.2 0-9.9z"/>
</svg>