<svg height="32" viewBox="0 0 48 48" width="32"
    xmlns="http://www.w3.org/2000/svg">
    <g id="Digital_Marketing" data-name="Digital Marketing">
        <path d="m15.3 1c-.22 0 .58 0-12.3 0-.49 0-1.14-.6 6 4.75z"/>
        <path d="m17 11c0-8.69.05-8.22-.12-8.66-7.94 5.95-7.41 5.66-7.88 5.66s0 .24-7.88-5.66c-.12.45-.12.02-.12 8.66a2 2 0 0 0 2 2h12a2 2 0 0 0 2-2z"/>
        <path d="m38 8.39 2.76-1.39-2.76-1.38z"/>
        <path d="m45 1h-12a2 2 0 0 0 -2 2v8a2 2 0 0 0 2 2h12a2 2 0 0 0 2-2v-8a2 2 0 0 0 -2-2zm-3.34 7.79c-3 1.48-3 1.59-3.66 1.59a2 2 0 0 1 -2-2c0-2.44-.28-3.7 1-4.46s2.11 0 4.71 1.29a2 2 0 0 1 -.05 3.58z"/>
        <circle cx="39" cy="39" r="2"/>
        <path d="m46.07 37a.93.93 0 0 1 -.66-1.59.93.93 0 0 0 0-1.31l-1.51-1.51a.91.91 0 0 0 -1.31 0 .93.93 0 0 1 -1.59-.66.93.93 0 0 0 -.93-.93h-2.14a.93.93 0 0 0 -.93.93.93.93 0 0 1 -1.59.66.91.91 0 0 0 -1.31 0l-1.51 1.51a.92.92 0 0 0 0 1.31.94.94 0 0 1 -.66 1.59.93.93 0 0 0 -.93.93v2.14a.93.93 0 0 0 .93.93.93.93 0 0 1 .66 1.59.91.91 0 0 0 0 1.31l1.51 1.51a.91.91 0 0 0 1.31 0 .93.93 0 0 1 1.59.66.93.93 0 0 0 .93.93h2.14a.93.93 0 0 0 .93-.93.93.93 0 0 1 1.59-.66.91.91 0 0 0 1.31 0l1.51-1.51a.91.91 0 0 0 0-1.31.93.93 0 0 1 .66-1.59.93.93 0 0 0 .93-.93v-2.14a.93.93 0 0 0 -.93-.93zm-7.07 6a4 4 0 1 1 4-4 4 4 0 0 1 -4 4z"/>
        <path d="m7.42 31.57-3.54 3.53a3 3 0 0 0 0 4.24l2.83 2.83a3 3 0 0 0 4.24 0l3.54-3.53z"/>
        <path d="m15.19 40.76-2.82 2.83 2.82 2.82a2 2 0 0 0 2.81-2.82z"/>
        <path d="m8.58 29.9 7.57 7.57 12.48-5.91-14.14-14.14z"/>
        <path d="m20.52 20.63 4.9 4.9a4 4 0 0 0 -4.9-4.9z"/>
        <path d="m27.21 19.84c.55 0 .57-.16 2.83-2.42a1 1 0 0 0 -1.41-1.42l-2.12 2.12a1 1 0 0 0 .7 1.72z"/>
        <path d="m24 17v-3a1 1 0 0 0 -2 0v3a1 1 0 0 0 2 0z"/>
        <path d="m32 22h-3a1 1 0 0 0 0 2h3a1 1 0 0 0 0-2z"/>
    </g>
</svg>