<svg id="Layer_1" enable-background="new 0 0 512 512" height="32" viewBox="0 0 512 512" width="32"
    xmlns="http://www.w3.org/2000/svg">
    <path clip-rule="evenodd" d="m220.605 223.843 17.572 42.263c1.826 4.391-.047 9.413-4.275 11.588l-13.193 6.788c-2.356 1.212-4.842 1.366-7.33.452-2.487-.913-4.273-2.643-5.295-5.088l-19.792-47.344zm110.586 127.108 153.707 133.211c.703-2.038 1.104-4.217 1.104-6.491v-252.776c0-2.264-.391-4.425-1.08-6.444zm-74.592 37.883 213.02-183.599c-1.179-.212-2.377-.344-3.618-.344h-53.133c.598 18.815-11.841 36.455-30.734 41.517-17.189 4.606-35.09-2.386-44.868-16.468-29.454-11.333-64.949-14.304-97.498-12.101l16.876 40.589c5.806 13.965-.155 30.137-13.593 37.051l-13.193 6.788c-7.32 3.766-15.646 4.279-23.373 1.442-7.712-2.832-13.686-8.571-16.853-16.148l-21.111-50.499c-26.019 2.978-51.466-10.005-64.611-32.171h-57.91c-.038 0-.071 0-.109 0zm6.491 20.821 52.789-45.501 153.683 133.178c-1.151.212-2.344.34-3.561.34h-420.002c-.019 0-.028 0-.047 0l152.037-133.461 52.001 45.393c1.882 1.651 4.222 2.467 6.571 2.467 2.331-.001 4.647-.807 6.529-2.416zm-80.299-58.704-154.632 135.72c-1.368-2.708-2.161-5.76-2.161-9v-252.776c0-3.222.783-6.25 2.142-8.953zm239.163-192.676 31.43 8.421c5.027 1.347 10.196-1.669 11.53-6.692 1.337-5.03-1.674-10.191-6.695-11.536l-31.43-8.421c-5.027-1.347-10.196 1.669-11.53 6.692-1.338 5.03 1.673 10.191 6.695 11.536zm-15.133-92.75 23.008-23.008c3.676-3.676 3.703-9.65.03-13.338-3.668-3.683-9.651-3.711-13.332-.03l-23.008 23.008c-3.676 3.676-3.703 9.65-.03 13.338 3.668 3.683 9.651 3.711 13.332.03zm27.627 42.348 29.795-7.984c5.058-1.355 8.059-6.553 6.704-11.611s-6.553-8.059-11.611-6.704l-29.796 7.984c-5.058 1.355-8.059 6.553-6.704 11.611 1.356 5.058 6.554 8.059 11.612 6.704zm-58.589 31.999c1.124-.144 2.252-.364 3.377-.666 13.58-3.639 21.639-17.597 18-31.177s-17.597-21.638-31.177-18c-1.126.302-2.213.675-3.258 1.112l-16.31-60.871c-3.062-11.428-14.918-18.273-26.346-15.211-10.645 2.852-17.458 13.431-15.653 24.3l-.001.001c-19.951 27.108-53.807 53.739-95.437 73.025l23.036 85.971c45.714-4.068 88.418 2.246 119.251 15.747h.001c3.916 10.071 14.952 15.841 25.616 12.984 11.382-3.05 18.261-14.965 15.211-26.346zm-162.663 65.251-40.352 10.812c-24.519 6.57-49.955-8.116-56.525-32.634v-.001c-6.57-24.518 8.116-49.955 32.635-56.525l40.352-10.812c7.963 29.72 15.924 59.44 23.89 89.16z" fill-rule="evenodd"/>
</svg>