<svg enable-background="new 0 0 32 32" viewBox="0 0 32 32"
    xmlns="http://www.w3.org/2000/svg">
    <g id="Guides"/>
    <g id="_x32_0"/>
    <g id="_x31_9"/>
    <g id="_x31_8"/>
    <g id="_x31_7"/>
    <g id="_x31_6"/>
    <g id="_x31_5"/>
    <g id="_x31_4"/>
    <g id="_x31_3"/>
    <g id="_x31_2"/>
    <g id="_x31_1"/>
    <g id="_x31_0"/>
    <g id="_x30_9"/>
    <g id="_x30_8"/>
    <g id="_x30_7"/>
    <g id="_x30_6"/>
    <g id="_x30_5"/>
    <g id="_x30_4"/>
    <g id="_x30_3"/>
    <g id="_x30_2"/>
    <g id="_x30_1">
        <path d="m15.5 23c-1.5400391 0-2.8535156.9819336-3.3144531 2.4052734-2.5888672-.9619141-4.6289063-3.0019531-5.5908203-5.5908203 1.4233398-.4609375 2.4052734-1.774414 2.4052734-3.3144531 0-1.9296875-1.5703125-3.5-3.5-3.5s-3.5 1.5703125-3.5 3.5c0 7.4438477 6.0561523 13.5 13.5 13.5 1.9296875 0 3.5-1.5703125 3.5-3.5s-1.5703125-3.5-3.5-3.5z"/>
        <path d="m27 14h-7c-1.6568546 0-3 1.3431454-3 3v3c0 1.6568546 1.3431454 3 3 3h1v2.5c0 .2021484.121582.3847656.3085938.4619141.0620117.0258789.1269531.0380859.1914062.0380859.1298828 0 .2578125-.0507813.3535156-.1464844l2.8535157-2.8535156h2.2929687c1.6568546 0 3-1.3431454 3-3v-3c0-1.6568546-1.3431454-3-3-3z"/>
        <path d="m15.9658203 7.9093018 7.7682495-4.8882446c-.3434448-.6067506-.9871216-1.0210572-1.7340698-1.0210572h-12c-.7490845 0-1.3942261.416687-1.7368774 1.0263062z"/>
        <path d="m18.1464844 7.8535156c-.0280762-.0280762-.0431519-.0627441-.0631714-.0951538l-1.852356 1.1655884c-.0810547.0512695-.1738281.0766602-.2661133.0766602-.0927734 0-.1860352-.0258789-.2675781-.0776367l-1.7973022-1.1393433c-.0162964.0230713-.0258179.0492554-.0464478.0698853l-4.8635864 4.8635864c.2974243.175354.6398315.2828979 1.0100708.2828979h12c.3702393 0 .7126465-.1075439 1.0100708-.2828979z"/>
        <path d="m23.7171021 12.0100708c.175354-.2974243.2828979-.6398315.2828979-1.0100708v-6.9647217l-5.0684204 3.18927z"/>
        <path d="m13.0488892 7.2440796-5.0488892-3.2006226v6.956543c0 .3702393.1075439.7126465.2828979 1.0100708z"/>
    </g>
</svg>