<svg id="Glyph" height="35" viewBox="0 0 64 64" width="35"
    xmlns="http://www.w3.org/2000/svg">
    <path d="m22.625 44.509-9.237-.018 4.612 3.858z"/>
    <path d="m17.999 49.5c-.114 0-.228-.039-.321-.117l-5.172-4.326-.012 6.433 11 .021.012-6.432-5.187 4.307c-.094.075-.207.114-.32.114z"/>
    <path d="m27.807 51.725c.458-1.204.691-2.451.693-3.705.011-5.79-4.69-10.509-10.48-10.52-.006 0-.013 0-.02 0-5.781 0-10.489 4.697-10.5 10.48-.011 5.79 4.69 10.509 10.48 10.52 2.379-.002 4.63-.775 6.508-2.254.098-.078.219-.113.347-.106l4.437.329-1.472-4.408c-.037-.109-.034-.228.007-.336zm-3.315.287c0 .276-.224.499-.5.499 0 0 0 0-.001 0l-12-.022c-.133 0-.26-.053-.353-.147-.094-.094-.146-.221-.146-.354l.015-8c0-.276.224-.499.5-.499h.001l12 .022c.133 0 .26.053.353.147.094.094.146.221.146.354z"/>
    <path d="m16.994 18.502c.001 0 .001 0 0 0l5.001.009h.003c.399 0 .775-.155 1.058-.437.284-.283.441-.659.441-1.06l.008-4c.001-.827-.67-1.501-1.498-1.503l-12-.022c-.001 0-.002 0-.003 0-.399 0-.775.155-1.058.437-.284.283-.441.659-.441 1.06l-.008 4c-.001.827.67 1.501 1.497 1.503l2 .003c.132 0 .26.053.353.147l4.139 4.155.007-3.793c.002-.276.225-.499.501-.499zm3.01-4.494c.552.001.999.45.998 1.002s-.45.999-1.002.998-.999-.45-.998-1.002c.001-.553.449-.999 1.002-.998zm-8.004 1.984c-.552-.001-.999-.45-.998-1.002s.45-.999 1.002-.998.999.45.998 1.002c-.001.553-.45.999-1.002.998zm4 .008c-.552-.001-.999-.45-.998-1.002s.45-.999 1.002-.998.999.45.998 1.002-.45.999-1.002.998z"/>
    <path d="m16 28.5c2.114 0 4.207-.542 6.056-1.569.075-.042.159-.063.243-.063.083 0 .166.021.24.062l5.559 3.045-2.054-6.199c-.051-.153-.024-.321.07-.451 1.556-2.145 2.381-4.669 2.386-7.302.013-6.892-5.584-12.51-12.477-12.523-.008 0-.016 0-.024 0-3.33 0-6.461 1.294-8.821 3.645-2.366 2.356-3.672 5.493-3.678 8.832-.013 6.892 5.584 12.51 12.477 12.523zm-6.007-9.011c-1.378-.003-2.498-1.126-2.495-2.505l.008-4c.001-.667.262-1.295.735-1.766.472-.47 1.098-.729 1.764-.729h.005l12 .022c1.378.003 2.498 1.126 2.496 2.505l-.008 4c-.001.667-.262 1.295-.736 1.767-.472.47-1.098.729-1.764.729-.002 0-.003 0-.005 0l-4.5-.008-.008 4.5c0 .202-.123.384-.31.461-.062.025-.126.038-.19.038-.13 0-.258-.051-.354-.147l-4.845-4.863z"/>
    <path d="m34.5 57.5h3v3h-3z"/>
    <path d="m40.5 47.468v.356l3.5 4.376 3.5-4.375v-.356c-1.012.65-2.211 1.032-3.5 1.032s-2.488-.383-3.5-1.033z"/>
    <path d="m37.5 39.727v-3.727c0-.276.224-.5.5-.5h12c.276 0 .5.224.5.5v3.727c1.233-.826 2-2.214 2-3.727 0-2.481-2.019-4.5-4.5-4.5h-2.508l-1.102 1.756c-.093.148-.255.234-.424.234-.039 0-.078-.004-.117-.014-.208-.05-.361-.228-.381-.442l-.137-1.534h-7.831v4.5c0 1.514.768 2.901 2 3.727z"/>
    <path d="m49.5 42v-5.5h-11v5.5c0 3.033 2.468 5.5 5.5 5.5s5.5-2.467 5.5-5.5zm-8.5-1c-.552 0-1-.448-1-1s.448-1 1-1 1 .448 1 1-.448 1-1 1zm4.768 2.768c-.487.487-1.127.731-1.768.731s-1.28-.244-1.768-.731c-.195-.195-.195-.512 0-.707s.512-.195.707 0c.584.585 1.537.585 2.121 0 .195-.195.512-.195.707 0s.196.511.001.707zm1.232-2.768c-.552 0-1-.448-1-1s.448-1 1-1 1 .448 1 1-.448 1-1 1z"/>
    <path d="m57.147 6.884c-2.168-2.176-5.054-3.378-8.126-3.384-.008 0-.015 0-.022 0-3.063 0-5.944 1.19-8.115 3.353-2.176 2.168-3.378 5.054-3.384 8.125-.008 4.239 2.308 8.125 6.042 10.144.148.08.246.229.261.396l.529 5.948 3.01-4.795c.103-.161.28-.247.475-.232.39.04.818.058 1.185.061 3.063 0 5.944-1.19 8.115-3.353 2.176-2.168 3.378-5.054 3.384-8.125s-1.186-5.962-3.354-8.138zm-.651 10.13c-.001.667-.263 1.295-.735 1.767-.364.362-.821.595-1.315.685-.228 1.711-1.682 3.038-3.453 3.038-.003 0-.005 0-.007 0l-2-.004c-.276 0-.5-.225-.499-.501s.225-.499.5-.499h.001l2 .004h.005c1.227 0 2.246-.891 2.455-2.059-1.116-.252-1.953-1.249-1.951-2.44l.004-2c.001-.668.263-1.295.735-1.767.342-.34.765-.581 1.224-.679-.225-2.268-2.12-4.055-4.447-4.059-.003 0-.006 0-.009 0-1.199 0-2.326.466-3.176 1.312-.746.743-1.179 1.708-1.281 2.743 1.117.251 1.954 1.249 1.953 2.44l-.004 2c-.001.668-.263 1.295-.735 1.767-.473.47-1.099.729-1.765.729-.002 0-.003 0-.005 0-1.378-.003-2.497-1.126-2.495-2.505l.004-2c.001-.667.263-1.295.735-1.767.363-.362.82-.595 1.314-.685.109-1.295.641-2.503 1.573-3.431 1.038-1.034 2.416-1.603 3.882-1.603h.011c2.88.006 5.241 2.236 5.467 5.059 1.15.226 2.02 1.241 2.018 2.456z"/>
    <path d="m50.5 57.5h3v3h-3z"/>
    <path d="m44 13.491c-.4 0-.775.155-1.059.437-.284.283-.44.659-.441 1.06l-.004 2c-.002.827.67 1.501 1.497 1.503h.003c.399 0 .775-.155 1.059-.438s.44-.659.441-1.06l.004-2c.001-.4-.154-.777-.438-1.062-.282-.284-.659-.44-1.06-.441 0 .001-.001.001-.002.001z"/>
    <path d="m50 48.5h-1.759l-3.85 4.812c-.095.119-.239.188-.391.188s-.296-.069-.391-.188l-3.85-4.812h-1.759c-1.93 0-3.5 1.57-3.5 3.5v4.5h3v-2.5c0-.276.224-.5.5-.5s.5.224.5.5v6.5h11v-6.5c0-.276.224-.5.5-.5s.5.224.5.5v2.5h3v-4.5c0-1.93-1.57-3.5-3.5-3.5z"/>
    <path d="m54.003 13.509c-.001 0-.002 0-.003 0-.399 0-.775.155-1.059.438s-.44.659-.441 1.06l-.004 2c-.001.4.154.777.438 1.062.282.284.659.44 1.06.441h.004c.399 0 .774-.155 1.058-.437.284-.283.44-.659.441-1.06l.004-2c.001-.827-.671-1.502-1.498-1.504z"/>
</svg>