<svg height="32" viewBox="0 0 512 512" width="32"
    xmlns="http://www.w3.org/2000/svg">
    <g id="Outline">
        <g id="Responsive-design">
            <path d="m64 48h32v16h-32z"/>
            <path d="m112 48h32v16h-32z"/>
            <path d="m160 48h32v16h-32z"/>
            <path d="m72 128h208a8 8 0 0 0 8-8v-32a8 8 0 0 0 -8-8h-208a8 8 0 0 0 -8 8v32a8 8 0 0 0 8 8zm8-32h192v16h-192z"/>
            <path d="m72 192h208a8 8 0 0 0 8-8v-32a8 8 0 0 0 -8-8h-208a8 8 0 0 0 -8 8v32a8 8 0 0 0 8 8zm8-32h192v16h-192z"/>
            <path d="m64 208h192v16h-192z"/>
            <path d="m330.343 133.657 11.314-11.314-10.343-10.343h28.686a24.027 24.027 0 0 1 24 24v20.686l-10.343-10.343-11.314 11.314 24 24a8 8 0 0 0 11.314 0l24-24-11.314-11.314-10.343 10.343v-20.686a40.045 40.045 0 0 0 -40-40h-28.686l10.343-10.343-11.314-11.314-24 24a8 8 0 0 0 0 11.314z"/>
            <path d="m237.657 418.343-11.314 11.314 18.344 18.343h-140.687a24.028 24.028 0 0 1 -24-24v-60.686l18.343 18.343 11.314-11.314-32-32a8 8 0 0 0 -11.314 0l-32 32 11.314 11.314 18.343-18.343v60.686a40.045 40.045 0 0 0 40 40h140.687l-18.344 18.343 11.314 11.314 32-32a8 8 0 0 0 0-11.314z"/>
            <path d="m456 192h-8v-136a40.045 40.045 0 0 0 -40-40h-352a40.045 40.045 0 0 0 -40 40v208a40.045 40.045 0 0 0 40 40h120v32h-32a16.019 16.019 0 0 0 -16 16v16a16.019 16.019 0 0 0 16 16h160v72a40.045 40.045 0 0 0 40 40h112a40.045 40.045 0 0 0 40-40v-224a40.045 40.045 0 0 0 -40-40zm24 40v184h-160v-184a24.027 24.027 0 0 1 24-24h112a24.027 24.027 0 0 1 24 24zm-176 72v32h-16v-32zm-248-272h352a24.027 24.027 0 0 1 24 24v136h-88a40.045 40.045 0 0 0 -40 40v8h-272v-184a24.027 24.027 0 0 1 24-24zm-24 232v-8h272v32h-248a24.027 24.027 0 0 1 -24-24zm160 40h80v32h-80zm-48 64v-16h160v16zm312 112h-112a24.027 24.027 0 0 1 -24-24v-24h160v24a24.027 24.027 0 0 1 -24 24z"/>
            <path d="m336 224h16v16h-16z"/>
            <path d="m368 224h16v16h-16z"/>
            <path d="m400 224h16v16h-16z"/>
            <path d="m336 264v32a8 8 0 0 0 8 8h112a8 8 0 0 0 8-8v-32a8 8 0 0 0 -8-8h-112a8 8 0 0 0 -8 8zm16 8h96v16h-96z"/>
            <path d="m456 320h-112a8 8 0 0 0 -8 8v32a8 8 0 0 0 8 8h112a8 8 0 0 0 8-8v-32a8 8 0 0 0 -8-8zm-8 32h-96v-16h96z"/>
            <path d="m336 384h128v16h-128z"/>
            <path d="m384 448h32v16h-32z"/>
        </g>
    </g>
</svg>