<svg width="40" height="40" viewBox="0 0 40 40" fill="none" xmlns="http://www.w3.org/2000/svg">
<path d="M10.8327 14.6788L11.7322 17.9787C11.8564 18.4348 11.7641 18.9122 11.4768 19.2875C11.1901 19.6629 10.7547 19.8785 10.2816 19.8785C9.55472 19.8785 8.93243 19.3592 8.80181 18.644L8.06112 14.5689H7.65546C7.17653 14.5689 6.72521 14.4505 6.32593 14.2455L6.32805 29.4358H16.6818C16.8284 29.4358 16.9473 29.5548 16.9473 29.7013V30.4978H22.7879V29.7013C22.7879 29.5548 22.9068 29.4358 23.0534 29.4358H33.4072V13.7724C33.4072 12.7477 32.5736 11.9141 31.5488 11.9141H18.5402V16.4272C18.5402 17.1594 17.945 17.7547 17.2128 17.7547C16.5369 17.7547 15.9836 17.2455 15.9018 16.5908L15.0682 16.1145C13.7599 15.3669 12.3189 14.8821 10.8327 14.6788ZM11.6377 27.5775C11.6377 27.724 11.5187 27.843 11.3722 27.843H9.24835C9.1018 27.843 8.98287 27.724 8.98287 27.5775V24.9227C8.98287 24.7761 9.1018 24.6572 9.24835 24.6572H11.3722C11.5187 24.6572 11.6377 24.7761 11.6377 24.9227V27.5775ZM16.4164 27.5775C16.4164 27.724 16.2974 27.843 16.1509 27.843H14.027C13.8805 27.843 13.7615 27.724 13.7615 27.5775V23.8607C13.7615 23.7142 13.8805 23.5953 14.027 23.5953H16.1509C16.2974 23.5953 16.4164 23.7142 16.4164 23.8607V27.5775ZM21.195 27.5775C21.195 27.724 21.0761 27.843 20.9295 27.843H18.8057C18.6591 27.843 18.5402 27.724 18.5402 27.5775V21.7369C18.5402 21.5903 18.6591 21.4714 18.8057 21.4714H20.9295C21.0761 21.4714 21.195 21.5903 21.195 21.7369V27.5775ZM25.9737 27.5775C25.9737 27.724 25.8548 27.843 25.7082 27.843H23.5844C23.4378 27.843 23.3189 27.724 23.3189 27.5775V22.7988C23.3189 22.6523 23.4378 22.5333 23.5844 22.5333H25.7082C25.8548 22.5333 25.9737 22.6523 25.9737 22.7988V27.5775ZM30.7524 18.0201V27.5775C30.7524 27.724 30.6334 27.843 30.4869 27.843H28.363C28.2165 27.843 28.0975 27.724 28.0975 27.5775V18.0201C28.0975 17.8736 28.2165 17.7547 28.363 17.7547H30.4869C30.6334 17.7547 30.7524 17.8736 30.7524 18.0201ZM28.363 13.507H29.9559C30.1025 13.507 30.2214 13.6259 30.2214 13.7724V15.3653C30.2214 15.5119 30.1025 15.6308 29.9559 15.6308C29.8094 15.6308 29.6904 15.5119 29.6904 15.3653V14.0379H28.363C28.2165 14.0379 28.0975 13.919 28.0975 13.7724C28.0975 13.6259 28.2165 13.507 28.363 13.507ZM21.2083 13.6885C21.255 13.5494 21.4063 13.4751 21.5444 13.5208L24.7302 14.5827C24.8693 14.6294 24.9442 14.7797 24.898 14.9188C24.8608 15.0292 24.7573 15.0998 24.6463 15.0998C24.6181 15.0998 24.5905 15.0956 24.5624 15.0866L21.3766 14.0246C21.2375 13.9779 21.1621 13.8277 21.2083 13.6885ZM20.7172 15.737C20.8058 15.6191 20.972 15.5963 21.0888 15.6834L23.2127 17.2763C23.33 17.3644 23.3539 17.5306 23.2663 17.6479C23.2137 17.7175 23.1341 17.7541 23.0539 17.7541C22.9987 17.7541 22.9424 17.7371 22.8946 17.701L20.7708 16.1081C20.6529 16.0205 20.6295 15.8543 20.7172 15.737ZM17.0859 19.3805C17.1247 19.3587 17.1682 19.3475 17.2128 19.3475H23.4819L29.2466 14.1069C29.3554 14.0087 29.5232 14.0161 29.6214 14.125C29.7202 14.2333 29.7122 14.4016 29.6034 14.4999L23.7628 19.8095C23.7139 19.8541 23.6502 19.8785 23.5844 19.8785H17.2808L11.4991 23.0314C11.4603 23.0531 11.4168 23.0643 11.3722 23.0643H9.24835C9.1018 23.0643 8.98287 22.9454 8.98287 22.7988C8.98287 22.6523 9.1018 22.5333 9.24835 22.5333H11.3042L17.0859 19.3805Z" fill="#383F51"/>
<path d="M9.32478 18.5499C9.40867 19.0129 9.81167 19.349 10.2821 19.349C10.5879 19.349 10.8699 19.2093 11.0557 18.9662C11.241 18.7235 11.301 18.415 11.2208 18.1198L10.2667 14.6202C9.92795 14.5905 9.58867 14.5703 9.24832 14.5703H8.60107L9.32478 18.5499Z" fill="#383F51"/>
<path d="M15.8854 15.9711V7.32812L15.3316 7.64511C13.5587 8.65766 11.5532 9.21304 9.51379 9.25711V14.0422C11.5532 14.0862 13.5587 14.6416 15.3316 15.6542L15.8854 15.9711Z" fill="#383F51"/>
<path d="M14.2925 24.127H15.8854V27.3127H14.2925V24.127Z" fill="#383F51"/>
<path d="M23.8499 23.0645H25.4427V27.3122H23.8499V23.0645Z" fill="#383F51"/>
<path d="M19.071 22.0039H20.6639V27.3135H19.071V22.0039Z" fill="#383F51"/>
<path d="M9.51379 25.1875H11.1067V27.3114H9.51379V25.1875Z" fill="#383F51"/>
<path d="M7.65545 14.0384H8.98286V9.25977H7.65545C6.33813 9.25977 5.26611 10.3318 5.26611 11.6491C5.26611 12.9664 6.33813 14.0384 7.65545 14.0384Z" fill="#383F51"/>
<path d="M23.3188 29.9688V30.7652C23.3188 30.9117 23.1999 31.0307 23.0533 31.0307H16.6818C16.5352 31.0307 16.4163 30.9117 16.4163 30.7652V29.9688H4.73511V31.8271C4.73511 32.8519 5.56872 33.6855 6.59348 33.6855H33.1416C34.1664 33.6855 35 32.8519 35 31.8271V29.9688H23.3188ZM7.12444 32.3581C6.83135 32.3581 6.59348 32.1202 6.59348 31.8271C6.59348 31.534 6.83135 31.2962 7.12444 31.2962C7.41753 31.2962 7.65541 31.534 7.65541 31.8271C7.65541 32.1202 7.41753 32.3581 7.12444 32.3581ZM9.24829 32.3581C8.9552 32.3581 8.71733 32.1202 8.71733 31.8271C8.71733 31.534 8.9552 31.2962 9.24829 31.2962C9.54139 31.2962 9.77926 31.534 9.77926 31.8271C9.77926 32.1202 9.54139 32.3581 9.24829 32.3581ZM30.4868 32.3581C30.1937 32.3581 29.9559 32.1202 29.9559 31.8271C29.9559 31.534 30.1937 31.2962 30.4868 31.2962C30.7799 31.2962 31.0178 31.534 31.0178 31.8271C31.0178 32.1202 30.7799 32.3581 30.4868 32.3581ZM32.6107 32.3581C32.3176 32.3581 32.0797 32.1202 32.0797 31.8271C32.0797 31.534 32.3176 31.2962 32.6107 31.2962C32.9038 31.2962 33.1416 31.534 33.1416 31.8271C33.1416 32.1202 32.9038 32.3581 32.6107 32.3581Z" fill="#383F51"/>
<path d="M17.2127 17.2244C17.6518 17.2244 18.0091 16.8671 18.0091 16.428V6.87066C18.0091 6.43156 17.6518 6.07422 17.2127 6.07422C16.7736 6.07422 16.4163 6.43156 16.4163 6.87066V16.428C16.4163 16.8671 16.7736 17.2244 17.2127 17.2244Z" fill="#383F51"/>
<path d="M28.6284 18.2871H30.2213V27.3135H28.6284V18.2871Z" fill="#383F51"/>
<path d="M20.9295 7.66703C20.9847 7.66703 21.041 7.65004 21.0888 7.61394L23.2126 6.02105C23.33 5.93291 23.3538 5.76672 23.2662 5.64937C23.1776 5.53203 23.0114 5.50814 22.8946 5.59575L20.7707 7.18864C20.6534 7.27678 20.6295 7.44297 20.7171 7.56031C20.7691 7.6304 20.8493 7.66703 20.9295 7.66703Z" fill="#383F51"/>
<path d="M21.2083 9.6082C21.246 9.71917 21.3495 9.78979 21.4605 9.78979C21.4886 9.78979 21.5163 9.78554 21.5444 9.77652L24.7302 8.71459C24.8693 8.66786 24.9442 8.5176 24.898 8.37849C24.8512 8.23938 24.7015 8.16504 24.5619 8.21071L21.3761 9.27263C21.2375 9.31883 21.1621 9.46909 21.2083 9.6082Z" fill="#383F51"/>
</svg>
