<svg width="40" height="40" viewBox="0 0 40 40" fill="none" xmlns="http://www.w3.org/2000/svg">
<path d="M16.9453 19.9939C16.9453 19.6846 17.0402 19.3822 17.2181 19.125C17.3959 18.8678 17.6488 18.6673 17.9445 18.5489C18.2403 18.4305 18.5658 18.3996 18.8798 18.4599C19.1938 18.5203 19.4823 18.6692 19.7086 18.888C19.935 19.1067 20.0892 19.3854 20.1517 19.6888C20.2141 19.9922 20.1821 20.3067 20.0595 20.5925C19.937 20.8783 19.7295 21.1225 19.4633 21.2944C19.1971 21.4663 18.8842 21.558 18.564 21.558C18.1348 21.5575 17.7234 21.3926 17.4199 21.0994C17.1164 20.8062 16.9457 20.4086 16.9453 19.9939ZM16.7915 17.2312C17.1016 17.0449 17.4413 16.9092 17.797 16.8296L17.888 16.478L17.9993 16.0491C18.3739 15.9985 18.754 15.9985 19.1287 16.0491L19.2401 16.478L19.3328 16.8296C19.6885 16.9092 20.0282 17.0449 20.3382 17.2312L20.6598 17.0462L21.0536 16.819C21.3549 17.0397 21.6236 17.2993 21.852 17.5905L21.6168 17.9694L21.4238 18.2816C21.6166 18.5814 21.7575 18.9095 21.8411 19.2531L22.205 19.3409L22.6489 19.4501C22.6991 19.8117 22.6991 20.1782 22.6489 20.5398L22.205 20.6489L21.8411 20.7368C21.7575 21.0803 21.6166 21.4084 21.4238 21.7083L21.6168 22.019L21.852 22.3994C21.6231 22.6902 21.3546 22.9498 21.0536 23.1709L20.6598 22.9437L20.3382 22.7573C20.0282 22.9439 19.6886 23.0799 19.3328 23.1598L19.2403 23.5114L19.1289 23.9403C18.7542 23.9903 18.3742 23.9903 17.9995 23.9403L17.8882 23.5114L17.7972 23.1598C17.4416 23.079 17.1021 22.9429 16.7918 22.7567L16.4686 22.9431L16.0765 23.1703C15.7751 22.9496 15.5065 22.69 15.2781 22.3988L15.5118 22.0184L15.7047 21.7077C15.512 21.4079 15.3711 21.0797 15.2875 20.7362L14.9252 20.6483L14.4813 20.5392C14.429 20.1777 14.429 19.811 14.4813 19.4495L14.9252 19.3403L15.2891 19.2525C15.3714 18.9088 15.5118 18.5806 15.7047 18.281L15.5117 17.9688L15.278 17.5899C15.5065 17.2987 15.7751 17.0392 16.0764 16.8184L16.4686 17.0457L16.7915 17.2312ZM16.1704 19.994C16.1704 20.4514 16.3108 20.8986 16.5738 21.2789C16.8368 21.6593 17.2106 21.9557 17.648 22.1307C18.0854 22.3058 18.5667 22.3516 19.031 22.2624C19.4953 22.1731 19.9218 21.9528 20.2566 21.6294C20.5913 21.306 20.8193 20.8939 20.9116 20.4452C21.004 19.9966 20.9566 19.5316 20.7754 19.109C20.5943 18.6864 20.2875 18.3252 19.8938 18.071C19.5002 17.8169 19.0374 17.6813 18.564 17.6813C17.9294 17.682 17.321 17.9258 16.8723 18.3594C16.4236 18.7929 16.1712 19.3808 16.1704 19.9939V19.994ZM24.1684 15.0291C24.1009 14.955 24.0057 14.9097 23.9037 14.9031C23.8017 14.8966 23.7012 14.9294 23.6241 14.9942L22.4445 15.9914C22.4307 16.0033 22.4176 16.0159 22.4053 16.0293C22.3719 16.0661 22.3463 16.1089 22.33 16.1552C22.3137 16.2016 22.3071 16.2506 22.3104 16.2994C22.3138 16.3483 22.3271 16.396 22.3496 16.4399C22.372 16.4838 22.4032 16.5229 22.4414 16.5551L23.6241 17.5554C23.6621 17.5883 23.7065 17.6135 23.7547 17.6297C23.8029 17.6459 23.8539 17.6527 23.9048 17.6497C23.9557 17.6467 24.0055 17.634 24.0513 17.6123C24.0971 17.5906 24.138 17.5603 24.1716 17.5232C24.2052 17.4861 24.2308 17.443 24.247 17.3963C24.2633 17.3495 24.2697 17.3002 24.2661 17.251C24.2624 17.2019 24.2487 17.1539 24.2258 17.1099C24.2028 17.0659 24.171 17.0267 24.1323 16.9947L23.2806 16.2748L24.1323 15.5549C24.2091 15.4896 24.256 15.3977 24.2627 15.2991C24.2695 15.2006 24.2356 15.1035 24.1684 15.029V15.0291ZM34 9.66394V20.2728C33.9994 20.714 33.8178 21.1369 33.4949 21.4489C33.172 21.7608 32.7343 21.9363 32.2777 21.9369H22.4681L22.3144 21.6886C22.3662 21.5809 22.4132 21.4703 22.4555 21.3582L23.3449 21.1415L23.3527 21.0808H32.2777C32.4993 21.0803 32.7116 20.995 32.8683 20.8437C33.0249 20.6923 33.1132 20.4871 33.1137 20.2731V11.6523H18.9185V15.2745C18.8009 15.2669 18.6833 15.2624 18.564 15.2624C18.3869 15.2621 18.2098 15.2717 18.0338 15.2912V9.66394C18.0352 9.22301 18.2171 8.80052 18.5398 8.48875C18.8625 8.17698 19.2998 8.00127 19.7561 8H32.2777C32.7341 8.00127 33.1713 8.17698 33.494 8.48875C33.8167 8.80052 33.9986 9.22301 34 9.66394ZM20.3773 9.8261C20.3771 9.72689 20.3362 9.6318 20.2636 9.56165C20.191 9.4915 20.0926 9.45199 19.9899 9.45178H19.9538C19.903 9.45178 19.8526 9.46147 19.8056 9.48028C19.7586 9.49909 19.7159 9.52666 19.6799 9.56142C19.6439 9.59618 19.6154 9.63744 19.5959 9.68286C19.5765 9.72827 19.5664 9.77695 19.5664 9.8261C19.5664 9.87526 19.5765 9.92393 19.5959 9.96935C19.6154 10.0148 19.6439 10.056 19.6799 10.0908C19.7159 10.1255 19.7586 10.1531 19.8056 10.1719C19.8526 10.1907 19.903 10.2004 19.9538 10.2004H19.9899C20.0926 10.2002 20.191 10.1607 20.2636 10.0906C20.3362 10.0204 20.3771 9.92532 20.3773 9.8261ZM21.6604 9.8261C21.6604 9.77694 21.6504 9.72825 21.6309 9.68282C21.6115 9.6374 21.5829 9.59612 21.547 9.56136C21.511 9.52659 21.4683 9.49902 21.4212 9.48022C21.3742 9.46142 21.3238 9.45176 21.273 9.45178H21.2369C21.186 9.45178 21.1357 9.46147 21.0887 9.48028C21.0417 9.49909 20.999 9.52666 20.963 9.56142C20.927 9.59618 20.8985 9.63744 20.879 9.68286C20.8595 9.72827 20.8495 9.77695 20.8495 9.8261C20.8495 9.87526 20.8595 9.92393 20.879 9.96935C20.8985 10.0148 20.927 10.056 20.963 10.0908C20.999 10.1255 21.0417 10.1531 21.0887 10.1719C21.1357 10.1907 21.186 10.2004 21.2369 10.2004H21.273C21.3238 10.2004 21.3742 10.1908 21.4212 10.1719C21.4682 10.1531 21.5109 10.1256 21.5469 10.0908C21.5828 10.056 21.6114 10.0148 21.6308 9.96935C21.6503 9.92393 21.6603 9.87526 21.6603 9.8261H21.6604ZM22.9434 9.8261C22.9435 9.77694 22.9335 9.72826 22.914 9.68283C22.8945 9.63741 22.866 9.59614 22.83 9.56137C22.794 9.52661 22.7513 9.49904 22.7043 9.48023C22.6573 9.46143 22.6069 9.45176 22.556 9.45178H22.5199C22.4691 9.45178 22.4187 9.46147 22.3717 9.48028C22.3247 9.49909 22.282 9.52666 22.246 9.56142C22.21 9.59618 22.1815 9.63744 22.162 9.68286C22.1426 9.72827 22.1325 9.77695 22.1325 9.8261C22.1325 9.87526 22.1426 9.92393 22.162 9.96935C22.1815 10.0148 22.21 10.056 22.246 10.0908C22.282 10.1255 22.3247 10.1531 22.3717 10.1719C22.4187 10.1907 22.4691 10.2004 22.5199 10.2004H22.556C22.6069 10.2004 22.6573 10.1908 22.7043 10.1719C22.7513 10.1531 22.794 10.1256 22.83 10.0908C22.8659 10.056 22.8944 10.0148 22.9139 9.96935C22.9334 9.92393 22.9434 9.87526 22.9433 9.8261H22.9434ZM32.4677 9.8261C32.4674 9.72689 32.4265 9.6318 32.3539 9.56165C32.2813 9.4915 32.1829 9.45199 32.0802 9.45178H25.8985C25.8476 9.45178 25.7972 9.46147 25.7502 9.48028C25.7032 9.49909 25.6605 9.52666 25.6245 9.56142C25.5886 9.59618 25.56 9.63744 25.5406 9.68286C25.5211 9.72827 25.5111 9.77695 25.5111 9.8261C25.5111 9.87526 25.5211 9.92393 25.5406 9.96935C25.56 10.0148 25.5886 10.056 25.6245 10.0908C25.6605 10.1255 25.7032 10.1531 25.7502 10.1719C25.7972 10.1907 25.8476 10.2004 25.8985 10.2004H32.0801C32.1828 10.2002 32.2812 10.1607 32.3538 10.0906C32.4264 10.0204 32.4673 9.92532 32.4675 9.8261H32.4677ZM27.8654 17.5206C27.8988 17.5575 27.9393 17.5876 27.9847 17.6093C28.0301 17.631 28.0795 17.6439 28.1301 17.6471C28.1807 17.6504 28.2314 17.6439 28.2794 17.6282C28.3274 17.6124 28.3717 17.5877 28.4097 17.5554L29.5924 16.5551C29.6692 16.4899 29.716 16.3979 29.7228 16.2994C29.7296 16.2008 29.6956 16.1037 29.6284 16.0293C29.6162 16.0159 29.6031 16.0032 29.5892 15.9914L28.4097 14.9941C28.3717 14.9616 28.3273 14.9367 28.2793 14.9207C28.2312 14.9048 28.1804 14.8982 28.1296 14.9014C28.0789 14.9045 28.0294 14.9173 27.9838 14.939C27.9382 14.9607 27.8975 14.9908 27.864 15.0278C27.8305 15.0647 27.805 15.1077 27.7887 15.1542C27.7725 15.2007 27.7659 15.2499 27.7694 15.2989C27.7729 15.3478 27.7863 15.3957 27.809 15.4396C27.8317 15.4835 27.8631 15.5227 27.9015 15.5549L28.7517 16.2748L27.9015 16.9947C27.8634 17.0269 27.8321 17.066 27.8097 17.1099C27.7872 17.1538 27.7739 17.2015 27.7705 17.2504C27.7672 17.2992 27.7738 17.3483 27.7901 17.3946C27.8064 17.441 27.832 17.4838 27.8654 17.5206ZM25.8857 18.1919L26.8961 14.5501C26.9225 14.4542 26.9084 14.3521 26.8569 14.2663C26.8055 14.1804 26.7208 14.1179 26.6216 14.0924C26.5223 14.0668 26.4167 14.0805 26.3279 14.1302C26.239 14.1799 26.1743 14.2618 26.1479 14.3576L25.1377 17.9995C25.1113 18.0953 25.1254 18.1974 25.1769 18.2833C25.2284 18.3691 25.313 18.4317 25.4123 18.4572C25.5115 18.4827 25.6171 18.4691 25.706 18.4193C25.7948 18.3696 25.8595 18.2878 25.886 18.1919H25.8857ZM27.4088 25.1059H7.49636V14.485H17.259V13.0406H6.96469C6.70931 13.0411 6.46451 13.1392 6.28376 13.3135C6.10301 13.4878 6.001 13.7242 6 13.9709V26.9807C6.00095 27.2274 6.10295 27.4638 6.2837 27.6382C6.46446 27.8125 6.70928 27.9107 6.96469 27.9112H15.1069V30.7241H13.443C12.9583 30.7241 12.5615 31.0332 12.5615 31.4121V32H22.3442V31.4121C22.3442 31.0332 21.9473 30.7241 21.4627 30.7241H19.7984V27.9112H27.9406C28.196 27.9107 28.4408 27.8125 28.6216 27.6382C28.8023 27.4638 28.9043 27.2274 28.9053 26.9807V22.6855H27.409L27.4088 25.1059ZM12.933 22.4416H9.27824C9.1757 22.4416 9.07736 22.4809 9.00485 22.551C8.93234 22.6211 8.8916 22.7161 8.8916 22.8152C8.8916 22.9142 8.93234 23.0093 9.00485 23.0793C9.07736 23.1494 9.1757 23.1887 9.27824 23.1887H12.933C13.0355 23.1887 13.1338 23.1494 13.2063 23.0793C13.2789 23.0093 13.3196 22.9142 13.3196 22.8152C13.3196 22.7161 13.2789 22.6211 13.2063 22.551C13.1338 22.4809 13.0356 22.4416 12.933 22.4416ZM12.933 20.9304H9.27824C9.17629 20.9315 9.07892 20.9715 9.00725 21.0416C8.93558 21.1116 8.89538 21.2062 8.89538 21.3047C8.89538 21.4032 8.93558 21.4978 9.00725 21.5678C9.07892 21.6379 9.17629 21.6779 9.27824 21.679H12.933C13.0349 21.6779 13.1323 21.6379 13.2039 21.5678C13.2756 21.4978 13.3158 21.4032 13.3158 21.3047C13.3158 21.2062 13.2756 21.1116 13.2039 21.0416C13.1323 20.9715 13.035 20.9315 12.933 20.9304ZM12.933 16.402H9.27824C9.17629 16.4031 9.07892 16.4431 9.00725 16.5132C8.93558 16.5832 8.89538 16.6778 8.89538 16.7763C8.89538 16.8748 8.93558 16.9694 9.00725 17.0394C9.07892 17.1095 9.17629 17.1495 9.27824 17.1506H12.933C13.0349 17.1495 13.1323 17.1095 13.2039 17.0394C13.2756 16.9694 13.3158 16.8748 13.3158 16.7763C13.3158 16.6778 13.2756 16.5832 13.2039 16.5132C13.1323 16.4431 13.035 16.4031 12.933 16.402ZM12.933 17.9114H9.27824C9.17629 17.9126 9.07892 17.9526 9.00725 18.0226C8.93558 18.0927 8.89538 18.1873 8.89538 18.2858C8.89538 18.3843 8.93558 18.4789 9.00725 18.5489C9.07892 18.619 9.17629 18.659 9.27824 18.6601H12.933C13.0349 18.659 13.1323 18.619 13.2039 18.5489C13.2756 18.4789 13.3158 18.3843 13.3158 18.2858C13.3158 18.1873 13.2756 18.0927 13.2039 18.0226C13.1323 17.9526 13.035 17.9126 12.933 17.9114ZM12.933 19.421H9.27824C9.1755 19.421 9.07696 19.4604 9.0043 19.5306C8.93165 19.6008 8.89084 19.696 8.89084 19.7953C8.89084 19.8946 8.93165 19.9898 9.0043 20.06C9.07696 20.1302 9.1755 20.1696 9.27824 20.1696H12.933C13.0357 20.1696 13.1342 20.1302 13.2069 20.06C13.2795 19.9898 13.3204 19.8946 13.3204 19.7953C13.3204 19.696 13.2795 19.6008 13.2069 19.5306C13.1342 19.4604 13.0358 19.421 12.933 19.421Z" fill="#383F51"/>
</svg>
