<svg height="512" viewBox="0 0 128 128" width="512"
    xmlns="http://www.w3.org/2000/svg">
    <g id="Glyph">
        <g id="Glyph-2" data-name="Glyph">
            <path d="m65.5 127.962a64.052 64.052 0 0 0 62.462-62.462h-62.462zm30.863-59.035a11.5 11.5 0 1 1 -11.5 11.5 11.5 11.5 0 0 1 11.5-11.5zm-16.932 44.573a17.043 17.043 0 0 1 13.452-16.671l1.692 3.589-1.01 7.742a1.069 1.069 0 0 0 .262.852l1.734 1.951a1.072 1.072 0 0 0 1.6 0l1.735-1.951a1.072 1.072 0 0 0 .262-.852l-1.01-7.742 1.689-3.583a16.982 16.982 0 0 1 10.4 6.958 60.815 60.815 0 0 1 -30.814 19.225z"/>
            <path d="m24.966 48.248a12.824 12.824 0 0 1 6.795 0 1.5 1.5 0 0 0 .955-2.844 15.421 15.421 0 0 0 -8.705 0 1.5 1.5 0 1 0 .955 2.844z"/>
            <path d="m26.05 43.664a13.717 13.717 0 0 1 4.627 0 1.5 1.5 0 0 0 .539-2.951 16.562 16.562 0 0 0 -5.705 0 1.5 1.5 0 1 0 .539 2.951z"/>
            <path d="m64 0a63.6 63.6 0 0 0 -30.683 7.852l31.549 54.648h63.1a64.061 64.061 0 0 0 -63.966-62.5zm8.682 17.659a2.583 2.583 0 0 0 1.5.141 6.315 6.315 0 0 1 -.768-2.861.563.563 0 0 1 .771-.57 6.933 6.933 0 0 0 4.868.461c2.41-.83 8.309-.83 8.309-.83a12.554 12.554 0 1 1 -12.292 9.979c-2.1-1.371-2.894-4.207-3.115-5.687a.569.569 0 0 1 .727-.633zm13.181 41.841h-16.374a18.219 18.219 0 0 1 9.711-13.9l1.867 3.967a1.9 1.9 0 0 0 2.828.738l1.968-1.405zm1.5-11.675-4.324-3.658a17.969 17.969 0 0 1 8.648 0l-4.323 3.658zm1.5 11.675v-10.6l1.972 1.408a1.9 1.9 0 0 0 2.828-.738l1.867-3.97a18.22 18.22 0 0 1 9.707 13.9z"/>
            <path d="m97.784 53.534h-3.716a.571.571 0 0 0 -.571.571v3.3a.571.571 0 0 0 .239.465l1.858 1.33a.571.571 0 0 0 .664 0l1.858-1.327a.571.571 0 0 0 .239-.465v-3.3a.571.571 0 0 0 -.571-.574z"/>
            <path d="m30.721 9.354a63.935 63.935 0 0 0 -22.869 85.329l54.1-31.232zm-15.311 77.502-5.059 2.921v-5.125a18.009 18.009 0 0 1 5.059-12.338zm12.953-49.734a12.559 12.559 0 1 1 -12.558 12.559 12.559 12.559 0 0 1 12.558-12.559zm-1.5 43.124-8.45 4.878v-15.349a17.937 17.937 0 0 1 1.787-1.047l1.863 3.959a1.9 1.9 0 0 0 2.828.739l1.968-1.407zm1.5-9.3-4.323-3.658a17.9 17.9 0 0 1 8.643 0l-4.318 3.653zm9.957 2.684-8.46 4.884v-6.5l1.975 1.411a1.9 1.9 0 0 0 2.827-.739l1.86-3.952a18.11 18.11 0 0 1 1.8 1.055z"/>
            <path d="m62.5 127.962v-61.362l-53.146 30.679a64.021 64.021 0 0 0 53.146 30.683zm-28.163-39.192a1.752 1.752 0 0 0 1.015.1 4.29 4.29 0 0 1 -.519-1.937.382.382 0 0 1 .522-.386 4.685 4.685 0 0 0 3.294.312 25.62 25.62 0 0 1 5.624-.561 8.493 8.493 0 1 1 -8.32 6.754 5.766 5.766 0 0 1 -2.108-3.852.386.386 0 0 1 .492-.43zm15.509 19.845a6.81 6.81 0 0 1 -10.967.006 13.28 13.28 0 0 1 10.967-.006zm-15.346 3.24a13.74 13.74 0 0 0 19.741 0 13.214 13.214 0 0 1 3.453 9.065v3.707a60.655 60.655 0 0 1 -25.71-8.727 13.572 13.572 0 0 1 2.516-4.045z"/>
        </g>
    </g>
</svg>