<svg id="Capa_1" enable-background="new 0 0 322.047 322.047" height="32" viewBox="0 0 322.047 322.047" width="32"
    xmlns="http://www.w3.org/2000/svg">
    <path d="m133.694 137.292c-8.777 0-17.274-3.135-23.928-8.827-8.245-7.013-12.978-17.25-12.978-28.08 0-20.351 16.556-36.907 36.907-36.907s36.905 16.557 36.905 36.908c0 10.821-4.733 21.058-12.989 28.087-6.63 5.685-15.13 8.819-23.917 8.819zm0-63.078c-14.43 0-26.172 11.741-26.172 26.172 0 7.676 3.357 14.933 9.21 19.913 9.451 8.083 24.515 8.064 33.906.013 5.871-4.998 9.228-12.258 9.228-19.926-.001-14.431-11.742-26.172-26.172-26.172z"/>
    <path d="m183.225 187.444h-10.735v-29.783c0-11.765-6.919-22.348-17.484-27.154-12.402 8.796-30.252 8.782-42.62.003-10.562 4.807-17.478 15.387-17.478 27.152v29.783h-10.735v-29.783c0-17.287 10.984-32.697 27.333-38.348 1.808-.611 3.798-.244 5.247.999 9.39 8.049 24.463 8.062 33.895-.003 1.441-1.24 3.436-1.614 5.242-.996 16.349 5.648 27.335 21.058 27.335 38.348z"/>
    <path d="m44.006 198.41c-14.742-19.74-22.537-43.228-22.537-67.924 0-62.638 50.957-113.597 113.592-113.597 13.233 0 26.193 2.254 38.518 6.701l-3.643 10.098c-11.154-4.026-22.888-6.065-34.875-6.065-56.715 0-102.857 46.145-102.857 102.862 0 22.364 7.055 43.629 20.403 61.498z"/>
    <path d="m156.671 242.02-2.029-10.541c48.257-9.299 83.282-51.774 83.282-100.999 0-5.391-.425-10.824-1.261-16.144l10.604-1.667c.923 5.871 1.392 11.862 1.392 17.811 0 54.362-38.686 101.272-91.988 111.54z"/>
    <path d="m217.984 204.327h10.734v40.281h-10.734z" transform="matrix(.707 -.707 .707 .707 -93.304 223.649)"/>
    <path d="m262.274 305.159-38.838-38.841c-2.812-2.81-4.361-6.547-4.361-10.525s1.549-7.716 4.361-10.528l20.712-20.71c5.63-5.624 15.431-5.624 21.056 0l44.536 44.536-7.59 7.59-44.538-44.536c-1.572-1.572-4.301-1.57-5.873.003l-20.712 20.71c-.786.786-1.216 1.829-1.216 2.935s.43 2.149 1.216 2.935l38.838 38.841z"/>
    <path d="m316.68 102.768h-128.819c-2.964 0-5.367-2.403-5.367-5.367v-64.41c0-2.964 2.403-5.367 5.367-5.367h128.819c2.964 0 5.367 2.403 5.367 5.367v64.409c0 2.965-2.403 5.368-5.367 5.368zm-123.452-10.735h118.084v-53.675h-118.084z"/>
    <path d="m203.963 49.093h96.614v10.735h-96.614z"/>
    <path d="m203.963 70.563h53.675v10.735h-53.675z"/>
    <path d="m268.373 70.563h32.205v10.735h-32.205z"/>
    <path d="m134.186 279.894h-128.819c-2.964 0-5.367-2.401-5.367-5.367v-64.409c0-2.964 2.403-5.367 5.367-5.367h128.819c2.964 0 5.367 2.403 5.367 5.367v64.409c.001 2.966-2.402 5.367-5.367 5.367zm-123.451-10.735h118.084v-53.675h-118.084z"/>
    <path d="m21.47 226.219h96.614v10.735h-96.614z"/>
    <path d="m21.47 247.689h53.675v10.735h-53.675z"/>
    <path d="m85.879 247.689h32.205v10.735h-32.205z"/>
</svg>