<svg id="Capa_1" enable-background="new 0 0 325.07 325.07" height="32" viewBox="0 0 325.07 325.07" width="32"
    xmlns="http://www.w3.org/2000/svg">
    <path d="m304.32 68.604h19.353v10.735h-19.353z" transform="matrix(.832 -.555 .555 .832 11.704 186.597)"/>
    <path d="m250.386 242.268h-36.154c-2.964 0-5.367-2.403-5.367-5.367v-24.376l-19.072 19.127c-1.73 1.738-4.039 2.699-6.5 2.702-.003 0-.005 0-.008 0-2.461 0-4.773-.959-6.51-2.699l-20.131-20.131c-1.732-1.725-2.694-4.033-2.697-6.494-.003-2.464.957-4.778 2.699-6.518l19.129-19.074h-26.989c-5.092 0-9.233-4.141-9.233-9.231v-28.428c0-5.09 4.141-9.231 9.233-9.231h27.008l-19.129-19.072c-1.738-1.732-2.697-4.041-2.699-6.5-.003-2.461.954-4.775 2.694-6.515l20.133-20.133c1.725-1.732 4.033-2.694 6.494-2.697h.008c2.461 0 4.773.959 6.51 2.699l19.074 19.129v-26.989c0-5.092 4.141-9.233 9.233-9.233h28.426c5.09 0 9.231 4.141 9.231 9.233v27l19.072-19.127c1.73-1.738 4.039-2.699 6.5-2.702h.008c2.461 0 4.773.959 6.51 2.699l20.131 20.131c1.732 1.725 2.694 4.033 2.697 6.494.003 2.464-.957 4.778-2.699 6.518l-19.129 19.074h26.997c2.471 0 4.794.97 6.542 2.731 1.743 1.753 2.692 4.073 2.673 6.528v28.389c0 5.09-4.141 9.231-9.233 9.231h-26.995l19.127 19.072c1.738 1.73 2.699 4.039 2.702 6.5.003 2.464-.957 4.778-2.699 6.518l-20.131 20.131c-1.724 1.732-4.033 2.694-6.494 2.697-.003 0-.005 0-.008 0-2.461 0-4.773-.959-6.51-2.699l-19.074-19.129v24.376c-.002 2.963-2.406 5.366-5.37 5.366zm-30.787-10.735h25.419v-22.623c0-3.703 2.212-7.029 5.632-8.476 3.459-1.452 7.409-.721 10.085 1.884l20.602 20.66 17.958-17.958-20.602-20.545c-2.66-2.731-3.399-6.688-1.942-10.143 1.447-3.42 4.773-5.632 8.476-5.632h29.107v-25.409h-29.091c-3.703 0-7.029-2.212-8.476-5.632-1.457-3.454-.718-7.412 1.884-10.085l20.66-20.602-17.958-17.958-20.545 20.602c-2.726 2.658-6.68 3.399-10.14 1.942-3.423-1.444-5.635-4.773-5.635-8.476v-29.11h-25.419v29.102c0 3.703-2.212 7.029-5.632 8.476-3.46 1.455-7.409.721-10.085-1.884l-20.602-20.66-17.958 17.958 20.602 20.545c3.153 3.289 3.533 8.266.991 11.92-1.832 2.49-4.545 3.855-7.524 3.855h-29.117v25.419h29.102c3.703 0 7.029 2.212 8.476 5.632 1.457 3.454.718 7.412-1.884 10.085l-20.66 20.602 17.958 17.958 20.545-20.602c2.728-2.66 6.683-3.402 10.137-1.942 3.425 1.444 5.637 4.773 5.637 8.476v22.621zm60.646-7.461c-.003 0-.003.003-.005.005zm-116.021-20.149.005.005c0-.002-.003-.002-.005-.005zm150.11-62.145v.021zm-13.929-33.712c0 .003.003.003.005.005zm-116.011-20.159-.005.005c.002 0 .002-.003.005-.005zm47.927 94.53c-14.58 0-26.442-11.859-26.442-26.439 0-14.577 11.862-26.436 26.442-26.436s26.439 11.859 26.439 26.436c-.008 14.58-11.867 26.439-26.439 26.439zm0-42.14c-8.662 0-15.707 7.045-15.707 15.701 0 8.659 7.045 15.704 15.707 15.704 8.657 0 15.701-7.045 15.704-15.707 0-8.653-7.045-15.698-15.704-15.698z"/>
    <path d="m232.321 182.469c-14.595 0-26.468-11.872-26.468-26.465 0-14.595 11.872-26.468 26.468-26.468 14.593 0 26.465 11.872 26.465 26.468 0 14.592-11.872 26.465-26.465 26.465zm0-42.198c-8.675 0-15.733 7.058-15.733 15.733s7.058 15.73 15.733 15.73 15.73-7.055 15.73-15.73-7.055-15.733-15.73-15.733z"/>
    <path d="m232.321 182.469c-14.595 0-26.468-11.872-26.468-26.465 0-14.595 11.872-26.468 26.468-26.468 14.593 0 26.465 11.872 26.465 26.468 0 14.592-11.872 26.465-26.465 26.465zm0-42.198c-8.675 0-15.733 7.058-15.733 15.733s7.058 15.73 15.733 15.73 15.73-7.055 15.73-15.73-7.055-15.733-15.73-15.733z"/>
    <path d="m232.444 283.303c-13.272 0-24.07-10.798-24.07-24.07v-22.316c0-2.964 2.403-5.367 5.367-5.367h37.402c2.964 0 5.367 2.403 5.367 5.367v22.316c.001 13.272-10.794 24.07-24.066 24.07zm-13.335-41.019v16.949c0 7.354 5.981 13.335 13.335 13.335 7.351 0 13.332-5.981 13.332-13.335v-16.949z"/>
    <path d="m225.433 135v-.055h10.735z"/>
    <path d="m230.801 320.875h-171.759c-2.964 0-5.367-2.401-5.367-5.367v-305.946c0-2.964 2.403-5.367 5.367-5.367h171.759c2.964 0 5.367 2.403 5.367 5.367v10.735h-10.735v-5.367h-161.024v295.21h161.024v-32.31h10.735v37.677c0 2.967-2.403 5.368-5.367 5.368z"/>
    <path d="m75.144 36.4h118.084v10.735h-118.084z"/>
    <path d="m193.228 299.405h-112.716c-2.964 0-5.367-2.401-5.367-5.367v-32.205c0-2.967 2.403-5.367 5.367-5.367h112.717c2.964 0 5.367 2.401 5.367 5.367v32.205c0 2.966-2.403 5.367-5.368 5.367zm-107.349-10.735h101.982v-21.47h-101.982z"/>
    <path d="m75.144 234.995h64.409v10.735h-64.409z"/>
    <path d="m75.144 57.869h48.307v10.735h-48.307z"/>
    <path d="m75.144 79.339h69.777v10.735h-69.777z"/>
    <path d="m96.614 224.261c-11.838 0-21.47-9.632-21.47-21.47s9.632-21.47 21.47-21.47 21.47 9.632 21.47 21.47-9.631 21.47-21.47 21.47zm0-32.205c-5.92 0-10.735 4.814-10.735 10.735s4.814 10.735 10.735 10.735c5.92 0 10.735-4.814 10.735-10.735s-4.814-10.735-10.735-10.735z"/>
    <path d="m96.614 138.381c-11.838 0-21.47-9.632-21.47-21.47s9.632-21.47 21.47-21.47 21.47 9.632 21.47 21.47-9.631 21.47-21.47 21.47zm0-32.205c-5.92 0-10.735 4.814-10.735 10.735 0 5.92 4.814 10.735 10.735 10.735 5.92 0 10.735-4.814 10.735-10.735 0-5.92-4.814-10.735-10.735-10.735z"/>
    <path d="m214.698 251.098h37.572v10.735h-37.572z"/>
    <path d="m147.606 65.269h10.734v22.772h-10.734z" transform="matrix(.707 -.707 .707 .707 -9.399 130.62)"/>
    <path d="m225.433 31.032h10.735v21.47h-10.735z"/>
    <path d="m96.614 181.321c-1.04 0-2.078-.301-2.977-.902l-16.102-10.735 5.955-8.932 7.758 5.171v-32.91h10.735v42.94c0 1.979-1.09 3.798-2.836 4.733-.793.425-1.665.635-2.533.635z"/>
    <path d="m94.989 165.219h19.353v10.735h-19.353z" transform="matrix(.832 -.555 .555 .832 -77.046 86.708)"/>
    <path d="m80.512 288.67h-75.145c-2.964 0-5.367-2.401-5.367-5.367v-228.374c0-2.964 2.403-5.367 5.367-5.367h28.887l-6.851-13.702 9.603-4.801 10.735 21.47c.831 1.664.742 3.64-.236 5.223-.978 1.58-2.705 2.545-4.565 2.545h-32.205v217.639h69.777z"/>
    <path d="m26.308 60.553h19.353v10.735h-19.353z" transform="matrix(.555 -.832 .832 .555 -38.826 59.295)"/>
</svg>