<svg width="40" height="40" viewBox="0 0 40 40" fill="none" xmlns="http://www.w3.org/2000/svg">
<path d="M30.2799 8.2533C29.9824 6.96695 28.8229 6 27.4447 6H10.5996C8.99389 6 7.68567 7.30822 7.68567 8.91397V10.4278V24.8971C7.68567 26.2009 8.54761 27.3035 9.72457 27.6754C10.0177 28.9836 11.1903 29.9331 12.5598 29.9331H14.5287V29.8543C14.5287 29.5918 14.5724 29.338 14.6556 29.1017H12.5642C11.7022 29.1017 10.9497 28.5723 10.639 27.811H14.3318C13.9818 27.6141 13.7061 27.3297 13.518 26.9797H10.604C10.464 26.9797 10.3196 26.9666 10.1884 26.9403C10.184 26.9403 10.1752 26.936 10.1665 26.936C9.22579 26.7347 8.52136 25.899 8.52136 24.9014V10.8435H29.5317V12.5455V24.8927C29.5317 26.0434 28.5954 26.9753 27.449 26.9753H24.5351C24.3513 27.321 24.0713 27.6098 23.7256 27.8066H27.449C29.0548 27.8066 30.363 26.5028 30.363 24.8927V12.9612H31.4875V27.0147C31.4875 28.1611 30.5511 29.0974 29.4048 29.0974H23.3844C23.4675 29.3336 23.5112 29.5874 23.5112 29.8499V29.9287H29.4004C31.0106 29.9287 32.3144 28.6248 32.3144 27.0147V12.5455V11.0316C32.3188 9.76716 31.4743 8.63395 30.2799 8.2533ZM11.4003 8.71271C11.3216 8.79146 11.2166 8.83521 11.1072 8.83521C11.0547 8.83521 10.9978 8.82646 10.9497 8.80459C10.9015 8.78709 10.8534 8.75646 10.814 8.71271C10.7353 8.63832 10.6915 8.52894 10.6915 8.41956C10.6915 8.3058 10.7353 8.20517 10.814 8.12641C10.9715 7.9689 11.2472 7.9689 11.4047 8.12641C11.4791 8.20517 11.5272 8.31017 11.5272 8.41956C11.5228 8.53332 11.4835 8.63395 11.4003 8.71271ZM13.2686 8.71271C13.1942 8.79146 13.0892 8.83521 12.9798 8.83521C12.8661 8.83521 12.7654 8.79146 12.6867 8.71271C12.6035 8.63395 12.5642 8.53332 12.5642 8.42393C12.5642 8.31017 12.6035 8.20954 12.6867 8.13079C12.8398 7.97765 13.1198 7.97327 13.273 8.13079C13.3517 8.20954 13.3999 8.31455 13.3999 8.42393C13.3955 8.53332 13.3473 8.63832 13.2686 8.71271ZM15.1412 8.71271C15.0625 8.79146 14.9575 8.83521 14.8481 8.83521C14.7387 8.83521 14.6381 8.79146 14.5549 8.71271C14.4762 8.63395 14.4324 8.52894 14.4324 8.41956C14.4324 8.3058 14.4762 8.20517 14.5549 8.12641C14.7081 7.9689 14.9881 7.9689 15.1412 8.12641C15.1806 8.16579 15.2112 8.20954 15.2331 8.25767C15.255 8.31017 15.2681 8.36705 15.2681 8.41956C15.2637 8.53332 15.22 8.63395 15.1412 8.71271ZM26.9415 8.83959H17.7052C17.4777 8.83959 17.2895 8.65145 17.2895 8.42393C17.2895 8.19204 17.4777 8.00828 17.7052 8.00828H26.9415C27.169 8.00828 27.3572 8.19204 27.3572 8.42393C27.3572 8.65145 27.169 8.83959 26.9415 8.83959Z" fill="#383F51"/>
<path d="M17.062 16.1996V16.6459C17.062 17.0746 17.4077 17.4203 17.8365 17.4203H20.2079C20.6367 17.4203 20.9823 17.0746 20.9823 16.6459V16.1996C23.4719 17.0353 25.1389 19.3279 25.1651 21.9619C24.4038 22.15 23.835 22.8326 23.835 23.6508C23.835 24.6177 24.6226 25.4053 25.5895 25.4053C26.5521 25.4053 27.3353 24.6177 27.3353 23.6508C27.3353 22.8282 26.7621 22.1413 25.9965 21.9575C25.9746 19.3629 24.5438 17.0615 22.3256 15.8758H24.6926C24.8807 16.6415 25.5677 17.2103 26.3902 17.2103C27.3528 17.2103 28.136 16.4227 28.136 15.4558C28.136 14.4932 27.3528 13.71 26.3902 13.71C25.5677 13.71 24.8764 14.2788 24.6926 15.0445H20.9867V14.2744C20.9867 13.8457 20.641 13.5 20.2123 13.5H17.8408C17.4121 13.5 17.0664 13.8457 17.0664 14.2744V15.0445H13.3649C13.1767 14.2788 12.4942 13.71 11.6716 13.71C10.7047 13.71 9.91711 14.4932 9.91711 15.4558C9.91711 16.4227 10.7047 17.2103 11.6716 17.2103C12.4898 17.2103 13.1724 16.6415 13.3605 15.8758H15.7276C13.5049 17.0615 12.0785 19.3629 12.0523 21.9575C11.2866 22.1457 10.7134 22.8282 10.7134 23.6508C10.7134 24.6177 11.501 25.4053 12.4679 25.4053C13.4305 25.4053 14.2137 24.6177 14.2137 23.6508C14.2137 22.8326 13.6449 22.1457 12.8836 21.9575C12.9055 19.3279 14.5725 17.0396 17.062 16.1996ZM26.504 23.6551C26.504 24.1627 26.0927 24.5783 25.5895 24.5783C25.082 24.5783 24.6664 24.1627 24.6664 23.6551C24.6664 23.152 25.082 22.7407 25.5895 22.7407C26.0971 22.7363 26.504 23.1476 26.504 23.6551ZM26.3902 14.5457C26.8934 14.5457 27.3047 14.957 27.3047 15.4601C27.3047 15.9677 26.8934 16.3833 26.3902 16.3833C25.8827 16.3833 25.4714 15.9721 25.467 15.4645C25.4627 14.957 25.467 15.4645 25.467 15.4601C25.467 14.9526 25.8827 14.5457 26.3902 14.5457ZM11.6629 16.3833C11.1553 16.3833 10.7397 15.9677 10.7397 15.4601C10.7397 14.957 11.1553 14.5457 11.6629 14.5457C12.166 14.5457 12.5773 14.957 12.5773 15.4601C12.5817 15.9677 12.1704 16.3833 11.6629 16.3833ZM13.378 23.6551C13.378 24.1627 12.9667 24.5783 12.4636 24.5783C11.956 24.5783 11.5404 24.1627 11.5404 23.6551C11.5404 23.152 11.956 22.7407 12.4636 22.7407C12.9667 22.7363 13.378 23.1476 13.378 23.6551Z" fill="#383F51"/>
<path d="M23.3142 25.386C21.4416 23.3777 20.3434 20.3544 19.8621 18.7311C19.7483 18.3549 19.4114 18.1055 19.022 18.1055C18.637 18.1055 18.3001 18.3592 18.1863 18.7311C17.7007 20.35 16.6068 23.3777 14.7342 25.386C14.5373 25.596 14.4629 25.8892 14.5286 26.1692C14.5942 26.4624 14.8086 26.6986 15.0886 26.7993C15.8849 27.0924 16.4274 27.8931 16.4274 28.7857V28.8819C16.4143 28.8863 16.4056 28.895 16.3924 28.8994C16.3487 28.9213 16.3049 28.9432 16.2656 28.9694C16.2481 28.9782 16.2262 28.9957 16.2131 29.0088C16.1781 29.0307 16.1518 29.0569 16.1168 29.0832C16.1037 29.1007 16.0862 29.1138 16.073 29.1269C16.0337 29.1707 15.9943 29.2144 15.9593 29.2582C15.9549 29.2669 15.9505 29.2713 15.9505 29.2757C15.9155 29.3194 15.8937 29.3719 15.8718 29.4201C15.863 29.4376 15.8543 29.4595 15.8455 29.4726C15.8324 29.512 15.8149 29.5557 15.8061 29.5995C15.8018 29.617 15.7974 29.6388 15.793 29.652C15.7799 29.7132 15.7711 29.7745 15.7711 29.8445V32.4653C15.7711 33.0428 16.2393 33.511 16.8212 33.511H21.2053C21.7872 33.511 22.2554 33.0428 22.2554 32.4653V29.8445C22.2554 29.7789 22.2466 29.7176 22.2335 29.652C22.2291 29.6345 22.2248 29.6126 22.2204 29.5995C22.2116 29.5557 22.1941 29.512 22.181 29.4726C22.1723 29.4551 22.1635 29.4332 22.1591 29.4201C22.1329 29.3719 22.111 29.3194 22.076 29.2713C22.076 29.2669 22.0716 29.2626 22.0672 29.2626C22.0322 29.2144 21.9972 29.1663 21.9535 29.1226C21.9404 29.1094 21.9229 29.0963 21.9141 29.0832C21.8791 29.0525 21.8529 29.0263 21.8179 29.0044C21.8004 28.9913 21.7829 28.9782 21.7653 28.965C21.7216 28.9344 21.6778 28.9125 21.6341 28.8907C21.6253 28.8863 21.6166 28.8819 21.6078 28.8775V28.7813C21.6078 27.8887 22.146 27.088 22.9423 26.7949C23.2267 26.6899 23.4367 26.4536 23.5024 26.1648C23.5855 25.8892 23.5111 25.596 23.3142 25.386ZM21.4372 31.0214H16.6112V29.8489C16.6112 29.7263 16.7118 29.6301 16.83 29.6301H21.2141C21.3366 29.6301 21.4328 29.7307 21.4328 29.8489V31.0214H21.4372ZM22.671 26.0161C21.5466 26.4317 20.794 27.5474 20.794 28.7857L17.2631 28.7988V28.7857C17.2631 27.5474 16.5062 26.4317 15.3817 26.0161C15.3511 26.0073 15.3424 25.9811 15.3424 25.9504C16.9044 24.2791 17.9457 22.017 18.6107 20.1137V23.1634C18.6107 23.194 18.6195 23.2159 18.6282 23.2465C18.2782 23.3996 18.0288 23.7496 18.0288 24.1566C18.0288 24.7078 18.4795 25.1541 19.0264 25.1541C19.5777 25.1541 20.024 24.7078 20.024 24.1566C20.024 23.7496 19.7789 23.3996 19.4245 23.2465C19.4289 23.2159 19.442 23.194 19.442 23.1634V20.1094C20.1071 22.0126 21.1441 24.2747 22.7148 25.9548L22.7192 25.9767C22.706 25.9854 22.7017 26.0073 22.671 26.0161Z" fill="#383F51"/>
</svg>
