<svg width="35" height="35" viewBox="0 0 35 35" fill="none" xmlns="http://www.w3.org/2000/svg">
<path d="M16.3259 28.957H18.9345V30.0006H16.3259V28.957Z" fill="#383F51"/>
<path d="M18.5419 13.3184C17.9914 13.3184 17.7006 13.5732 17.3458 14.367C17.3037 14.4611 17.2105 14.5214 17.1076 14.5214C17.0049 14.5214 16.9115 14.4611 16.8695 14.367C16.5146 13.5732 16.2239 13.3184 15.6733 13.3184C15.0262 13.3184 14.4998 13.9208 14.4998 14.6614C14.4998 15.7638 15.2757 16.5399 16.2581 17.5223C16.5343 17.7986 16.8183 18.0825 17.1076 18.395C17.3977 18.082 17.6821 17.7976 17.9593 17.5207C18.9413 16.5389 19.7173 15.7633 19.7173 14.6616C19.7173 13.9208 19.19 13.3184 18.5419 13.3184Z" fill="#383F51"/>
<path d="M22.0651 25.8276C22.2091 25.8276 22.326 25.7107 22.326 25.5666C22.326 25.4224 22.2091 25.3057 22.0651 25.3057H19.9782V23.1289C19.4838 23.3504 18.9595 23.5162 18.4128 23.619V25.3057H17.8911V23.6968C17.6342 23.7254 17.3731 23.7405 17.1085 23.7405C17.0212 23.7405 16.9341 23.7384 16.8476 23.7351V25.3057H16.3259V23.6968C15.7832 23.6367 15.2592 23.5144 14.7607 23.3378V25.3057H12.1519C12.0079 25.3057 11.891 25.4224 11.891 25.5666C11.891 25.7107 12.0079 25.8276 12.1519 25.8276H14.7607V26.8711H12.1519C12.0079 26.8711 11.891 26.9878 11.891 27.132C11.891 27.2761 12.0079 27.393 12.1519 27.393H14.7607V28.4363H19.9782V27.393H22.0653C22.2091 27.393 22.326 27.2761 22.326 27.132C22.326 26.9878 22.2091 26.8711 22.0653 26.8711H19.9782V25.8276H22.0651Z" fill="#383F51"/>
<path d="M17.3695 6C11.4717 6 6.67371 10.798 6.67371 16.6958C6.67371 19.2453 7.58529 21.7142 9.2411 23.6481C9.33468 23.7576 9.4994 23.7706 9.60893 23.6765C9.71827 23.5829 9.73107 23.4182 9.63732 23.3089C8.06246 21.4692 7.19539 19.1209 7.19539 16.6959C7.19539 11.0857 11.7594 6.52186 17.3695 6.52186C22.9795 6.52186 27.5434 11.0857 27.5434 16.6958C27.5434 19.1209 26.6761 21.4692 25.1013 23.3089C25.0077 23.4184 25.0205 23.5829 25.1298 23.6767C25.1789 23.7187 25.2394 23.7394 25.2995 23.7394C25.3729 23.7394 25.4462 23.7084 25.4977 23.6483C27.1533 21.7142 28.0652 19.2453 28.0652 16.6958C28.0652 10.798 23.2671 6 17.3695 6Z" fill="#383F51"/>
<path d="M25.1956 16.1741C25.3398 16.1741 25.4565 16.057 25.4565 15.9132C25.4565 15.7691 25.3398 15.6522 25.1956 15.6522H23.6305C23.6018 15.6522 23.5748 15.658 23.5489 15.6664C23.3204 14.2314 22.6224 12.9508 21.6174 11.9882C21.6579 11.9761 21.6959 11.9554 21.728 11.9237L22.8346 10.8169C22.9366 10.7149 22.9366 10.5497 22.8346 10.4477C22.733 10.3461 22.5677 10.3461 22.4657 10.4477L21.3589 11.5547C21.32 11.5936 21.2962 11.6419 21.2871 11.6924C20.2793 10.8492 19.0139 10.3045 17.6281 10.1947C17.6288 10.1876 17.6304 10.181 17.6304 10.174V8.60858C17.6304 8.46436 17.5135 8.34766 17.3695 8.34766C17.2253 8.34766 17.1086 8.46436 17.1086 8.60858V10.174C15.52 10.174 14.0628 10.7449 12.93 11.6922C12.9209 11.6419 12.8971 11.5936 12.8582 11.5547L11.7514 10.4477C11.6494 10.3461 11.4843 10.3461 11.3825 10.4477C11.2805 10.5497 11.2805 10.7149 11.3825 10.8166L12.4893 11.9237C12.5209 11.9554 12.5592 11.9761 12.5997 11.9879C11.5947 12.9508 10.8966 14.2314 10.6683 15.6664C10.6425 15.658 10.6153 15.6521 10.5866 15.6521H9.0212C8.87733 15.6521 8.76062 15.7691 8.76062 15.913C8.76062 16.057 8.87733 16.1739 9.0212 16.1739H10.5866C10.594 16.1739 10.6006 16.1723 10.6076 16.1718C10.594 16.3446 10.5866 16.5193 10.5866 16.6956C10.5866 16.7688 10.5883 16.8419 10.5908 16.9148C10.5913 16.9343 10.5922 16.9534 10.5931 16.9726C10.5955 17.037 10.599 17.1013 10.6038 17.1651C10.6043 17.1743 10.6048 17.1838 10.6055 17.1931C10.6108 17.262 10.6174 17.3307 10.6246 17.3992C10.6272 17.4232 10.6302 17.4475 10.633 17.4715C10.639 17.5201 10.6453 17.5686 10.652 17.617C10.6562 17.6461 10.6602 17.6748 10.6647 17.7036C10.673 17.7575 10.6823 17.8113 10.6919 17.865C10.6989 17.903 10.7063 17.9412 10.714 17.9794C10.7184 18.0018 10.7231 18.0244 10.728 18.0469C11.2991 20.7474 13.5463 22.8366 16.326 23.1706V20.4874L14.8769 19.5215C14.7571 19.4417 14.7246 19.2796 14.8045 19.1598C14.8845 19.0397 15.0464 19.0073 15.1664 19.0874L16.7316 20.1309C16.8042 20.1793 16.8476 20.2606 16.8476 20.3479V23.2118C16.9342 23.2153 17.0211 23.2176 17.1086 23.2176C17.3733 23.2176 17.6344 23.2013 17.8912 23.1706V20.3479C17.8912 20.2606 17.9348 20.1793 18.0074 20.1309L19.5726 19.0874C19.6926 19.0073 19.8544 19.0397 19.9343 19.1598C20.0143 19.2796 19.9819 19.4417 19.8621 19.5215L18.4129 20.4874V23.0863C20.9065 22.5783 22.8874 20.6426 23.4614 18.1734C23.463 18.1667 23.4646 18.1599 23.466 18.1534C23.4965 18.0202 23.5226 17.8853 23.545 17.7491C23.5505 17.7151 23.5557 17.6813 23.5608 17.6473C23.5652 17.618 23.569 17.589 23.5731 17.5597C23.5794 17.5131 23.5848 17.4665 23.5901 17.4199C23.592 17.4018 23.5944 17.3838 23.5962 17.3657C23.6027 17.3009 23.6081 17.2362 23.613 17.171C23.6142 17.1512 23.6155 17.1311 23.6167 17.1113C23.62 17.061 23.6227 17.0107 23.6246 16.9604C23.6255 16.9404 23.6263 16.9203 23.6269 16.9001C23.629 16.8321 23.6305 16.7641 23.6305 16.6958C23.6305 16.5193 23.623 16.3448 23.6093 16.1718C23.6163 16.1725 23.623 16.1741 23.6305 16.1741H25.1956ZM18.328 17.8898C17.9944 18.2233 17.6495 18.568 17.302 18.9567C17.2526 19.0119 17.182 19.0434 17.1077 19.0434C17.0336 19.0434 16.9629 19.0119 16.9133 18.9567C16.5664 18.5687 16.222 18.2242 15.8891 17.8914C14.8638 16.8659 13.9781 15.9803 13.9781 14.6618C13.9781 13.6335 14.7387 12.7969 15.6734 12.7969C16.3741 12.7969 16.7858 13.1376 17.1079 13.6845C17.4298 13.1376 17.8414 12.7969 18.5424 12.7969C19.4778 12.7969 20.239 13.6335 20.239 14.6618C20.239 15.9796 19.3533 16.8649 18.328 17.8898Z" fill="#383F51"/>
</svg>
