<svg width="35" height="35" viewBox="0 0 35 35" fill="none" xmlns="http://www.w3.org/2000/svg">
<path d="M28.9999 5.91602H26.7655V8.91601H28.9999V5.91602Z" fill="#383F51"/>
<path d="M26.7656 9.66602V14.166H25.9849C25.9357 13.7715 25.7617 13.403 25.4884 13.1143C25.215 12.8256 24.8566 12.6318 24.4653 12.5612C24.349 11.7579 23.9474 11.0234 23.3341 10.4918C22.7208 9.96021 21.9366 9.66709 21.125 9.66602H9.87501C9.06338 9.66709 8.27923 9.96021 7.66591 10.4918C7.05259 11.0234 6.65105 11.7579 6.5347 12.5612C6.10298 12.6392 5.71253 12.8667 5.43188 13.2039C5.15123 13.5411 4.99833 13.9664 5.00001 14.4051V16.416C5.00001 21.0004 9.4297 23.7936 12.5 23.0483V24.1284L14 24.9866V22.2534C13.9776 22.2745 14.547 21.6819 14.75 21.1581V25.416H16.25V21.1562C16.4206 21.57 16.6761 21.9434 17 22.2523V24.9866L18.5 24.1284V23.0479C21.5721 23.7932 26 20.9998 26 16.416H26.7656V26.1504C26.7656 26.5524 26.6059 26.9379 26.3217 27.2221C26.0375 27.5063 25.652 27.666 25.25 27.666C24.848 27.666 24.4625 27.5063 24.1783 27.2221C23.8941 26.9379 23.7344 26.5524 23.7344 26.1504V25.791H24.5V24.291H23.75V25.041H21.5V24.291H20.75V25.791H21.5V26.1582C21.5016 27.1507 21.896 28.1023 22.597 28.805C23.2981 29.5077 24.2487 29.9043 25.2413 29.9082H25.2503C25.7428 29.9084 26.2305 29.8115 26.6855 29.6231C27.1406 29.4347 27.554 29.1585 27.9023 28.8102C28.2505 28.462 28.5267 28.0485 28.7151 27.5935C28.9034 27.1384 29.0002 26.6507 29 26.1582V9.66602H26.7656ZM25.25 16.416C25.25 22.0792 17.7901 24.4059 16.7957 20.4277C16.7549 20.2645 16.6374 19.6633 16.4647 18.7349C16.2585 17.626 14.6558 17.6534 14.4882 18.7692C14.3612 19.6142 14.2604 20.2032 14.2043 20.4277C13.2078 24.414 5.75001 22.0683 5.75001 16.416V14.4051C5.74894 14.1249 5.85292 13.8544 6.04144 13.6471C6.22996 13.4398 6.48932 13.3106 6.76837 13.2851C13.0886 12.6875 12.7496 12.4783 14.1116 13.2872C15.2494 13.9633 15.7503 13.9643 16.888 13.2872C17.4103 12.9764 17.9039 12.6828 18.6934 12.7579L24.2316 13.2853C24.5107 13.3108 24.77 13.4399 24.9585 13.6472C25.147 13.8545 25.251 14.1249 25.25 14.4051V16.416ZM26.7656 15.666H26V14.916H26.7656V15.666Z" fill="#383F51"/>
<path d="M20.75 19.4166V18.6666H23.9931C24.1097 18.4247 24.2069 18.1739 24.2837 17.9166H20V17.1666H24.4468C24.4821 16.9181 24.4999 16.6675 24.5 16.4166H22.25V15.6666H24.5V15.0875C24.5011 14.8073 24.3971 14.5368 24.2086 14.3295C24.0201 14.1222 23.7607 13.993 23.4816 13.9676L18.6223 13.5048C17.1291 13.3624 16.4525 15.5508 13.7286 13.9325C12.8865 13.4321 13.0339 13.4096 10.2461 13.696C9.5406 13.7684 8.66259 13.8586 7.51846 13.9676C7.23939 13.993 6.98 14.1222 6.79147 14.3295C6.60293 14.5368 6.49894 14.8073 6.50001 15.0875V16.4166C6.50001 19.4405 9.09051 21.6649 11.476 21.6649C13.4433 21.6649 13.5223 20.2765 13.7601 18.6393C14.036 16.7408 16.7652 16.6489 17.1518 18.5449C17.31 19.3207 17.435 19.8932 17.5233 20.2465C18.0935 22.5271 21.7779 21.9176 23.5502 19.4168L20.75 19.4166ZM20.75 15.6666H21.5V16.4166H20.75V15.6666Z" fill="#383F51"/>
</svg>
