<svg clip-rule="evenodd" fill-rule="evenodd" height="32" image-rendering="optimizeQuality" shape-rendering="geometricPrecision" text-rendering="geometricPrecision" viewBox="0 0 1707 1707" width="32"
    xmlns="http://www.w3.org/2000/svg">
    <g id="Layer_x0020_1">
        <path d="m519 1454h-244c-8 0-15-2-21-5l143-127 144 127c-7 3-14 5-22 5zm-92-159 140-123c9 22 4 238 1 247zm-201 125c-2-6-3-12-3-18v-213c0-6 1-12 3-17l141 124zm28-278c6-2 13-4 21-4h244c8 0 15 2 21 4l-143 127z"/>
        <path d="m1390 1051h-1073c-19 0-37-6-51-17 117-36 351-109 589-183l586 183c-14 11-32 17-51 17zm-470-221c218-68 430-135 548-172 6 11 9 24 9 37v269c0 13-3 26-9 37zm-682 171c-5-11-8-24-8-37v-269c0-13 3-26 8-37l549 172zm28-376c14-11 32-17 51-17h1073c19 0 37 6 51 17l-588 184z"/>
        <path d="m975 1454h-244c-7 0-15-2-21-5l144-127 143 127c-6 3-14 5-22 5zm-91-159 140-123c2 5 3 11 3 17v213c0 6-1 12-3 17zm-201 125c-2-6-3-12-3-18v-213c0-6 1-12 3-18l141 124zm28-278c6-3 13-4 20-4h244c8 0 15 2 22 4l-143 127z"/>
        <path d="m1432 1454h-244c-8 0-15-2-22-5l144-127 144 126c-6 4-14 6-22 6zm-92-159 140-123c9 22 4 238 1 247zm-201 124c-2-5-3-11-3-17v-213c0-6 1-12 4-18l140 124zm28-277c6-3 13-4 21-4h244c7 0 14 2 21 4l-143 126z"/>
        <path d="m1563 1628h-1419c-79 0-144-65-144-144v-1261c0-79 65-144 144-144h666v405h-732v1000c0 36 30 66 66 66h1419c36 0 65-30 65-66v-1000h-779v-405h714c79 0 144 65 144 144v1261c0 79-65 144-144 144zm-1312-1333h-108c-25 0-25-39 0-39h108c26 0 26 39 0 39zm225 0h-108c-25 0-25-39 0-39h108c26 0 26 39 0 39zm225 0h-108c-26 0-26-39 0-39h108c26 0 26 39 0 39zm830 113h-590c-28 0-51-23-51-51v-131c0-29 23-51 51-51h590c29 0 52 22 52 51v131c0 28-23 51-52 51zm-590-195c-6 0-12 6-12 13v131c0 7 6 12 12 12h590c7 0 13-5 13-12v-131c0-7-6-13-13-13zm525 98h-459c-25 0-25-39 0-39h458c26 0 26 39 1 39z"/>
    </g>
</svg>